<?xml version="1.0" encoding="utf-8"?>
<!-- Generator: Adobe Illustrator 24.1.3, SVG Export Plug-In . SVG Version: 6.00 Build 0)  -->
<svg version="1.1" id="Capa_1" xmlns="http://www.w3.org/2000/svg" xmlns:xlink="http://www.w3.org/1999/xlink" x="0px" y="0px"
	 viewBox="0 0 480 480" style="enable-background:new 0 0 480 480;" xml:space="preserve">
<style type="text/css">
	.st0{fill:#FFFFFF;}
</style>
<path class="st0" d="M193,240L364.6,68.5l0.1-0.1l0.1-0.1c6.8-6.9,10.6-16.1,10.6-25.8c0-9.8-3.8-19-10.7-25.9l-0.1-0.1l-0.1-0.1
	C357.5,9.8,348.4,6,338.7,6c-9.8,0-19,3.8-25.9,10.7L115.4,214.1l-0.1,0.1l-0.1,0.1c-6.8,6.9-10.6,16.1-10.6,25.8
	c0,9.8,3.8,19,10.7,25.9l197.4,197.4c6.9,6.9,16.1,10.7,25.9,10.7c9.6,0,18.7-3.7,25.6-10.4l0.2-0.2l0.2-0.2
	c6.8-6.9,10.6-16.1,10.6-25.8c0-9.8-3.8-19-10.7-25.9L193,240z"/>
</svg>
