<svg xmlns="http://www.w3.org/2000/svg" viewBox="0 0 22.82 23"><defs><style>.cls-1{fill:#fff;}</style></defs><g id="Capa_2" data-name="Capa 2"><g id="Capa_1-2" data-name="Capa 1"><path class="cls-1" d="M18.9,23h-.3a22.54,22.54,0,0,1-9.1-3.2,21,21,0,0,1-6.3-6.3A19.92,19.92,0,0,1,0,4.4,3.41,3.41,0,0,1,.7,2.2a3.09,3.09,0,0,1,2-1.1H6A3,3,0,0,1,9,3.7a11,11,0,0,0,.6,2.6,3.17,3.17,0,0,1-.7,3.2l-.7.7a15.52,15.52,0,0,0,4.6,4.6l.7-.7a3.12,3.12,0,0,1,3.2-.7,11,11,0,0,0,2.6.6,3,3,0,0,1,2.6,3v3a2.72,2.72,0,0,1-.9,2.1,3.33,3.33,0,0,1-2.1.9ZM6,3.1H3a1.23,1.23,0,0,0-.8.4,1.45,1.45,0,0,0-.2.7,18.81,18.81,0,0,0,2.9,8.2,18.24,18.24,0,0,0,5.7,5.7A18.81,18.81,0,0,0,18.8,21a1,1,0,0,0,.8-.3.91.91,0,0,0,.3-.7V17h0a1.06,1.06,0,0,0-.9-1,11.14,11.14,0,0,1-3-.8,1.09,1.09,0,0,0-1.1.2l-1.3,1.3a1.06,1.06,0,0,1-1.2.2A16.41,16.41,0,0,1,6,10.5a1.31,1.31,0,0,1,.3-1.2L7.6,8a1.16,1.16,0,0,0,.2-1A16.66,16.66,0,0,1,7,4,1,1,0,0,0,6,3.1Zm11.9,7a1,1,0,0,1-1-.8,4.19,4.19,0,0,0-3.2-3.2,1,1,0,0,1,.4-2,5.86,5.86,0,0,1,4.7,4.7A1,1,0,0,1,18,10,.1.1,0,0,1,17.9,10.1Zm4-.1a1.06,1.06,0,0,1-1-.9A8.08,8.08,0,0,0,13.8,2,1.17,1.17,0,0,1,12.9.9,1.17,1.17,0,0,1,14,0a9.81,9.81,0,0,1,8.8,8.8,1,1,0,0,1-.9,1.1C22,10,21.9,10,21.9,10Z"/></g></g></svg>