<svg xmlns="http://www.w3.org/2000/svg" viewBox="0 0 983.93 843.35"><defs><style>.cls-1{fill:#1f3d59;}.cls-2{opacity:0.1;}.cls-3{fill:#61b9be;}.cls-4{fill:#fff;}.cls-5{fill:#88cace;}.cls-6{opacity:0.3;}.cls-7,.cls-8{fill:none;stroke:#1f3d59;stroke-linecap:round;stroke-linejoin:round;}.cls-7{stroke-width:19px;}.cls-8{stroke-width:12px;}</style></defs><g id="Capa_2" data-name="Capa 2"><g id="Capa_1-2" data-name="Capa 1"><path class="cls-1" d="M167.46,426.65l1-2.57L153.17,418l-1,2.56q-2.62,6.59-4.91,13.28l15.61,5.33C164.27,434.94,165.8,430.78,167.46,426.65Z"/><path class="cls-1" d="M142.22,450.1a275.72,275.72,0,0,0-4.71,124.52l16.19-3.13a259.28,259.28,0,0,1,4.43-117Z"/><g class="cls-2"><path class="cls-3" d="M886.68,339,41.87,589.37c-27.12,8-45.58,39.77-41.24,70.87h0C5,691.35,30.48,710.05,57.59,702L902.4,451.65c27.12-8,45.58-39.76,41.24-70.87h0C939.3,349.68,913.79,331,886.68,339Z"/><path class="cls-3" d="M932.09,124,150.48,355.67c-25.09,7.43-42.73,32.75-39.41,56.55h0c3.32,23.8,26.35,37.06,51.44,29.63L944.12,210.22c25.08-7.44,42.73-32.75,39.41-56.55h0C980.2,129.87,957.17,116.61,932.09,124Z"/><path class="cls-3" d="M111.64,548.21,703.9,372.69C719.4,368.1,730,350,727.47,332.2s-17.06-28.47-32.55-23.87L102.66,483.84c-15.5,4.59-26,22.73-23.57,40.5S96.15,552.8,111.64,548.21Z"/><path class="cls-3" d="M795.26,503.89l-625,185.23c-18.08,5.35-30.39,26.51-27.49,47.24s19.89,33.21,38,27.85L805.74,579c18.08-5.35,30.39-26.51,27.5-47.24S813.34,498.53,795.26,503.89Z"/><path class="cls-3" d="M153,548.06,773.31,364.23c7.75-2.3,13-11.36,11.78-20.25s-8.53-14.23-16.27-11.93L148.5,515.88c-7.75,2.29-13,11.36-11.78,20.24S145.24,550.36,153,548.06Z"/><path class="cls-3" d="M257.68,609.2c-7.75,2.3-13,11.37-11.78,20.25s8.52,14.23,16.27,11.94L697.83,512.28c7.74-2.29,13-11.36,11.78-20.25s-8.53-14.23-16.28-11.93Z"/><path class="cls-3" d="M917.57,560.28,72.76,810.63C65,812.93,59.74,822,61,830.88s8.52,14.23,16.27,11.94L922.06,592.46c7.75-2.3,13-11.36,11.78-20.25S925.31,558,917.57,560.28Z"/></g><path class="cls-4" d="M119.45,444.88c5-11.26,9.13-21.47,14.06-31.27,13-25.77,34.36-39.9,62.93-40.65,27.64-.73,49.89,11.41,63.4,35.81,8.8,15.89,15,33.22,22.36,49.92,1.08,2.45,2.05,4.95,2.5,6,10.45-19.71,19.1-40.76,31.78-59,33.84-48.78,105-43.95,132.58,8.6,7.9,15.06,12.53,31.84,18.64,47.84,1.1,2.86,2.07,5.77,2.62,7.29,10-19.95,18.85-40.69,30.37-59.82,16.1-26.73,41.16-39.43,72.36-37.07s53.27,19.21,66.14,47.55c5.92,13,10.64,26.58,16.64,41.77,2-6.89,3.38-12.27,5.12-17.53,12.74-38.44,27.65-75.09,72.83-86.11h22.91c9,3.91,18.44,7,26.89,11.89,17.87,10.28,26.56,27.8,33.94,46.07,1.83,4.53,3.69,9.06,6,14.81,13.5,43,15.65,77.63,14.84,100.14A68.15,68.15,0,0,1,773,596.81l-.82,0c-23.17.74-46.54.78-69.55-1.57-11.91-1.21-23.22-8.28-35.3-12.88-1.21,2.93-2.87,7.56-5,12-10.64,21.87-28.05,36.43-52.09,38-29.51,2-59.32,1.21-88.91-.18-20.19-.94-37.17-10.69-50.31-27.52a56.48,56.48,0,0,0-5,4.66c-14.21,17-33.34,24.52-54.55,24.89a782,782,0,0,1-79.84-2.53c-24.89-2.12-42.92-16.43-54.53-38.52C243.18,618.65,205,614.29,167.54,610.6c-31.1-3.06-40.31-8.74-56.49-31.31a23.14,23.14,0,0,1-4.34-12.77C106.11,546.88,105.77,489.76,119.45,444.88Z"/><path class="cls-5" d="M566.7,630.55c15.86-.91,29.35-1.6,42.81-2.51a118.48,118.48,0,0,0,13.3-1.84c22-4,38.91-18,39-34.93.25-42.64-7.83-84.25-31.32-123.53-10.9-18.21-28.77-29.55-55.79-30.89-27.54-1.36-47.34,8.35-61.61,25.7-30.22,36.75-40.32,77.65-43.27,120-1.65,23.68,15.59,39.81,46.73,43.7C533.86,628.36,551.45,629.26,566.7,630.55Z"/><path class="cls-5" d="M377.17,630.74c16.89-1.3,32.65-1.82,48.06-3.85,29.16-3.83,45.74-20.31,44.42-42.88-.36-6.13-.71-12.26-1.37-18.38-3.69-33.8-11.34-66.94-30.18-98-11.21-18.48-29.57-29.87-57.05-30.88-25.68-.94-44.85,8-58.39,24.17-31.3,37.46-42,79.25-44.22,122.76C277.27,606.23,294,622.29,323.52,626,341.62,628.24,360,629.25,377.17,630.74Z"/><path class="cls-5" d="M738,597.32c14.17-1.34,29.8-2.15,45.11-4.46,20.56-3.09,34.47-16.2,34-32.7-1.15-37.44-9.18-73.8-28.5-108-9.22-16.33-23.93-26.81-46.48-27.55-23-.75-38.69,8.92-49.72,25.05-23.67,34.59-30.51,72.4-30.59,111.29,0,17,14,29.58,34.31,32.54C709.44,595.42,723,596,738,597.32Z"/><path class="cls-5" d="M278.27,560c-2.64-34.74-10-68.23-30.26-98.6-10-14.95-24.43-23.34-44.18-22.57-19.16.73-33,9.53-41.5,24.77-19.49,34.81-26.81,72.22-28.15,110.67-.54,15.39,11.31,28.72,28,32.12a220.67,220.67,0,0,0,86.15.94c17.53-3.35,28.83-16,29.89-32C278.55,570.22,278.27,565.1,278.27,560Z"/><path class="cls-1" d="M396.57,641.13c-22.63,0-44.61-.9-65.53-2.68-23.54-2-42.81-14.23-56.14-35.49-33.68,21.74-70.33,18.11-105.85,14.6l-2.17-.22c-32.27-3.18-43.73-9.55-61.33-34.1a29.82,29.82,0,0,1-5.61-16.52c-.67-22.16-.75-78.59,13-123.81l.13-.41.17-.38c1.6-3.59,3.11-7.07,4.58-10.46,3.18-7.34,6.18-14.27,9.61-21.1,14.21-28.22,38-43.56,68.8-44.37,30.33-.81,55,13.16,69.5,39.3,6.3,11.37,11.31,23.47,16.17,35.17,1.09,2.64,2.21,5.33,3.34,8,1-1.91,1.88-3.82,2.81-5.71,6.8-13.84,13.83-28.16,22.83-41.13,17.17-24.74,44.94-38.43,74.3-36.62,29.59,1.82,55.71,19,69.85,45.93,5.68,10.82,9.72,22.44,13.63,33.68.83,2.4,1.68,4.84,2.54,7.27q1-2.12,2-4.2c6.65-13.9,13.51-28.27,21.65-41.78,17.43-29,44.63-42.91,78.67-40.33,32.79,2.47,57.62,20.28,71.8,51.5,3.47,7.64,6.52,15.41,9.62,23.52,13.52-40.52,29.87-77.63,77.19-89.17l.79-.2H758.1l1.29.57c2.72,1.18,5.57,2.32,8.33,3.43a149.51,149.51,0,0,1,19.23,8.8c20.31,11.67,29.67,31.62,36.85,49.4,1.22,3,2.44,6,3.82,9.38L830,429c14,44.47,15.93,80.23,15.14,102.41a74.94,74.94,0,0,1-71.86,72.21l-.87,0c-19.39.62-44.91,1-70.45-1.6-9.28-1-17.9-4.86-26.23-8.65-1.53-.69-3.08-1.4-4.64-2.08-.79,1.92-1.67,4-2.67,6C656,623,636,637.46,610.71,639.13c-31.39,2.09-63,1.09-89.68-.16-19.31-.91-36.65-9.32-50.53-24.45C456,631.44,435.63,640.59,411.58,641Q404,641.14,396.57,641.13ZM279.39,583l3.7,7c11.23,21.36,27.75,33.11,49.1,34.93a781.81,781.81,0,0,0,79.16,2.5c20.68-.36,37.32-7.91,49.47-22.46a32.91,32.91,0,0,1,3.95-3.83c.54-.46,1.1-.94,1.69-1.48l5.4-5,4.52,5.79c12.26,15.71,27.49,24.09,45.29,24.93,26.35,1.23,57.43,2.22,88.14.18,25.45-1.69,39.31-19.55,46.45-34.23,1.41-2.91,2.65-6.06,3.65-8.6.44-1.11.84-2.13,1.2-3l2.52-6.07,6.15,2.34c4,1.52,7.84,3.27,11.57,5,7.68,3.49,14.93,6.78,22,7.5,24.74,2.52,49.68,2.15,68.64,1.54l.77,0a61.62,61.62,0,0,0,58.86-59.15c.76-21.08-1.14-55.1-14.44-97.6l-2.1-5.15c-1.38-3.38-2.62-6.4-3.84-9.43-8.08-20-16.09-34.13-31-42.73a137,137,0,0,0-17.53-8c-2.42-1-4.9-2-7.37-3H734.61c-40.59,10.27-54.47,43-67.23,81.47-1.11,3.36-2.08,6.8-3.2,10.79-.57,2-1.17,4.18-1.85,6.5l-5.52,19-7.28-18.42c-1.94-4.91-3.74-9.65-5.49-14.23-3.64-9.55-7.09-18.57-11-27.23-12.19-26.81-32.54-41.48-60.49-43.59-28.6-2.15-51.43,9.53-66,33.81-7.8,12.95-14.52,27-21,40.63-2.94,6.15-6,12.52-9.1,18.73l-7.1,14.16-5.33-14.92-.56-1.59c-.53-1.51-1.25-3.58-2-5.57-1.94-5.07-3.74-10.26-5.49-15.27-3.92-11.27-7.62-21.91-12.83-31.83-11.92-22.71-33.86-37.18-58.69-38.71-24.59-1.51-47.89,10-62.33,30.82-8.42,12.13-15.22,26-21.8,39.38-3.07,6.25-6.24,12.7-9.56,19l-6.75,12.75-5.49-13.35-.47-1.15c-.51-1.28-1.21-3-2-4.74-2.27-5.17-4.47-10.46-6.59-15.57-4.7-11.36-9.57-23.1-15.5-33.8-12.08-21.81-31.88-33-57.29-32.32-25.87.68-45.07,13.1-57.06,36.92-3.26,6.48-6.18,13.24-9.28,20.39-1.44,3.32-2.91,6.72-4.47,10.21C112.37,491.71,113,549.59,113.48,566.31a16.25,16.25,0,0,0,3.08,9c15.37,21.44,23.09,25.71,51.65,28.52l2.18.22c36.76,3.64,71.49,7.07,102.64-16.32Z"/><g class="cls-6"><path class="cls-4" d="M771.92,570.58a8.36,8.36,0,1,1,8.36,8.35A8.35,8.35,0,0,1,771.92,570.58Z"/><path class="cls-4" d="M738.45,570.6a8.36,8.36,0,1,1,8.36,8.35A8.35,8.35,0,0,1,738.45,570.6Z"/><path class="cls-4" d="M771.9,537.15a8.36,8.36,0,1,1,8.36,8.36A8.35,8.35,0,0,1,771.9,537.15Z"/><path class="cls-4" d="M738.43,537.18a8.36,8.36,0,1,1,8.36,8.35A8.34,8.34,0,0,1,738.43,537.18Z"/><path class="cls-4" d="M771.88,503.73a8.36,8.36,0,1,1,8.36,8.35A8.35,8.35,0,0,1,771.88,503.73Z"/><path class="cls-4" d="M738.4,503.75a8.36,8.36,0,1,1,8.37,8.35A8.36,8.36,0,0,1,738.4,503.75Z"/><path class="cls-4" d="M771.85,470.31a8.36,8.36,0,1,1,8.36,8.35A8.37,8.37,0,0,1,771.85,470.31Z"/><circle class="cls-4" cx="746.74" cy="470.32" r="8.36"/><path class="cls-4" d="M771.83,436.88a8.36,8.36,0,1,1,8.36,8.35A8.36,8.36,0,0,1,771.83,436.88Z"/><path class="cls-4" d="M738.36,436.9a8.36,8.36,0,1,1,8.36,8.35A8.37,8.37,0,0,1,738.36,436.9Z"/><path class="cls-4" d="M813.72,528.77a8.36,8.36,0,1,1-8.35,8.36A8.36,8.36,0,0,1,813.72,528.77Z"/><circle class="cls-4" cx="813.7" cy="503.66" r="8.36"/><circle class="cls-4" cx="813.68" cy="470.18" r="8.36"/><circle class="cls-4" cx="813.66" cy="436.71" r="8.36"/><path class="cls-4" d="M771.81,403.46a8.36,8.36,0,1,1,8.36,8.35A8.35,8.35,0,0,1,771.81,403.46Z"/><path class="cls-4" d="M738.34,403.48a8.36,8.36,0,1,1,8.36,8.35A8.34,8.34,0,0,1,738.34,403.48Z"/><path class="cls-4" d="M813.63,395a8.36,8.36,0,1,1-8.35,8.36A8.35,8.35,0,0,1,813.63,395Z"/><path class="cls-4" d="M813.61,361.51a8.36,8.36,0,1,1-8.35,8.36A8.35,8.35,0,0,1,813.61,361.51Z"/></g><path class="cls-7" d="M900.23,241.31S970.8,450.1,836,450.1"/><path class="cls-7" d="M113.28,456.35S20.19,478.66,48,238.23"/><rect class="cls-5" x="425.16" y="102.88" width="68.99" height="247.99" transform="translate(265.08 -247.36) rotate(41.42)"/><rect class="cls-5" x="536.98" y="86.81" width="37.57" height="52.13" transform="translate(213.7 -339.47) rotate(41.42)"/><path class="cls-5" d="M525.13,62H649.55a0,0,0,0,1,0,0V81.2a0,0,0,0,1,0,0H536.78a11.65,11.65,0,0,1-11.65-11.65V62a0,0,0,0,1,0,0Z" transform="translate(194.28 -370.68) rotate(41.42)"/><rect class="cls-7" x="394.79" y="91.39" width="103.7" height="247.99" transform="translate(254.23 -241.62) rotate(41.42)"/><rect class="cls-8" x="512.48" y="77.54" width="65.58" height="52.13" transform="translate(204.94 -334.84) rotate(41.42)"/><rect class="cls-7" x="501.66" y="53.08" width="145.13" height="35.41" transform="translate(190.47 -362.2) rotate(41.42)"/><path class="cls-1" d="M313.24,292h15.9a0,0,0,0,1,0,0V415.22a7.95,7.95,0,0,1-7.95,7.95h0a7.95,7.95,0,0,1-7.95-7.95V292a0,0,0,0,1,0,0Z" transform="translate(316.91 -123.06) rotate(41.42)"/></g></g></svg>