<?xml version="1.0" encoding="utf-8"?>
<!-- Generator: Adobe Illustrator 24.1.3, SVG Export Plug-In . SVG Version: 6.00 Build 0)  -->
<svg version="1.1" id="Capa_1" xmlns="http://www.w3.org/2000/svg" xmlns:xlink="http://www.w3.org/1999/xlink" x="0px" y="0px"
	 viewBox="0 0 983.9 843.3" style="enable-background:new 0 0 983.9 843.3;" xml:space="preserve">
<style type="text/css">
	.st0{fill:url(#SVGID_1_);}
	.st1{fill:#171717;}
	.st2{fill:#FFFFFF;}
	.st3{fill:url(#SVGID_2_);}
	.st4{fill:url(#SVGID_3_);}
	.st5{fill:url(#SVGID_4_);}
	.st6{fill:url(#SVGID_5_);}
	.st7{fill:url(#SVGID_6_);}
	.st8{fill:url(#SVGID_7_);}
	.st9{fill:url(#SVGID_8_);}
</style>
<linearGradient id="SVGID_1_" gradientUnits="userSpaceOnUse" x1="607.2639" y1="330.5687" x2="906.2084" y2="330.5687">
	<stop  offset="0" style="stop-color:#8E8E8E"/>
	<stop  offset="0.2899" style="stop-color:#D6D6D6"/>
	<stop  offset="0.5151" style="stop-color:#A2A2A2"/>
	<stop  offset="0.7385" style="stop-color:#D9D9D9"/>
	<stop  offset="0.7915" style="stop-color:#D1D1D1"/>
	<stop  offset="0.8718" style="stop-color:#BCBCBC"/>
	<stop  offset="0.969" style="stop-color:#9A9A9A"/>
	<stop  offset="1" style="stop-color:#8E8E8E"/>
</linearGradient>
<path class="st0" d="M898,247.3c-4.5,0-8.2-3.5-8.2-7.7s3.7-7.7,8.2-7.7c4.5,0,8.2,3.5,8.2,7.7S902.5,247.3,898,247.3z M835.6,239.6
	c0-4.3-3.7-7.7-8.2-7.7s-8.2,3.5-8.2,7.7s3.7,7.7,8.2,7.7S835.6,243.9,835.6,239.6z M764.9,239.6c0-4.3-3.7-7.7-8.2-7.7
	c-4.5,0-8.2,3.5-8.2,7.7s3.7,7.7,8.2,7.7C761.3,247.3,764.9,243.9,764.9,239.6z M694.3,239.6c0-4.3-3.7-7.7-8.2-7.7
	c-4.5,0-8.2,3.5-8.2,7.7s3.7,7.7,8.2,7.7C690.6,247.3,694.3,243.9,694.3,239.6z M623.7,239.6c0-4.3-3.7-7.7-8.2-7.7
	s-8.2,3.5-8.2,7.7s3.7,7.7,8.2,7.7S623.7,243.9,623.7,239.6z M906.2,300.3c0-4.3-3.7-7.7-8.2-7.7c-4.5,0-8.2,3.5-8.2,7.7
	c0,4.3,3.7,7.7,8.2,7.7C902.5,308,906.2,304.5,906.2,300.3z M835.6,300.3c0-4.3-3.7-7.7-8.2-7.7s-8.2,3.5-8.2,7.7
	c0,4.3,3.7,7.7,8.2,7.7S835.6,304.5,835.6,300.3z M764.9,300.3c0-4.3-3.7-7.7-8.2-7.7c-4.5,0-8.2,3.5-8.2,7.7c0,4.3,3.7,7.7,8.2,7.7
	C761.3,308,764.9,304.5,764.9,300.3z M694.3,300.3c0-4.3-3.7-7.7-8.2-7.7c-4.5,0-8.2,3.5-8.2,7.7c0,4.3,3.7,7.7,8.2,7.7
	C690.6,308,694.3,304.5,694.3,300.3z M623.7,300.3c0-4.3-3.7-7.7-8.2-7.7s-8.2,3.5-8.2,7.7c0,4.3,3.7,7.7,8.2,7.7
	S623.7,304.5,623.7,300.3z M906.2,360.9c0-4.3-3.7-7.7-8.2-7.7c-4.5,0-8.2,3.5-8.2,7.7c0,4.3,3.7,7.7,8.2,7.7
	C902.5,368.6,906.2,365.2,906.2,360.9z M835.6,360.9c0-4.3-3.7-7.7-8.2-7.7s-8.2,3.5-8.2,7.7c0,4.3,3.7,7.7,8.2,7.7
	S835.6,365.2,835.6,360.9z M764.9,360.9c0-4.3-3.7-7.7-8.2-7.7c-4.5,0-8.2,3.5-8.2,7.7c0,4.3,3.7,7.7,8.2,7.7
	C761.3,368.6,764.9,365.2,764.9,360.9z M694.3,360.9c0-4.3-3.7-7.7-8.2-7.7c-4.5,0-8.2,3.5-8.2,7.7c0,4.3,3.7,7.7,8.2,7.7
	C690.6,368.6,694.3,365.2,694.3,360.9z M623.7,360.9c0-4.3-3.7-7.7-8.2-7.7s-8.2,3.5-8.2,7.7c0,4.3,3.7,7.7,8.2,7.7
	S623.7,365.2,623.7,360.9z M906.2,421.5c0-4.3-3.7-7.7-8.2-7.7c-4.5,0-8.2,3.5-8.2,7.7s3.7,7.7,8.2,7.7
	C902.5,429.2,906.2,425.8,906.2,421.5z M835.6,421.5c0-4.3-3.7-7.7-8.2-7.7s-8.2,3.5-8.2,7.7s3.7,7.7,8.2,7.7
	S835.6,425.8,835.6,421.5z M764.9,421.5c0-4.3-3.7-7.7-8.2-7.7c-4.5,0-8.2,3.5-8.2,7.7s3.7,7.7,8.2,7.7
	C761.3,429.2,764.9,425.8,764.9,421.5z M694.3,421.5c0-4.3-3.7-7.7-8.2-7.7c-4.5,0-8.2,3.5-8.2,7.7s3.7,7.7,8.2,7.7
	C690.6,429.2,694.3,425.8,694.3,421.5z M623.7,421.5c0-4.3-3.7-7.7-8.2-7.7s-8.2,3.5-8.2,7.7s3.7,7.7,8.2,7.7
	S623.7,425.8,623.7,421.5z"/>
<path class="st1" d="M167.5,426.6l1-2.6l-15.3-6.1l-1,2.6c-1.7,4.4-3.4,8.8-4.9,13.3l15.6,5.3C164.3,434.9,165.8,430.8,167.5,426.6z
	"/>
<path class="st1" d="M142.2,450.1c-11.1,40.6-12.7,83.2-4.7,124.5l16.2-3.1c-7.5-38.8-5.9-78.8,4.4-117L142.2,450.1z"/>
<path class="st2" d="M119.4,444.9c5-11.3,9.1-21.5,14.1-31.3c13-25.8,34.4-39.9,62.9-40.6c27.6-0.7,49.9,11.4,63.4,35.8
	c8.8,15.9,15,33.2,22.4,49.9c1.1,2.5,2,5,2.5,6c10.5-19.7,19.1-40.8,31.8-59c33.8-48.8,105-44,132.6,8.6
	c7.9,15.1,12.5,31.8,18.6,47.8c1.1,2.9,2.1,5.8,2.6,7.3c10-20,18.9-40.7,30.4-59.8c16.1-26.7,41.2-39.4,72.4-37.1
	s53.3,19.2,66.1,47.5c5.9,13,10.6,26.6,16.6,41.8c2-6.9,3.4-12.3,5.1-17.5c12.7-38.4,27.7-75.1,72.8-86.1h22.9
	c9,3.9,18.4,7,26.9,11.9c17.9,10.3,26.6,27.8,33.9,46.1c1.8,4.5,3.7,9.1,6,14.8c13.5,43,15.7,77.6,14.8,100.1
	c-1.3,35.6-29.7,64.3-65.4,65.7H772c-23.2,0.7-46.5,0.8-69.5-1.6c-11.9-1.2-23.2-8.3-35.3-12.9c-1.2,2.9-2.9,7.6-5,12
	c-10.6,21.9-28,36.4-52.1,38c-29.5,2-59.3,1.2-88.9-0.2c-20.2-0.9-37.2-10.7-50.3-27.5c-1.8,1.5-3.4,3-5,4.7
	c-14.2,17-33.3,24.5-54.5,24.9c-26.6,0.5-53.3-0.3-79.8-2.5c-24.9-2.1-42.9-16.4-54.5-38.5c-33.9,25.5-72.1,21.1-109.6,17.4
	c-31.1-3.1-40.3-8.7-56.5-31.3c-2.7-3.7-4.2-8.2-4.3-12.8C106.1,546.9,105.8,489.8,119.4,444.9z"/>
<linearGradient id="SVGID_2_" gradientUnits="userSpaceOnUse" x1="469.6975" y1="309.3661" x2="661.808" y2="309.3661" gradientTransform="matrix(1 0 0 -1 0 843)">
	<stop  offset="0" style="stop-color:#905E02"/>
	<stop  offset="1" style="stop-color:#F0DA66"/>
</linearGradient>
<path class="st3" d="M566.7,630.5c15.9-0.9,29.3-1.6,42.8-2.5c4.5-0.4,8.9-1,13.3-1.8c22-4,38.9-18,39-34.9
	c0.3-42.6-7.8-84.3-31.3-123.5c-10.9-18.2-28.8-29.5-55.8-30.9c-27.5-1.4-47.3,8.4-61.6,25.7c-30.2,36.8-40.3,77.7-43.3,120
	c-1.6,23.7,15.6,39.8,46.7,43.7C533.9,628.4,551.5,629.3,566.7,630.5z"/>
<linearGradient id="SVGID_3_" gradientUnits="userSpaceOnUse" x1="278.4398" y1="309.3311" x2="469.7715" y2="309.3311" gradientTransform="matrix(1 0 0 -1 0 843)">
	<stop  offset="0" style="stop-color:#905E02"/>
	<stop  offset="1" style="stop-color:#F0DA66"/>
</linearGradient>
<path class="st4" d="M377.2,630.7c16.9-1.3,32.6-1.8,48.1-3.8c29.2-3.8,45.7-20.3,44.4-42.9c-0.4-6.1-0.7-12.3-1.4-18.4
	c-3.7-33.8-11.3-66.9-30.2-98c-11.2-18.5-29.6-29.9-57-30.9c-25.7-0.9-44.9,8-58.4,24.2c-31.3,37.5-42,79.3-44.2,122.8
	c-1.2,22.5,15.6,38.6,45.1,42.3C341.6,628.2,360,629.3,377.2,630.7z"/>
<linearGradient id="SVGID_4_" gradientUnits="userSpaceOnUse" x1="661.8" y1="332.073" x2="817.113" y2="332.073" gradientTransform="matrix(1 0 0 -1 0 843)">
	<stop  offset="0" style="stop-color:#905E02"/>
	<stop  offset="1" style="stop-color:#F0DA66"/>
</linearGradient>
<path class="st5" d="M738,597.3c14.2-1.3,29.8-2.2,45.1-4.5c20.6-3.1,34.5-16.2,34-32.7c-1.2-37.4-9.2-73.8-28.5-108
	c-9.2-16.3-23.9-26.8-46.5-27.5c-23-0.8-38.7,8.9-49.7,25c-23.7,34.6-30.5,72.4-30.6,111.3c0,17,14,29.6,34.3,32.5
	C709.4,595.4,723,596,738,597.3z"/>
<linearGradient id="SVGID_5_" gradientUnits="userSpaceOnUse" x1="134.1847" y1="318.0521" x2="278.3653" y2="318.0521" gradientTransform="matrix(1 0 0 -1 0 843)">
	<stop  offset="0" style="stop-color:#905E02"/>
	<stop  offset="1" style="stop-color:#F0DA66"/>
</linearGradient>
<path class="st6" d="M278.3,560c-2.6-34.7-10-68.2-30.3-98.6c-10-15-24.4-23.3-44.2-22.6c-19.2,0.7-33,9.5-41.5,24.8
	c-19.5,34.8-26.8,72.2-28.1,110.7c-0.5,15.4,11.3,28.7,28,32.1c28.4,6,57.7,6.3,86.1,0.9c17.5-3.3,28.8-16,29.9-32
	C278.5,570.2,278.3,565.1,278.3,560z"/>
<path class="st1" d="M396.6,641.1c-22.6,0-44.6-0.9-65.5-2.7c-23.5-2-42.8-14.2-56.1-35.5c-33.7,21.7-70.3,18.1-105.9,14.6l-2.2-0.2
	c-32.3-3.2-43.7-9.5-61.3-34.1c-3.5-4.8-5.4-10.6-5.6-16.5c-0.7-22.2-0.8-78.6,13-123.8l0.1-0.4l0.2-0.4c1.6-3.6,3.1-7.1,4.6-10.5
	c3.2-7.3,6.2-14.3,9.6-21.1c14.2-28.2,38-43.6,68.8-44.4c30.3-0.8,55,13.2,69.5,39.3c6.3,11.4,11.3,23.5,16.2,35.2
	c1.1,2.6,2.2,5.3,3.3,8c1-1.9,1.9-3.8,2.8-5.7c6.8-13.8,13.8-28.2,22.8-41.1c17.2-24.7,44.9-38.4,74.3-36.6
	c29.6,1.8,55.7,19,69.9,45.9c5.7,10.8,9.7,22.4,13.6,33.7c0.8,2.4,1.7,4.8,2.5,7.3c0.7-1.4,1.3-2.8,2-4.2
	c6.6-13.9,13.5-28.3,21.6-41.8c17.4-29,44.6-42.9,78.7-40.3c32.8,2.5,57.6,20.3,71.8,51.5c3.5,7.6,6.5,15.4,9.6,23.5
	c13.5-40.5,29.9-77.6,77.2-89.2l0.8-0.2h25.2l1.3,0.6c2.7,1.2,5.6,2.3,8.3,3.4c6.6,2.5,13,5.4,19.2,8.8
	c20.3,11.7,29.7,31.6,36.8,49.4c1.2,3,2.4,6,3.8,9.4l2.4,6c14,44.5,15.9,80.2,15.1,102.4c-1.4,39.2-32.7,70.6-71.9,72.2h-0.9
	c-19.4,0.6-44.9,1-70.5-1.6c-9.3-1-17.9-4.9-26.2-8.7c-1.5-0.7-3.1-1.4-4.6-2.1c-0.8,1.9-1.7,4-2.7,6C656,623,636,637.5,610.7,639.1
	c-31.4,2.1-63,1.1-89.7-0.2c-19.3-0.9-36.6-9.3-50.5-24.5c-14.5,16.9-34.9,26.1-58.9,26.5C406.5,641.1,401.5,641.1,396.6,641.1z
	 M279.4,583l3.7,7c11.2,21.4,27.8,33.1,49.1,34.9c26.3,2.2,52.7,3,79.2,2.5c20.7-0.4,37.3-7.9,49.5-22.5c1.2-1.4,2.5-2.7,4-3.8
	c0.5-0.5,1.1-0.9,1.7-1.5l5.4-5l4.5,5.8c12.3,15.7,27.5,24.1,45.3,24.9c26.3,1.2,57.4,2.2,88.1,0.2c25.5-1.7,39.3-19.5,46.5-34.2
	c1.4-2.9,2.7-6.1,3.7-8.6c0.4-1.1,0.8-2.1,1.2-3l2.5-6.1l6.2,2.3c4,1.5,7.8,3.3,11.6,5c7.7,3.5,14.9,6.8,22,7.5
	c24.7,2.5,49.7,2.2,68.6,1.5h0.8c32-1.4,57.6-27.1,58.9-59.2c0.8-21.1-1.1-55.1-14.4-97.6l-2.1-5.1c-1.4-3.4-2.6-6.4-3.8-9.4
	c-8.1-20-16.1-34.1-31-42.7c-5.6-3.1-11.5-5.7-17.5-8c-2.4-1-4.9-2-7.4-3H735c-40.6,10.3-54.5,43-67.2,81.5
	c-1.1,3.4-2.1,6.8-3.2,10.8c-0.6,2-1.2,4.2-1.8,6.5l-5.5,19l-7.3-18.4c-1.9-4.9-3.7-9.6-5.5-14.2c-3.6-9.5-7.1-18.6-11-27.2
	c-12.2-26.8-32.5-41.5-60.5-43.6c-28.6-2.1-51.4,9.5-66,33.8c-7.8,13-14.5,27-21,40.6c-2.9,6.1-6,12.5-9.1,18.7l-7.1,14.2l-5.3-14.9
	l-0.6-1.6c-0.5-1.5-1.3-3.6-2-5.6c-1.9-5.1-3.7-10.3-5.5-15.3c-3.9-11.3-7.6-21.9-12.8-31.8c-11.9-22.7-33.9-37.2-58.7-38.7
	c-24.6-1.5-47.9,10-62.3,30.8c-8.4,12.1-15.2,26-21.8,39.4c-3.1,6.3-6.2,12.7-9.6,19l-6.8,12.8l-5.5-13.4l-0.5-1.1
	c-0.5-1.3-1.2-3-2-4.7c-2.3-5.2-4.5-10.5-6.6-15.6c-4.7-11.4-9.6-23.1-15.5-33.8c-12.1-21.8-31.9-33-57.3-32.3
	c-25.9,0.7-45.1,13.1-57.1,36.9c-3.3,6.5-6.2,13.2-9.3,20.4c-1.4,3.3-2.9,6.7-4.5,10.2c-13.5,44.5-12.9,102.3-12.4,119.1
	c0.1,3.2,1.2,6.4,3.1,9c15.4,21.4,23.1,25.7,51.7,28.5l2.2,0.2c36.8,3.6,71.5,7.1,102.6-16.3L279.4,583z"/>
<g>
	<path class="st1" d="M836,459.6c-5.2,0-9.5-4.3-9.5-9.5s4.3-9.5,9.5-9.5c26.1,0,44.7-8.2,56.7-25c37.9-52.8-1.1-170-1.5-171.2
		c-1.7-5,1-10.4,6-12c5-1.7,10.4,1,12,6c1.8,5.2,42.4,127.8-1.1,188.4C892.5,448.5,868.2,459.6,836,459.6z"/>
</g>
<g>
	<path class="st1" d="M107.3,466.4c-8.6,0-22.7-2.3-36.4-14.4c-34.4-30.5-45.3-102.8-32.4-214.8c0.6-5.2,5.3-8.9,10.5-8.3
		c5.2,0.6,8.9,5.3,8.3,10.5c-6.8,59.2-6.8,107.1,0.1,142.4c5.1,26,13.7,44.7,25.6,55.6c13.8,12.6,27.5,9.9,28.1,9.8H111l4.4,18.5
		C115.2,465.7,112.1,466.4,107.3,466.4z"/>
</g>
<linearGradient id="SVGID_6_" gradientUnits="userSpaceOnUse" x1="351.8" y1="616.1" x2="567.6" y2="616.1" gradientTransform="matrix(1 0 0 -1 0 843)">
	<stop  offset="0" style="stop-color:#8E8E8E"/>
	<stop  offset="0.2899" style="stop-color:#D6D6D6"/>
	<stop  offset="0.5151" style="stop-color:#A2A2A2"/>
	<stop  offset="0.7385" style="stop-color:#D9D9D9"/>
	<stop  offset="0.7915" style="stop-color:#D1D1D1"/>
	<stop  offset="0.8718" style="stop-color:#BCBCBC"/>
	<stop  offset="0.969" style="stop-color:#9A9A9A"/>
	<stop  offset="1" style="stop-color:#8E8E8E"/>
</linearGradient>
<polygon class="st7" points="515.8,111.1 567.6,156.7 403.5,342.7 351.8,297 "/>
<linearGradient id="SVGID_7_" gradientUnits="userSpaceOnUse" x1="524.5" y1="730.15" x2="587.1" y2="730.15" gradientTransform="matrix(1 0 0 -1 0 843)">
	<stop  offset="0" style="stop-color:#8E8E8E"/>
	<stop  offset="0.2899" style="stop-color:#D6D6D6"/>
	<stop  offset="0.5151" style="stop-color:#A2A2A2"/>
	<stop  offset="0.7385" style="stop-color:#D9D9D9"/>
	<stop  offset="0.7915" style="stop-color:#D1D1D1"/>
	<stop  offset="0.8718" style="stop-color:#BCBCBC"/>
	<stop  offset="0.969" style="stop-color:#9A9A9A"/>
	<stop  offset="1" style="stop-color:#8E8E8E"/>
</linearGradient>
<polygon class="st8" points="558.9,80.9 587.1,105.7 552.6,144.8 524.5,120 "/>
<linearGradient id="SVGID_8_" gradientUnits="userSpaceOnUse" x1="539.0644" y1="771.45" x2="640.3" y2="771.45" gradientTransform="matrix(1 0 0 -1 0 843)">
	<stop  offset="0" style="stop-color:#8E8E8E"/>
	<stop  offset="0.2899" style="stop-color:#D6D6D6"/>
	<stop  offset="0.5151" style="stop-color:#A2A2A2"/>
	<stop  offset="0.7385" style="stop-color:#D9D9D9"/>
	<stop  offset="0.7915" style="stop-color:#D1D1D1"/>
	<stop  offset="0.8718" style="stop-color:#BCBCBC"/>
	<stop  offset="0.969" style="stop-color:#9A9A9A"/>
	<stop  offset="1" style="stop-color:#8E8E8E"/>
</linearGradient>
<path class="st9" d="M547,23.2l93.3,82.3l0,0l-12.7,14.4l0,0L543,45.3c-4.8-4.3-5.3-11.6-1-16.4l0,0L547,23.2L547,23.2z"/>
<g>
	<path class="st1" d="M403.5,352.2c-2.3,0-4.5-0.8-6.3-2.4l-77.8-68.6c-3.9-3.5-4.3-9.5-0.8-13.4l164.1-186c1.7-1.9,4-3,6.5-3.2
		s5,0.7,6.9,2.4l77.8,68.6c3.9,3.5,4.3,9.5,0.8,13.4L410.6,349c-1.7,1.9-4,3-6.5,3.2C403.9,352.2,403.7,352.2,403.5,352.2z
		 M339.2,273.2l63.5,56l151.5-171.7l-63.5-56L339.2,273.2z"/>
</g>
<g>
	<path class="st1" d="M552.6,150.8c-1.4,0-2.8-0.5-4-1.5l-49.2-43.4c-1.2-1.1-1.9-2.5-2-4.1s0.4-3.2,1.5-4.3l34.5-39.1
		c2.2-2.5,6-2.7,8.5-0.5l49.2,43.4c2.5,2.2,2.7,6,0.5,8.5l-34.5,39.1C555.9,150.1,554.3,150.8,552.6,150.8z M511.9,100.9l40.2,35.4
		l26.5-30.1l-40.2-35.4L511.9,100.9z"/>
</g>
<g>
	<path class="st1" d="M616.9,141.6c-2.2,0-4.5-0.8-6.3-2.4l-108.8-96c-3.9-3.5-4.3-9.5-0.8-13.4l23.4-26.6c1.7-1.9,4-3,6.5-3.2
		s5,0.7,6.9,2.4l108.8,96c1.9,1.7,3,4,3.2,6.5s-0.7,5-2.4,6.9L624,138.4C622.2,140.5,619.6,141.6,616.9,141.6z M521.5,35.2
		l94.6,83.4l10.9-12.3l-94.6-83.4L521.5,35.2z"/>
</g>
<path class="st1" d="M358.6,303.1l11.9,10.5l0,0L289,406.1c-2.9,3.3-7.9,3.6-11.2,0.7l0,0l0,0c-3.3-2.9-3.6-7.9-0.7-11.2l0,0
	L358.6,303.1L358.6,303.1L358.6,303.1z"/>
</svg>
