<svg xmlns="http://www.w3.org/2000/svg" viewBox="0 0 983.93 846.96"><defs><style>.cls-1{fill:#ffc933;}.cls-2{opacity:0.1;}.cls-3{fill:#61b9be;}.cls-4{fill:#fff;}.cls-5{fill:#88cace;}.cls-6{opacity:0.3;}.cls-7{fill:#1f3d59;}.cls-8{fill:none;stroke:#1f3d59;stroke-linecap:round;stroke-miterlimit:10;stroke-width:18px;}</style></defs><g id="Capa_2" data-name="Capa 2"><g id="Capa_1-2" data-name="Capa 1"><polygon class="cls-1" points="328 99.86 386.38 81.46 394.14 115.81 344.24 133.87 328 99.86"/><polygon class="cls-1" points="299.28 84.3 287.07 41.52 380.55 11.82 395.04 44.11 299.28 84.3"/><g class="cls-2"><path class="cls-3" d="M886.68,342.62,41.87,593C14.75,601-3.71,632.74.63,663.85h0C5,695,30.48,713.66,57.59,705.62L902.4,455.26c27.12-8,45.58-39.76,41.24-70.87h0C939.3,353.28,913.79,334.58,886.68,342.62Z"/><path class="cls-3" d="M932.09,127.65,150.48,359.28c-25.09,7.43-42.73,32.75-39.41,56.55h0c3.32,23.8,26.35,37.06,51.44,29.62L944.12,213.83c25.08-7.44,42.73-32.76,39.41-56.55h0C980.2,133.48,957.17,120.21,932.09,127.65Z"/><path class="cls-3" d="M111.64,551.82,703.9,376.3c15.5-4.59,26.05-22.72,23.57-40.5s-17.06-28.46-32.55-23.87L102.66,487.45c-15.5,4.59-26,22.72-23.57,40.5S96.15,556.41,111.64,551.82Z"/><path class="cls-3" d="M795.26,507.5l-625,185.22c-18.08,5.36-30.39,26.52-27.49,47.25s19.89,33.21,38,27.85l625-185.23c18.08-5.36,30.39-26.51,27.5-47.25S813.34,502.14,795.26,507.5Z"/><path class="cls-3" d="M153,551.67,773.31,367.84c7.75-2.3,13-11.37,11.78-20.25s-8.53-14.23-16.27-11.94L148.5,519.48c-7.75,2.3-13,11.37-11.78,20.25S145.24,554,153,551.67Z"/><path class="cls-3" d="M257.68,612.81c-7.75,2.3-13,11.36-11.78,20.25s8.52,14.23,16.27,11.93l435.66-129.1c7.74-2.3,13-11.36,11.78-20.25s-8.53-14.23-16.28-11.94Z"/><path class="cls-3" d="M917.57,563.88,72.76,814.24c-7.75,2.3-13,11.36-11.78,20.25s8.52,14.23,16.27,11.94L922.06,596.07c7.75-2.3,13-11.36,11.78-20.25S925.31,561.59,917.57,563.88Z"/></g><path class="cls-4" d="M658.54,333.53C651.15,283,606.34,244.3,554.4,244.3c-20.57,0-39.79,5.48-55.59,15.86a83.71,83.71,0,0,1-91.69,0c-15.79-10.38-35-15.86-55.57-15.86A105.43,105.43,0,0,0,246.23,349.62v26a347,347,0,0,0,55.2,188A366.06,366.06,0,0,1,348.8,673.13L359.52,716a14.14,14.14,0,0,0,27.71-1.34l22.08-147.26a44.16,44.16,0,0,1,87.33,0l22.08,147.26A14.13,14.13,0,0,0,546.4,716l10.73-42.86a366.81,366.81,0,0,1,47.38-109.56A349.94,349.94,0,0,0,656.72,421l10.42-37.83Z"/><path class="cls-5" d="M636,452.48a308.53,308.53,0,0,1-47,126.84,324.11,324.11,0,0,0-42.66,97.44l-9.67,38.13a12.75,12.75,0,0,1-24.93-1.19l-19.89-131a39.84,39.84,0,0,0-78.65,0l-19.89,131a12.77,12.77,0,0,1-24.95,1.19l-9.65-38.13a323.77,323.77,0,0,0-42.67-97.44,305.94,305.94,0,0,1-49.72-167.21V389c0-51.66,42.55-93.68,94.86-93.68,18.52,0,35.83,4.87,50.05,14.1a76.13,76.13,0,0,0,82.58,0c14.23-9.23,31.54-14.1,50.06-14.1,46.78,0,87.14,34.42,93.79,79.37l.38,5.7"/><g class="cls-6"><path class="cls-4" d="M644.7,590.91A11.31,11.31,0,1,1,656,602.21,11.31,11.31,0,0,1,644.7,590.91Z"/><path class="cls-4" d="M599.41,590.94a11.31,11.31,0,1,1,11.32,11.3A11.31,11.31,0,0,1,599.41,590.94Z"/><path class="cls-4" d="M554.12,591a11.31,11.31,0,1,1,11.32,11.3A11.31,11.31,0,0,1,554.12,591Z"/><path class="cls-4" d="M599.38,545.72A11.31,11.31,0,1,1,610.7,557,11.32,11.32,0,0,1,599.38,545.72Z"/><path class="cls-4" d="M554.09,545.74A11.31,11.31,0,1,1,565.41,557,11.32,11.32,0,0,1,554.09,545.74Z"/><path class="cls-4" d="M599.35,500.49a11.31,11.31,0,1,1,11.32,11.3A11.32,11.32,0,0,1,599.35,500.49Z"/><path class="cls-4" d="M554.06,500.52a11.31,11.31,0,1,1,11.32,11.3A11.32,11.32,0,0,1,554.06,500.52Z"/><path class="cls-4" d="M599.32,455.26a11.31,11.31,0,1,1,11.32,11.3A11.31,11.31,0,0,1,599.32,455.26Z"/><circle class="cls-4" cx="565.34" cy="455.28" r="11.31"/><path class="cls-4" d="M599.29,410a11.31,11.31,0,1,1,11.32,11.3A11.31,11.31,0,0,1,599.29,410Z"/><path class="cls-4" d="M554,410.06a11.31,11.31,0,1,1,11.32,11.3A11.31,11.31,0,0,1,554,410.06Z"/><path class="cls-4" d="M656,534.37a11.31,11.31,0,1,1-11.3,11.32A11.32,11.32,0,0,1,656,534.37Z"/><circle class="cls-4" cx="655.95" cy="500.39" r="11.31"/><circle class="cls-4" cx="655.92" cy="455.09" r="11.31"/><circle class="cls-4" cx="655.89" cy="409.8" r="11.31"/><path class="cls-4" d="M599.26,364.81a11.31,11.31,0,1,1,11.32,11.29A11.32,11.32,0,0,1,599.26,364.81Z"/><path class="cls-4" d="M554,364.84a11.31,11.31,0,1,1,11.32,11.29A11.32,11.32,0,0,1,554,364.84Z"/><path class="cls-4" d="M599.23,319.58a11.31,11.31,0,1,1,11.32,11.3A11.32,11.32,0,0,1,599.23,319.58Z"/><path class="cls-4" d="M553.94,319.61a11.31,11.31,0,1,1,11.32,11.3A11.32,11.32,0,0,1,553.94,319.61Z"/><path class="cls-4" d="M655.85,353.33a11.31,11.31,0,1,1-11.3,11.32A11.32,11.32,0,0,1,655.85,353.33Z"/><path class="cls-4" d="M655.82,308a11.31,11.31,0,1,1-11.3,11.32A11.32,11.32,0,0,1,655.82,308Z"/></g><path class="cls-7" d="M285.22,376.35v-3.3H265.53v3.3c0,5.64.15,11.28.43,16.89l19.67-1C285.37,387,285.22,381.67,285.22,376.35Z"/><path class="cls-7" d="M267.64,413.55a329.18,329.18,0,0,0,50,140.14L334.18,543a309.61,309.61,0,0,1-47-131.73Z"/><path class="cls-7" d="M452.58,294.29a102.71,102.71,0,0,1-57.69-17.59l-11,16.32a123.08,123.08,0,0,0,137.42,0l-11-16.32A102.71,102.71,0,0,1,452.58,294.29Z"/><path class="cls-7" d="M670,304.14c-10.41-33.92-64.29-78.76-116-78.76-24.42,0-47.38,6.6-66.4,19.09a64.2,64.2,0,0,1-70.05,0c-19-12.49-42-19.09-66.4-19.09a125.15,125.15,0,0,0-125,125v26A366.58,366.58,0,0,0,284.5,575a346.91,346.91,0,0,1,44.83,103.67l10.72,42.87a33.82,33.82,0,0,0,66.26-3.18l22.08-147.26a24.46,24.46,0,0,1,48.37,0l22.09,147.26a33.83,33.83,0,0,0,66.27,3.18l10.72-42.87A347,347,0,0,1,620.69,575a370.36,370.36,0,0,0,48.45-114.36c0,.35,0,.68,0,1C669.17,461.66,692.12,376.13,670,304.14Zm-65.89,260.2A366.81,366.81,0,0,0,556.74,673.9L546,716.76a14.13,14.13,0,0,1-27.68-1.34L496.25,568.16a44.16,44.16,0,0,0-87.33,0L386.84,715.42a14.14,14.14,0,0,1-27.71,1.34L348.41,673.9A366.06,366.06,0,0,0,301,564.34a347,347,0,0,1-55.2-188v-26A105.43,105.43,0,0,1,351.16,245.07c20.57,0,39.78,5.48,55.58,15.86a83.69,83.69,0,0,0,91.68,0c15.8-10.38,35-15.86,55.59-15.86,51.94,0,96.75,38.7,104.14,89.23,0,0,3.67,24.25-1.82,87.44A349.79,349.79,0,0,1,604.12,564.34Z"/><path class="cls-8" d="M382.27,626.88s-69.58-54.49-43.59-167.66S407.42,217,370.53,126.41"/><path class="cls-7" d="M302.42,88.23a18.32,18.32,0,0,1-17.3-12.42l-8-23.71a18.28,18.28,0,0,1,11.44-23.18L371,1a18.3,18.3,0,0,1,23.18,11.44l8,23.71A18.28,18.28,0,0,1,390.76,59.3l-82.46,28A18.09,18.09,0,0,1,302.42,88.23ZM376.86,18l-.09,0L294.31,46a.25.25,0,0,0-.16.14.27.27,0,0,0,0,.21l8,23.71a.25.25,0,0,0,.14.16.3.3,0,0,0,.22,0l82.45-28a.22.22,0,0,0,.16-.14.23.23,0,0,0,0-.21l-8-23.71A.25.25,0,0,0,377,18Zm11,32.78h0Z"/><path class="cls-7" d="M291.43,124.63a18.31,18.31,0,0,1-17.33-12.41l-3.06-9A18.29,18.29,0,0,1,282.49,80L411.78,36.19A18.3,18.3,0,0,1,435,47.63l3,9a18.3,18.3,0,0,1-11.44,23.18l-129.3,43.83A18.12,18.12,0,0,1,291.43,124.63ZM417.65,53.22h-.09L288.26,97.06a.3.3,0,0,0-.16.15.26.26,0,0,0,0,.21l3.06,9a.26.26,0,0,0,.35.17L420.8,62.78l2.89,8.53-2.89-8.53a.29.29,0,0,0,.18-.35l-3.06-9A.28.28,0,0,0,417.65,53.22Z"/><path class="cls-7" d="M345.91,142a18.31,18.31,0,0,1-17.33-12.41l-6.22-18.34a9,9,0,0,1,17.05-5.78l6.22,18.34a.28.28,0,0,0,.35.18l40.38-13.69a.28.28,0,0,0,.18-.36l-5.79-17.08a9,9,0,1,1,17-5.78l5.79,17.08a18.3,18.3,0,0,1-11.44,23.19l-40.38,13.68A18.12,18.12,0,0,1,345.91,142Z"/></g></g></svg>