<svg xmlns="http://www.w3.org/2000/svg" viewBox="0 0 983.93 721.38"><defs><style>.cls-1{fill:#1f3d59;}.cls-2{fill:#fbb03b;}.cls-3{opacity:0.1;}.cls-4{fill:#61b9be;}.cls-5{fill:#fff;}.cls-6{fill:#88cace;}.cls-7{opacity:0.3;}.cls-8{fill:#ffc933;}.cls-9{fill:none;stroke:#1f3d59;stroke-miterlimit:10;stroke-width:13.4px;}</style></defs><g id="Capa_2" data-name="Capa 2"><g id="Capa_1-2" data-name="Capa 1"><path class="cls-1" d="M167.46,304.67l1-2.56L153.17,296l-1,2.57q-2.62,6.58-4.91,13.27l15.61,5.34C164.27,313,165.8,308.8,167.46,304.67Z"/><path class="cls-1" d="M142.22,328.13a275.72,275.72,0,0,0-4.71,124.52l16.19-3.14a259.28,259.28,0,0,1,4.43-117Z"/><path class="cls-2" d="M79.2,430.32h0c-2.42,3.64-8.5,5.12-13.57,3.3L32.88,421.89c-5.07-1.82-7.22-6.24-4.79-9.88h0c2.42-3.64,8.5-5.12,13.56-3.31l32.76,11.74C79.48,422.25,81.62,426.68,79.2,430.32Z"/><path class="cls-2" d="M94.81,473.2h0c1.35,3.81-.63,8.93-4.42,11.42l-24.5,16.13c-3.79,2.49-8,1.42-9.31-2.39h0c-1.35-3.82.63-8.93,4.42-11.43l24.5-16.12C89.29,468.31,93.46,469.38,94.81,473.2Z"/><path class="cls-2" d="M78,446.75h0c2.54,3.66.54,8.07-4.47,9.84l-32.39,11.5c-5,1.78-11.13.26-13.67-3.4h0C25,461,27,456.62,32,454.84l32.39-11.5C69.38,441.56,75.5,443.09,78,446.75Z"/><g class="cls-3"><path class="cls-4" d="M886.68,217,41.87,467.4c-27.12,8-45.58,39.76-41.24,70.87h0c4.35,31.1,29.85,49.81,57,41.77L902.4,329.68c27.12-8,45.58-39.77,41.24-70.87h0C939.3,227.7,913.79,209,886.68,217Z"/><path class="cls-4" d="M932.09,2.07,150.48,233.69c-25.09,7.44-42.73,32.76-39.41,56.56h0c3.32,23.79,26.35,37.06,51.44,29.62L944.12,88.24c25.08-7.43,42.73-32.75,39.41-56.55h0C980.2,7.9,957.17-5.37,932.09,2.07Z"/><path class="cls-4" d="M111.64,426.24,703.9,250.72c15.5-4.59,26.05-22.72,23.57-40.5s-17.06-28.46-32.55-23.87L102.66,361.87c-15.5,4.59-26,22.72-23.57,40.5S96.15,430.83,111.64,426.24Z"/><path class="cls-4" d="M795.26,381.91l-625,185.23c-18.08,5.36-30.39,26.51-27.49,47.25s19.89,33.21,38,27.85L805.74,457c18.08-5.36,30.39-26.51,27.5-47.25S813.34,376.56,795.26,381.91Z"/><path class="cls-4" d="M153,426.08,773.31,242.25c7.75-2.29,13-11.36,11.78-20.24s-8.53-14.24-16.27-11.94L148.5,393.9c-7.75,2.3-13,11.36-11.78,20.25S145.24,428.38,153,426.08Z"/><path class="cls-4" d="M257.68,487.23c-7.75,2.29-13,11.36-11.78,20.25s8.52,14.23,16.27,11.93l435.66-129.1c7.74-2.3,13-11.36,11.78-20.25s-8.53-14.23-16.28-11.94Z"/><path class="cls-4" d="M917.57,438.3,72.76,688.66C65,691,59.74,700,61,708.91s8.52,14.23,16.27,11.93L922.06,470.49c7.75-2.3,13-11.37,11.78-20.25S925.31,436,917.57,438.3Z"/></g><path class="cls-5" d="M119.45,322.91c5-11.26,9.13-21.48,14.06-31.28,13-25.77,34.36-39.9,62.93-40.65,27.64-.72,49.89,11.42,63.4,35.81,8.8,15.9,15,33.23,22.36,49.92,1.08,2.46,2.05,5,2.5,6.05,10.45-19.71,19.1-40.77,31.78-59,33.84-48.78,105-44,132.58,8.59,7.9,15.06,12.53,31.84,18.64,47.84,1.1,2.87,2.07,5.78,2.62,7.3,10-20,18.85-40.69,30.37-59.82,16.1-26.74,41.16-39.43,72.36-37.07s53.27,19.2,66.14,47.55c5.92,13,10.64,26.58,16.64,41.76,2-6.88,3.38-12.26,5.12-17.52,12.74-38.44,27.65-75.09,72.83-86.12h22.91c9,3.91,18.44,7,26.89,11.89,17.87,10.28,26.56,27.8,33.94,46.07,1.83,4.54,3.69,9.07,6,14.82,13.5,43,15.65,77.63,14.84,100.13A68.16,68.16,0,0,1,773,474.84l-.82,0c-23.17.75-46.54.78-69.55-1.56-11.91-1.22-23.22-8.28-35.3-12.89-1.21,2.93-2.87,7.57-5,12-10.64,21.86-28.05,36.43-52.09,38-29.51,2-59.32,1.21-88.91-.17-20.19-1-37.17-10.69-50.31-27.53a58,58,0,0,0-5,4.67c-14.21,17-33.34,24.52-54.55,24.88a782,782,0,0,1-79.84-2.52c-24.89-2.12-42.92-16.44-54.53-38.52-33.91,25.46-72.13,21.11-109.55,17.42-31.1-3.07-40.31-8.75-56.49-31.32a23.09,23.09,0,0,1-4.34-12.77C106.11,424.91,105.77,367.78,119.45,322.91Z"/><path class="cls-6" d="M566.7,508.57c15.86-.91,29.35-1.59,42.81-2.51a116.21,116.21,0,0,0,13.3-1.84c22-4,38.91-18,39-34.93.25-42.64-7.83-84.25-31.32-123.52-10.9-18.21-28.77-29.56-55.79-30.89-27.54-1.37-47.34,8.35-61.61,25.69-30.22,36.75-40.32,77.65-43.27,120-1.65,23.67,15.59,39.8,46.73,43.69C533.86,506.39,551.45,507.29,566.7,508.57Z"/><path class="cls-6" d="M377.17,508.76c16.89-1.3,32.65-1.82,48.06-3.84,29.16-3.83,45.74-20.31,44.42-42.88-.36-6.13-.71-12.27-1.37-18.38-3.69-33.81-11.34-66.94-30.18-98-11.21-18.48-29.57-29.88-57.05-30.89-25.68-.94-44.85,8-58.39,24.18-31.3,37.46-42,79.25-44.22,122.75C277.27,484.26,294,500.32,323.52,504,341.62,506.26,360,507.28,377.17,508.76Z"/><path class="cls-6" d="M738,475.35c14.17-1.35,29.8-2.16,45.11-4.46,20.56-3.1,34.47-16.21,34-32.71-1.15-37.43-9.18-73.79-28.5-108-9.22-16.34-23.93-26.81-46.48-27.55-23-.75-38.69,8.91-49.72,25-23.67,34.59-30.51,72.41-30.59,111.3,0,17,14,29.58,34.31,32.53C709.44,473.44,723,474,738,475.35Z"/><path class="cls-6" d="M278.27,438c-2.64-34.74-10-68.23-30.26-98.6-10-14.95-24.43-23.34-44.18-22.58-19.16.74-33,9.53-41.5,24.77-19.49,34.82-26.81,72.22-28.15,110.67-.54,15.39,11.31,28.73,28,32.13a220.86,220.86,0,0,0,86.15.94c17.53-3.36,28.83-16,29.89-32C278.55,448.25,278.27,443.13,278.27,438Z"/><path class="cls-1" d="M569.39,467a105.92,105.92,0,0,1-59.47-18.13L498.57,465.7a126.89,126.89,0,0,0,141.65,0l-11.35-16.83A105.89,105.89,0,0,1,569.39,467Z"/><path class="cls-1" d="M396.57,519.16c-22.63,0-44.61-.9-65.53-2.68-23.54-2-42.81-14.23-56.14-35.49-33.68,21.74-70.33,18.11-105.85,14.6l-2.17-.22c-32.27-3.18-43.73-9.56-61.33-34.11a29.76,29.76,0,0,1-5.61-16.51c-.67-22.17-.75-78.6,13-123.82l.13-.4.17-.38c1.6-3.59,3.11-7.07,4.58-10.47,3.18-7.33,6.18-14.26,9.61-21.09,14.21-28.22,38-43.57,68.8-44.38,30.33-.8,55,13.16,69.5,39.3,6.3,11.37,11.31,23.47,16.17,35.17,1.09,2.65,2.21,5.34,3.34,8,1-1.91,1.88-3.81,2.81-5.7,6.8-13.85,13.83-28.17,22.83-41.14,17.17-24.73,44.94-38.42,74.3-36.61,29.59,1.82,55.71,19,69.85,45.93,5.68,10.82,9.72,22.44,13.63,33.67.83,2.4,1.68,4.84,2.54,7.28q1-2.11,2-4.2c6.65-13.9,13.51-28.28,21.65-41.78,17.43-29,44.63-42.91,78.67-40.34,32.79,2.48,57.62,20.29,71.8,51.51,3.47,7.63,6.52,15.4,9.62,23.51,13.52-40.52,29.87-77.62,77.19-89.17l.79-.19H758.1l1.29.56c2.72,1.18,5.57,2.33,8.33,3.43a150.89,150.89,0,0,1,19.23,8.8c20.31,11.68,29.67,31.63,36.85,49.41,1.22,3,2.44,6,3.82,9.38L830,307c14,44.46,15.93,80.23,15.14,102.41a74.92,74.92,0,0,1-71.86,72.2l-.87,0c-19.39.63-44.91,1-70.45-1.6-9.28-.94-17.9-4.86-26.23-8.64q-2.29-1-4.64-2.09c-.79,1.92-1.67,4-2.67,6C656,501,636,515.48,610.71,517.16c-31.39,2.08-63,1.08-89.68-.17-19.31-.9-36.65-9.32-50.53-24.44C456,509.46,435.63,518.61,411.58,519Q404,519.15,396.57,519.16ZM279.39,461l3.7,7c11.23,21.36,27.75,33.11,49.1,34.93a781.81,781.81,0,0,0,79.16,2.5c20.68-.35,37.32-7.91,49.47-22.45a31.44,31.44,0,0,1,3.95-3.83c.54-.46,1.1-.95,1.69-1.49l5.4-5,4.52,5.79c12.26,15.7,27.49,24.09,45.29,24.92,26.35,1.23,57.43,2.22,88.14.18,25.45-1.68,39.31-19.54,46.45-34.23,1.41-2.9,2.65-6.06,3.65-8.59.44-1.12.84-2.13,1.2-3l2.52-6.08,6.15,2.35c4,1.52,7.84,3.27,11.57,5,7.68,3.49,14.93,6.79,22,7.51,24.74,2.52,49.68,2.14,68.64,1.54l.77,0a61.62,61.62,0,0,0,58.86-59.16c.76-21.07-1.14-55.09-14.44-97.6l-2.1-5.14c-1.38-3.38-2.62-6.41-3.84-9.43-8.08-20-16.09-34.14-31-42.73a137,137,0,0,0-17.53-8c-2.42-1-4.9-2-7.37-3H734.61c-40.59,10.27-54.47,43-67.23,81.47-1.11,3.35-2.08,6.8-3.2,10.79-.57,2-1.17,4.17-1.85,6.49l-5.52,19-7.28-18.42c-1.94-4.91-3.74-9.64-5.49-14.22-3.64-9.55-7.09-18.58-11-27.23-12.19-26.82-32.54-41.49-60.49-43.6-28.6-2.14-51.43,9.53-66,33.81-7.8,12.95-14.52,27-21,40.64-2.94,6.15-6,12.51-9.1,18.72l-7.1,14.16-5.33-14.91c-.15-.44-.34-1-.56-1.59-.53-1.52-1.25-3.59-2-5.57-1.94-5.08-3.74-10.26-5.49-15.28-3.92-11.26-7.62-21.9-12.83-31.83-11.92-22.7-33.86-37.17-58.69-38.7-24.59-1.51-47.89,10-62.33,30.82-8.42,12.13-15.22,26-21.8,39.38-3.07,6.24-6.24,12.7-9.56,19l-6.75,12.75-5.49-13.34-.47-1.16c-.51-1.27-1.21-3-2-4.74-2.27-5.17-4.47-10.46-6.59-15.57-4.7-11.35-9.57-23.09-15.5-33.79-12.08-21.82-31.88-33-57.29-32.33-25.87.69-45.07,13.11-57.06,36.93-3.26,6.48-6.18,13.23-9.28,20.38-1.44,3.32-2.91,6.72-4.47,10.22C112.37,369.74,113,427.62,113.48,444.33a16.28,16.28,0,0,0,3.08,9c15.37,21.44,23.09,25.7,51.65,28.52l2.18.21c36.76,3.64,71.49,7.08,102.64-16.31Z"/><g class="cls-7"><path class="cls-5" d="M771.92,448.6a8.36,8.36,0,1,1,8.36,8.36A8.37,8.37,0,0,1,771.92,448.6Z"/><path class="cls-5" d="M738.45,448.63a8.36,8.36,0,1,1,8.36,8.35A8.34,8.34,0,0,1,738.45,448.63Z"/><path class="cls-5" d="M771.9,415.18a8.36,8.36,0,1,1,8.36,8.35A8.35,8.35,0,0,1,771.9,415.18Z"/><path class="cls-5" d="M738.43,415.2a8.36,8.36,0,1,1,8.36,8.35A8.35,8.35,0,0,1,738.43,415.2Z"/><path class="cls-5" d="M771.88,381.76a8.36,8.36,0,1,1,8.36,8.35A8.36,8.36,0,0,1,771.88,381.76Z"/><path class="cls-5" d="M738.4,381.78a8.36,8.36,0,1,1,8.37,8.35A8.35,8.35,0,0,1,738.4,381.78Z"/><path class="cls-5" d="M771.85,348.33a8.36,8.36,0,1,1,8.36,8.35A8.36,8.36,0,0,1,771.85,348.33Z"/><circle class="cls-5" cx="746.74" cy="348.35" r="8.36"/><path class="cls-5" d="M771.83,314.91a8.36,8.36,0,1,1,8.36,8.35A8.35,8.35,0,0,1,771.83,314.91Z"/><path class="cls-5" d="M738.36,314.93a8.36,8.36,0,1,1,8.36,8.35A8.35,8.35,0,0,1,738.36,314.93Z"/><path class="cls-5" d="M813.72,406.8a8.36,8.36,0,1,1-8.35,8.36A8.35,8.35,0,0,1,813.72,406.8Z"/><circle class="cls-5" cx="813.7" cy="381.68" r="8.36"/><circle class="cls-5" cx="813.68" cy="348.21" r="8.36"/><circle class="cls-5" cx="813.66" cy="314.74" r="8.36"/><path class="cls-5" d="M771.81,281.48a8.36,8.36,0,1,1,8.36,8.35A8.35,8.35,0,0,1,771.81,281.48Z"/><path class="cls-5" d="M738.34,281.5a8.36,8.36,0,1,1,8.36,8.36A8.35,8.35,0,0,1,738.34,281.5Z"/><path class="cls-5" d="M813.63,273a8.36,8.36,0,1,1-8.35,8.37A8.35,8.35,0,0,1,813.63,273Z"/><path class="cls-5" d="M813.61,239.53a8.36,8.36,0,1,1-8.35,8.36A8.36,8.36,0,0,1,813.61,239.53Z"/></g><path class="cls-2" d="M851.1,269.14h0c.52-4.35,5.27-8.41,10.61-9.08l34.53-4.31c5.34-.67,9.25,2.31,8.73,6.65h0c-.52,4.35-5.27,8.41-10.61,9.08l-34.53,4.31C854.49,276.46,850.58,273.48,851.1,269.14Z"/><path class="cls-2" d="M817.82,237.92h0c-2.93-2.8-3.47-8.25-1.22-12.19l14.58-25.45c2.26-3.93,6.46-4.86,9.39-2.06h0c2.92,2.79,3.47,8.25,1.21,12.18L827.2,235.85C824.94,239.79,820.74,240.71,817.82,237.92Z"/><path class="cls-2" d="M844.72,254h0c-3.92-2.12-4.12-6.95-.45-10.8L868,218.27c3.67-3.85,9.82-5.26,13.74-3.14h0c3.92,2.12,4.12,7,.45,10.81l-23.7,24.88C854.79,254.67,848.64,256.07,844.72,254Z"/><ellipse class="cls-8" cx="817.13" cy="316.79" rx="43.01" ry="44.86" transform="translate(-9.97 27.02) rotate(-1.88)"/><ellipse class="cls-9" cx="817.13" cy="316.79" rx="43.01" ry="44.86" transform="translate(-9.97 27.02) rotate(-1.88)"/></g></g></svg>