<?xml version="1.0" encoding="utf-8"?>
<!-- Generator: Adobe Illustrator 24.1.3, SVG Export Plug-In . SVG Version: 6.00 Build 0)  -->
<svg version="1.1" id="Capa_1" xmlns="http://www.w3.org/2000/svg" xmlns:xlink="http://www.w3.org/1999/xlink" x="0px" y="0px"
	 viewBox="0 0 983.9 721.4" style="enable-background:new 0 0 983.9 721.4;" xml:space="preserve">
<style type="text/css">
	.st0{fill:url(#SVGID_1_);}
	.st1{fill:#FFFFFF;}
	.st2{fill:url(#SVGID_2_);}
	.st3{fill:url(#SVGID_3_);}
	.st4{fill:#171717;}
</style>
<linearGradient id="SVGID_1_" gradientUnits="userSpaceOnUse" x1="488.6277" y1="169.75" x2="787.5722" y2="169.75">
	<stop  offset="0" style="stop-color:#8E8E8E"/>
	<stop  offset="0.2899" style="stop-color:#D6D6D6"/>
	<stop  offset="0.5151" style="stop-color:#A2A2A2"/>
	<stop  offset="0.7385" style="stop-color:#D9D9D9"/>
	<stop  offset="0.7915" style="stop-color:#D1D1D1"/>
	<stop  offset="0.8718" style="stop-color:#BCBCBC"/>
	<stop  offset="0.969" style="stop-color:#9A9A9A"/>
	<stop  offset="1" style="stop-color:#8E8E8E"/>
</linearGradient>
<path class="st0" d="M779.4,86.5c-4.5,0-8.2-3.5-8.2-7.7c0-4.3,3.7-7.7,8.2-7.7c4.5,0,8.2,3.5,8.2,7.7
	C787.6,83.1,783.9,86.5,779.4,86.5z M716.9,78.8c0-4.3-3.7-7.7-8.2-7.7c-4.5,0-8.2,3.5-8.2,7.7c0,4.3,3.7,7.7,8.2,7.7
	C713.3,86.5,716.9,83.1,716.9,78.8z M646.3,78.8c0-4.3-3.7-7.7-8.2-7.7s-8.2,3.5-8.2,7.7c0,4.3,3.7,7.7,8.2,7.7
	S646.3,83.1,646.3,78.8z M575.7,78.8c0-4.3-3.7-7.7-8.2-7.7s-8.2,3.5-8.2,7.7c0,4.3,3.7,7.7,8.2,7.7S575.7,83.1,575.7,78.8z
	 M505.1,78.8c0-4.3-3.7-7.7-8.2-7.7c-4.5,0-8.2,3.5-8.2,7.7c0,4.3,3.7,7.7,8.2,7.7C501.4,86.5,505.1,83.1,505.1,78.8z M787.6,139.4
	c0-4.3-3.7-7.7-8.2-7.7c-4.5,0-8.2,3.5-8.2,7.7c0,4.3,3.7,7.7,8.2,7.7C783.9,147.2,787.6,143.7,787.6,139.4z M716.9,139.4
	c0-4.3-3.7-7.7-8.2-7.7c-4.5,0-8.2,3.5-8.2,7.7c0,4.3,3.7,7.7,8.2,7.7C713.3,147.2,716.9,143.7,716.9,139.4z M646.3,139.4
	c0-4.3-3.7-7.7-8.2-7.7s-8.2,3.5-8.2,7.7c0,4.3,3.7,7.7,8.2,7.7S646.3,143.7,646.3,139.4z M575.7,139.4c0-4.3-3.7-7.7-8.2-7.7
	s-8.2,3.5-8.2,7.7c0,4.3,3.7,7.7,8.2,7.7S575.7,143.7,575.7,139.4z M505.1,139.4c0-4.3-3.7-7.7-8.2-7.7c-4.5,0-8.2,3.5-8.2,7.7
	c0,4.3,3.7,7.7,8.2,7.7C501.4,147.2,505.1,143.7,505.1,139.4z M787.6,200.1c0-4.3-3.7-7.7-8.2-7.7c-4.5,0-8.2,3.5-8.2,7.7
	c0,4.3,3.7,7.7,8.2,7.7C783.9,207.8,787.6,204.3,787.6,200.1z M716.9,200.1c0-4.3-3.7-7.7-8.2-7.7c-4.5,0-8.2,3.5-8.2,7.7
	c0,4.3,3.7,7.7,8.2,7.7C713.3,207.8,716.9,204.3,716.9,200.1z M646.3,200.1c0-4.3-3.7-7.7-8.2-7.7s-8.2,3.5-8.2,7.7
	c0,4.3,3.7,7.7,8.2,7.7S646.3,204.3,646.3,200.1z M575.7,200.1c0-4.3-3.7-7.7-8.2-7.7s-8.2,3.5-8.2,7.7c0,4.3,3.7,7.7,8.2,7.7
	S575.7,204.3,575.7,200.1z M505.1,200.1c0-4.3-3.7-7.7-8.2-7.7c-4.5,0-8.2,3.5-8.2,7.7c0,4.3,3.7,7.7,8.2,7.7
	C501.4,207.8,505.1,204.3,505.1,200.1z M787.6,260.7c0-4.3-3.7-7.7-8.2-7.7c-4.5,0-8.2,3.5-8.2,7.7c0,4.3,3.7,7.7,8.2,7.7
	C783.9,268.4,787.6,265,787.6,260.7z M716.9,260.7c0-4.3-3.7-7.7-8.2-7.7c-4.5,0-8.2,3.5-8.2,7.7c0,4.3,3.7,7.7,8.2,7.7
	C713.3,268.4,716.9,265,716.9,260.7z M646.3,260.7c0-4.3-3.7-7.7-8.2-7.7s-8.2,3.5-8.2,7.7c0,4.3,3.7,7.7,8.2,7.7
	S646.3,265,646.3,260.7z M575.7,260.7c0-4.3-3.7-7.7-8.2-7.7s-8.2,3.5-8.2,7.7c0,4.3,3.7,7.7,8.2,7.7S575.7,265,575.7,260.7z
	 M505.1,260.7c0-4.3-3.7-7.7-8.2-7.7c-4.5,0-8.2,3.5-8.2,7.7c0,4.3,3.7,7.7,8.2,7.7C501.4,268.4,505.1,265,505.1,260.7z"/>
<path class="st1" d="M604.5,438c-21.7,33.7-37.7,70.7-47.4,109.5l-10.7,42.9c-1.9,7.6-9.6,12.2-17.1,10.3c-5.5-1.4-9.7-6-10.5-11.6
	l-22.1-147.3c-3.6-24.1-26.1-40.7-50.3-37.1c-19.1,2.9-34.2,17.9-37.1,37.1l-22.1,147.3c-1.1,7.7-8.3,13.1-16.1,11.9
	c-5.7-0.8-10.3-5-11.7-10.6l-10.7-42.9C339,508.6,323,471.6,301.3,438c-36.1-56.1-55.2-121.3-55.2-188v-26
	c0.1-58.1,47.2-105.2,105.3-105.3c20.6,0,39.8,5.5,55.6,15.9c27.8,18.2,63.8,18.2,91.7,0c15.8-10.4,35-15.9,55.6-15.9
	c51.9,0,96.8,38.7,104.1,89.2l0.4,6.4c-12.6,20.1-34.6,32.3-58.3,32.3v19.7c22.3,0,43.2,10.8,56.1,29
	C650,346.2,632.1,394.9,604.5,438z"/>
<linearGradient id="SVGID_2_" gradientUnits="userSpaceOnUse" x1="266.3" y1="336.688" x2="638.1" y2="336.688" gradientTransform="matrix(1 0 0 -1 0 721)">
	<stop  offset="0" style="stop-color:#905E02"/>
	<stop  offset="1" style="stop-color:#F0DA66"/>
</linearGradient>
<path class="st2" d="M636,326.9c-6.1,45.2-22.1,88.6-47,126.9c-19.5,29.9-33.9,62.8-42.7,97.4l-9.7,38.1c-1.8,6.8-8.7,10.9-15.5,9.1
	c-4.9-1.3-8.6-5.3-9.4-10.3l-19.9-131c-3.5-21.7-24-36.5-45.7-32.9c-16.9,2.7-30.2,16-32.9,32.9l-19.9,131
	c-1.1,7-7.7,11.7-14.7,10.5c-5-0.8-9-4.5-10.3-9.3l-9.6-38.1c-8.8-34.6-23.2-67.5-42.7-97.4c-32.4-49.7-49.7-107.8-49.7-167.2v-23.1
	c0-51.6,42.5-93.7,94.9-93.7c18.5,0,35.8,4.9,50,14.1c25.1,16.2,57.4,16.2,82.6,0c14.2-9.2,31.5-14.1,50.1-14.1
	c46.8,0,87.1,34.4,93.8,79.4l0.4,5.7"/>
<linearGradient id="SVGID_3_" gradientUnits="userSpaceOnUse" x1="637.2744" y1="463.4" x2="720.7256" y2="463.4" gradientTransform="matrix(1 0 0 -1 0 721)">
	<stop  offset="0" style="stop-color:#8E8E8E"/>
	<stop  offset="0.2899" style="stop-color:#D6D6D6"/>
	<stop  offset="0.5151" style="stop-color:#A2A2A2"/>
	<stop  offset="0.7385" style="stop-color:#D9D9D9"/>
	<stop  offset="0.7915" style="stop-color:#D1D1D1"/>
	<stop  offset="0.8718" style="stop-color:#BCBCBC"/>
	<stop  offset="0.969" style="stop-color:#9A9A9A"/>
	<stop  offset="1" style="stop-color:#8E8E8E"/>
</linearGradient>
<path class="st3" d="M677.6,214.1c23-0.8,42.3,18.1,43.1,42.1s-17.2,44.1-40.3,44.9c-23,0.8-42.3-18.1-43.1-42.1
	S654.5,214.9,677.6,214.1z"/>
<path class="st4" d="M285.2,250.8v-3.3h-19.7v3.3c0,5.6,0.1,11.3,0.4,16.9l19.7-1C285.4,261.4,285.2,256.1,285.2,250.8z"/>
<path class="st4" d="M267.6,288c5.8,49.9,22.9,97.9,50,140.1l16.6-10.7c-25.5-39.7-41.6-84.8-47-131.7L267.6,288z"/>
<path class="st4" d="M452.6,168.7c-20.6,0-40.7-6.1-57.7-17.6l-11,16.3c41.5,28,95.9,28,137.4,0l-11-16.3
	C493.3,162.6,473.2,168.8,452.6,168.7z"/>
<path class="st4" d="M688.9,178.6H670c-18.6-46.4-64.3-78.8-116-78.8c-24.4,0-47.4,6.6-66.4,19.1c-21.3,13.9-48.8,13.9-70.1,0
	c-19-12.5-42-19.1-66.4-19.1c-69,0.1-124.9,56-125,125v26c0,70.4,20.2,139.4,58.4,198.6c20.5,31.9,35.7,66.9,44.8,103.7L340,596
	c4.5,18.1,22.9,29.1,41,24.6c13.3-3.3,23.2-14.3,25.3-27.8l22.1-147.3c2-13.4,14.5-22.5,27.8-20.5c10.6,1.6,18.9,9.9,20.5,20.5
	l22.1,147.3c2.8,18.5,20,31.2,38.5,28.5c13.5-2,24.5-12,27.8-25.2l10.7-42.9c9.2-36.8,24.3-71.8,44.8-103.7
	c22.5-35.1,38.9-73.8,48.5-114.4c0,0.4,0,0.7,0,1h19.7c0-38,30.9-68.9,68.9-68.9v-19.7C719.7,247.4,688.9,216.6,688.9,178.6z
	 M604.1,438.8c-21.7,33.7-37.7,70.7-47.4,109.5L546,591.2c-1.9,7.6-9.6,12.2-17.1,10.3c-5.5-1.4-9.7-6-10.5-11.6l-22.1-147.3
	c-3.6-24.1-26.1-40.7-50.3-37.1c-19.1,2.9-34.2,17.9-37.1,37.1l-22.1,147.3c-1.1,7.7-8.3,13.1-16.1,11.9c-5.7-0.8-10.3-5-11.7-10.6
	l-10.7-42.9c-9.7-38.9-25.7-75.9-47.4-109.6c-36.1-56.1-55.2-121.3-55.2-188v-26c0.1-58.1,47.2-105.2,105.4-105.3
	c20.6,0,39.8,5.5,55.6,15.9c27.8,18.2,63.8,18.2,91.7,0c15.8-10.4,35-15.9,55.6-15.9c51.9,0,96.8,38.7,104.1,89.2l0.4,6.4
	c-12.6,20.1-34.6,32.3-58.3,32.3V267c22.3,0,43.2,10.8,56.1,29C649.6,346.9,631.8,395.6,604.1,438.8z M679,295.7
	c-8.5-16.5-21.9-29.9-38.3-38.3c16.5-8.5,29.9-21.9,38.3-38.3c8.5,16.5,21.9,29.9,38.3,38.4C700.9,265.8,687.5,279.2,679,295.7z"/>
</svg>
