<svg xmlns="http://www.w3.org/2000/svg" viewBox="0 0 983.93 721.38"><defs><style>.cls-1{opacity:0.1;}.cls-2{fill:#61b9be;}.cls-3{fill:#fff;}.cls-4{fill:#88cace;}.cls-5{opacity:0.3;}.cls-6{fill:#ffc933;}.cls-7{fill:#1f3d59;}</style></defs><g id="Capa_2" data-name="Capa 2"><g id="Capa_1-2" data-name="Capa 1"><g class="cls-1"><path class="cls-2" d="M886.68,217,41.87,467.4c-27.12,8-45.58,39.76-41.24,70.87h0c4.35,31.1,29.85,49.81,57,41.77L902.4,329.68c27.12-8,45.58-39.77,41.24-70.87h0C939.3,227.7,913.79,209,886.68,217Z"/><path class="cls-2" d="M932.09,2.07,150.48,233.69c-25.09,7.44-42.73,32.76-39.41,56.56h0c3.32,23.79,26.35,37.06,51.44,29.62L944.12,88.24c25.08-7.43,42.73-32.75,39.41-56.55h0C980.2,7.9,957.17-5.37,932.09,2.07Z"/><path class="cls-2" d="M111.64,426.24,703.9,250.72c15.5-4.59,26.05-22.72,23.57-40.5s-17.06-28.46-32.55-23.87L102.66,361.87c-15.5,4.59-26,22.72-23.57,40.5S96.15,430.83,111.64,426.24Z"/><path class="cls-2" d="M795.26,381.91l-625,185.23c-18.08,5.36-30.39,26.51-27.49,47.25s19.89,33.21,38,27.85L805.74,457c18.08-5.36,30.39-26.51,27.5-47.25S813.34,376.56,795.26,381.91Z"/><path class="cls-2" d="M153,426.08,773.31,242.25c7.75-2.29,13-11.36,11.78-20.24s-8.53-14.24-16.27-11.94L148.5,393.9c-7.75,2.3-13,11.36-11.78,20.25S145.24,428.38,153,426.08Z"/><path class="cls-2" d="M257.68,487.23c-7.75,2.29-13,11.36-11.78,20.25s8.52,14.23,16.27,11.93l435.66-129.1c7.74-2.3,13-11.36,11.78-20.25s-8.53-14.23-16.28-11.94Z"/><path class="cls-2" d="M917.57,438.3,72.76,688.66C65,691,59.74,700,61,708.91s8.52,14.23,16.27,11.93L922.06,470.49c7.75-2.3,13-11.37,11.78-20.25S925.31,436,917.57,438.3Z"/></g><path class="cls-3" d="M604.51,438a366.86,366.86,0,0,0-47.38,109.55L546.4,590.41a14.13,14.13,0,0,1-27.68-1.34L496.64,441.81a44.16,44.16,0,0,0-87.33,0L387.23,589.07a14.14,14.14,0,0,1-27.71,1.34L348.8,547.54A366.11,366.11,0,0,0,301.43,438a347,347,0,0,1-55.2-188V224A105.44,105.44,0,0,1,351.55,118.71c20.57,0,39.78,5.49,55.57,15.86a83.66,83.66,0,0,0,91.69,0c15.8-10.37,35-15.86,55.59-15.86,51.94,0,96.75,38.7,104.14,89.24l.41,6.41a68.89,68.89,0,0,1-58.3,32.34v19.69a68.84,68.84,0,0,1,56.07,29A350,350,0,0,1,604.51,438Z"/><path class="cls-4" d="M636,326.89a308.58,308.58,0,0,1-47,126.85,324.11,324.11,0,0,0-42.66,97.44l-9.67,38.13a12.75,12.75,0,0,1-24.93-1.19l-19.89-131a39.84,39.84,0,0,0-78.65,0l-19.89,131a12.77,12.77,0,0,1-24.95,1.19l-9.65-38.13a323.66,323.66,0,0,0-42.67-97.44,305.94,305.94,0,0,1-49.72-167.21v-23.1c0-51.65,42.55-93.68,94.86-93.68,18.52,0,35.83,4.88,50.05,14.11a76.18,76.18,0,0,0,82.58,0c14.23-9.23,31.54-14.11,50.06-14.11,46.78,0,87.14,34.43,93.79,79.37l.38,5.71"/><g class="cls-5"><path class="cls-3" d="M644.7,465.33A11.31,11.31,0,1,1,656,476.63,11.31,11.31,0,0,1,644.7,465.33Z"/><path class="cls-3" d="M599.41,465.36a11.31,11.31,0,1,1,11.32,11.3A11.31,11.31,0,0,1,599.41,465.36Z"/><path class="cls-3" d="M554.12,465.39a11.31,11.31,0,1,1,11.32,11.3A11.31,11.31,0,0,1,554.12,465.39Z"/><path class="cls-3" d="M599.38,420.13a11.31,11.31,0,1,1,11.32,11.3A11.31,11.31,0,0,1,599.38,420.13Z"/><path class="cls-3" d="M554.09,420.16a11.31,11.31,0,1,1,11.32,11.3A11.31,11.31,0,0,1,554.09,420.16Z"/><path class="cls-3" d="M599.35,374.91a11.31,11.31,0,1,1,11.32,11.29A11.32,11.32,0,0,1,599.35,374.91Z"/><path class="cls-3" d="M554.06,374.94a11.31,11.31,0,1,1,11.32,11.29A11.32,11.32,0,0,1,554.06,374.94Z"/><path class="cls-3" d="M599.32,329.68A11.31,11.31,0,1,1,610.64,341,11.32,11.32,0,0,1,599.32,329.68Z"/><circle class="cls-3" cx="565.34" cy="329.7" r="11.31"/><path class="cls-3" d="M599.29,284.45a11.31,11.31,0,1,1,11.32,11.3A11.31,11.31,0,0,1,599.29,284.45Z"/><path class="cls-3" d="M554,284.48a11.31,11.31,0,1,1,11.32,11.3A11.31,11.31,0,0,1,554,284.48Z"/><path class="cls-3" d="M656,408.79a11.31,11.31,0,1,1-11.3,11.31A11.31,11.31,0,0,1,656,408.79Z"/><circle class="cls-3" cx="655.95" cy="374.8" r="11.31"/><circle class="cls-3" cx="655.92" cy="329.51" r="11.31"/><circle class="cls-3" cx="655.89" cy="284.22" r="11.31"/><path class="cls-3" d="M599.26,239.22a11.31,11.31,0,1,1,11.32,11.3A11.31,11.31,0,0,1,599.26,239.22Z"/><path class="cls-3" d="M554,239.25a11.31,11.31,0,1,1,11.32,11.3A11.31,11.31,0,0,1,554,239.25Z"/><path class="cls-3" d="M599.23,194a11.31,11.31,0,1,1,11.32,11.3A11.32,11.32,0,0,1,599.23,194Z"/><path class="cls-3" d="M553.94,194a11.31,11.31,0,1,1,11.32,11.3A11.32,11.32,0,0,1,553.94,194Z"/><path class="cls-3" d="M655.85,227.75a11.31,11.31,0,1,1-11.3,11.31A11.32,11.32,0,0,1,655.85,227.75Z"/><path class="cls-3" d="M655.82,182.46a11.31,11.31,0,1,1-11.3,11.31A11.31,11.31,0,0,1,655.82,182.46Z"/></g><ellipse class="cls-6" cx="679.02" cy="257.57" rx="41.73" ry="43.52" transform="translate(-8.1 22.45) rotate(-1.88)"/><path class="cls-7" d="M285.22,250.77v-3.3H265.53v3.3c0,5.64.15,11.28.43,16.89l19.67-1C285.37,261.37,285.22,256.08,285.22,250.77Z"/><path class="cls-7" d="M267.64,288a329.18,329.18,0,0,0,50,140.15l16.56-10.66a309.57,309.57,0,0,1-47-131.72Z"/><path class="cls-7" d="M452.58,168.71a102.71,102.71,0,0,1-57.69-17.59l-11,16.32a123.08,123.08,0,0,0,137.42,0l-11-16.32A102.71,102.71,0,0,1,452.58,168.71Z"/><path class="cls-7" d="M688.87,178.55H670c-18.64-46.38-64.29-78.76-116-78.76-24.42,0-47.38,6.61-66.4,19.09a64.17,64.17,0,0,1-70.05,0c-19-12.48-42-19.09-66.4-19.09a125.15,125.15,0,0,0-125,125v26A366.58,366.58,0,0,0,284.5,449.41a346.91,346.91,0,0,1,44.83,103.67L340.05,596a33.82,33.82,0,0,0,66.26-3.18L428.39,445.5a24.46,24.46,0,0,1,48.37,0l22.09,147.27A33.83,33.83,0,0,0,565.12,596l10.72-42.87a347,347,0,0,1,44.85-103.67,370.46,370.46,0,0,0,48.45-114.36c0,.35,0,.68,0,1h19.7a69,69,0,0,1,68.91-68.92V247.47A69,69,0,0,1,688.87,178.55ZM604.12,438.76a366.86,366.86,0,0,0-47.38,109.55L546,591.18a14.13,14.13,0,0,1-27.68-1.34L496.25,442.58a44.16,44.16,0,0,0-87.33,0L386.84,589.84a14.14,14.14,0,0,1-27.71,1.34l-10.72-42.87A366.11,366.11,0,0,0,301,438.76a347,347,0,0,1-55.2-188v-26A105.44,105.44,0,0,1,351.16,119.48c20.57,0,39.78,5.49,55.58,15.86a83.64,83.64,0,0,0,91.68,0c15.8-10.37,35-15.86,55.59-15.86,51.94,0,96.75,38.71,104.14,89.24l.41,6.41a68.89,68.89,0,0,1-58.3,32.34v19.69a68.83,68.83,0,0,1,56.07,29A349.83,349.83,0,0,1,604.12,438.76ZM679,295.66a89,89,0,0,0-38.35-38.34A89.1,89.1,0,0,0,679,219a89.1,89.1,0,0,0,38.35,38.35A89,89,0,0,0,679,295.66Z"/></g></g></svg>