<?xml version="1.0" encoding="utf-8"?>
<!-- Generator: Adobe Illustrator 24.1.3, SVG Export Plug-In . SVG Version: 6.00 Build 0)  -->
<svg version="1.1" id="Capa_1" xmlns="http://www.w3.org/2000/svg" xmlns:xlink="http://www.w3.org/1999/xlink" x="0px" y="0px"
	 viewBox="0 0 983.9 847" style="enable-background:new 0 0 983.9 847;" xml:space="preserve">
<style type="text/css">
	.st0{fill:url(#SVGID_1_);}
	.st1{fill:url(#SVGID_2_);}
	.st2{fill:url(#SVGID_3_);}
	.st3{fill:#FFFFFF;}
	.st4{fill:url(#SVGID_4_);}
	.st5{fill:#171717;}
</style>
<linearGradient id="SVGID_1_" gradientUnits="userSpaceOnUse" x1="474.7859" y1="235.5953" x2="851.7914" y2="235.5953">
	<stop  offset="0" style="stop-color:#8E8E8E"/>
	<stop  offset="0.2899" style="stop-color:#D6D6D6"/>
	<stop  offset="0.5151" style="stop-color:#A2A2A2"/>
	<stop  offset="0.7385" style="stop-color:#D9D9D9"/>
	<stop  offset="0.7915" style="stop-color:#D1D1D1"/>
	<stop  offset="0.8718" style="stop-color:#BCBCBC"/>
	<stop  offset="0.969" style="stop-color:#9A9A9A"/>
	<stop  offset="1" style="stop-color:#8E8E8E"/>
</linearGradient>
<path class="st0" d="M841.4,130.6c-5.7,0-10.4-4.4-10.4-9.7s4.6-9.7,10.4-9.7s10.4,4.4,10.4,9.7S847.2,130.6,841.4,130.6z
	 M762.7,120.9c0-5.4-4.6-9.7-10.4-9.7s-10.4,4.4-10.4,9.7s4.6,9.7,10.4,9.7S762.7,126.3,762.7,120.9z M673.6,120.9
	c0-5.4-4.6-9.7-10.4-9.7s-10.4,4.4-10.4,9.7s4.6,9.7,10.4,9.7S673.6,126.3,673.6,120.9z M584.6,120.9c0-5.4-4.6-9.7-10.4-9.7
	c-5.7,0-10.4,4.4-10.4,9.7s4.6,9.7,10.4,9.7C579.9,130.6,584.6,126.3,584.6,120.9z M495.5,120.9c0-5.4-4.6-9.7-10.4-9.7
	s-10.4,4.4-10.4,9.7s4.6,9.7,10.4,9.7S495.5,126.3,495.5,120.9z M851.8,197.4c0-5.4-4.6-9.7-10.4-9.7s-10.4,4.4-10.4,9.7
	s4.6,9.7,10.4,9.7S851.8,202.7,851.8,197.4z M762.7,197.4c0-5.4-4.6-9.7-10.4-9.7S742,192,742,197.4s4.6,9.7,10.4,9.7
	S762.7,202.7,762.7,197.4z M673.6,197.4c0-5.4-4.6-9.7-10.4-9.7s-10.4,4.4-10.4,9.7s4.6,9.7,10.4,9.7S673.6,202.7,673.6,197.4z
	 M584.6,197.4c0-5.4-4.6-9.7-10.4-9.7c-5.7,0-10.4,4.4-10.4,9.7s4.6,9.7,10.4,9.7C579.9,207.1,584.6,202.7,584.6,197.4z
	 M495.5,197.4c0-5.4-4.6-9.7-10.4-9.7s-10.4,4.4-10.4,9.7s4.6,9.7,10.4,9.7S495.5,202.7,495.5,197.4z M851.8,273.8
	c0-5.4-4.6-9.7-10.4-9.7s-10.4,4.4-10.4,9.7c0,5.4,4.6,9.7,10.4,9.7S851.8,279.2,851.8,273.8z M762.7,273.8c0-5.4-4.6-9.7-10.4-9.7
	s-10.4,4.4-10.4,9.7c0,5.4,4.6,9.7,10.4,9.7S762.7,279.2,762.7,273.8z M673.6,273.8c0-5.4-4.6-9.7-10.4-9.7s-10.4,4.4-10.4,9.7
	c0,5.4,4.6,9.7,10.4,9.7S673.6,279.2,673.6,273.8z M584.6,273.8c0-5.4-4.6-9.7-10.4-9.7c-5.7,0-10.4,4.4-10.4,9.7
	c0,5.4,4.6,9.7,10.4,9.7C579.9,283.6,584.6,279.2,584.6,273.8z M495.5,273.8c0-5.4-4.6-9.7-10.4-9.7s-10.4,4.4-10.4,9.7
	c0,5.4,4.6,9.7,10.4,9.7S495.5,279.2,495.5,273.8z M851.8,350.3c0-5.4-4.6-9.7-10.4-9.7s-10.4,4.4-10.4,9.7c0,5.4,4.6,9.7,10.4,9.7
	S851.8,355.7,851.8,350.3z M762.7,350.3c0-5.4-4.6-9.7-10.4-9.7s-10.4,4.4-10.4,9.7c0,5.4,4.6,9.7,10.4,9.7S762.7,355.7,762.7,350.3
	z M673.6,350.3c0-5.4-4.6-9.7-10.4-9.7s-10.4,4.4-10.4,9.7c0,5.4,4.6,9.7,10.4,9.7S673.6,355.7,673.6,350.3z M584.6,350.3
	c0-5.4-4.6-9.7-10.4-9.7c-5.7,0-10.4,4.4-10.4,9.7c0,5.4,4.6,9.7,10.4,9.7C579.9,360,584.6,355.7,584.6,350.3z M495.5,350.3
	c0-5.4-4.6-9.7-10.4-9.7s-10.4,4.4-10.4,9.7c0,5.4,4.6,9.7,10.4,9.7S495.5,355.7,495.5,350.3z"/>
<linearGradient id="SVGID_2_" gradientUnits="userSpaceOnUse" x1="328" y1="739.3" x2="394.1" y2="739.3" gradientTransform="matrix(1 0 0 -1 0 847)">
	<stop  offset="0" style="stop-color:#8E8E8E"/>
	<stop  offset="0.2899" style="stop-color:#D6D6D6"/>
	<stop  offset="0.5151" style="stop-color:#A2A2A2"/>
	<stop  offset="0.7385" style="stop-color:#D9D9D9"/>
	<stop  offset="0.7915" style="stop-color:#D1D1D1"/>
	<stop  offset="0.8718" style="stop-color:#BCBCBC"/>
	<stop  offset="0.969" style="stop-color:#9A9A9A"/>
	<stop  offset="1" style="stop-color:#8E8E8E"/>
</linearGradient>
<polygon class="st1" points="328,99.9 386.4,81.5 394.1,115.8 344.2,133.9 "/>
<linearGradient id="SVGID_3_" gradientUnits="userSpaceOnUse" x1="287.1" y1="798.95" x2="395" y2="798.95" gradientTransform="matrix(1 0 0 -1 0 847)">
	<stop  offset="0" style="stop-color:#8E8E8E"/>
	<stop  offset="0.2899" style="stop-color:#D6D6D6"/>
	<stop  offset="0.5151" style="stop-color:#A2A2A2"/>
	<stop  offset="0.7385" style="stop-color:#D9D9D9"/>
	<stop  offset="0.7915" style="stop-color:#D1D1D1"/>
	<stop  offset="0.8718" style="stop-color:#BCBCBC"/>
	<stop  offset="0.969" style="stop-color:#9A9A9A"/>
	<stop  offset="1" style="stop-color:#8E8E8E"/>
</linearGradient>
<polygon class="st2" points="299.3,84.3 287.1,41.5 380.5,11.8 395,44.1 "/>
<path class="st3" d="M658.5,333.5c-7.4-50.5-52.2-89.2-104.1-89.2c-20.6,0-39.8,5.5-55.6,15.9c-27.8,18.2-63.8,18.2-91.7,0
	c-15.8-10.4-35-15.9-55.6-15.9c-58.1,0.1-105.3,47.2-105.3,105.3v26c0,66.7,19.1,131.9,55.2,188c21.7,33.7,37.7,70.7,47.4,109.5
	l10.7,42.9c1.9,7.6,9.6,12.2,17.1,10.3c5.6-1.4,9.7-6,10.6-11.7l22.1-147.3c3.6-24.1,26.1-40.7,50.3-37.1
	c19.1,2.9,34.2,17.9,37.1,37.1l22.1,147.3c1.2,7.7,8.4,13,16.1,11.9c5.6-0.8,10.2-5,11.6-10.5l10.7-42.9
	c9.7-38.9,25.7-75.9,47.4-109.6c27.6-43.1,45.5-91.8,52.2-142.6l10.4-37.8L658.5,333.5z"/>
<linearGradient id="SVGID_4_" gradientUnits="userSpaceOnUse" x1="266.3" y1="337.188" x2="638.0001" y2="337.188" gradientTransform="matrix(1 0 0 -1 0 847)">
	<stop  offset="0" style="stop-color:#905E02"/>
	<stop  offset="1" style="stop-color:#F0DA66"/>
</linearGradient>
<path class="st4" d="M637.7,374.7c-6.6-45-47-79.4-93.8-79.4c-18.5,0-35.8,4.9-50.1,14.1c-25.1,16.2-57.4,16.2-82.6,0
	c-14.2-9.2-31.5-14.1-50-14.1c-52.3,0-94.9,42-94.9,93.7v23.1c0,59.4,17.3,117.5,49.7,167.2c19.5,29.9,33.9,62.8,42.7,97.4l9.6,38.1
	c1.3,4.9,5.3,8.5,10.3,9.3c7,1.1,13.5-3.6,14.7-10.5l19.9-131c2.7-16.9,16-30.2,32.9-32.9c21.7-3.5,42.2,11.2,45.7,32.9l19.9,131
	c0.8,5,4.5,9.1,9.4,10.3c6.8,1.8,13.8-2.3,15.5-9.1l9.7-38.1c8.8-34.6,23.2-67.5,42.7-97.4c24.9-38.3,40.9-81.6,47-126.8l2-72.1
	L637.7,374.7z"/>
<path class="st5" d="M285.2,376.4v-3.3h-19.7v3.3c0,5.6,0.1,11.3,0.4,16.9l19.7-1C285.4,387,285.2,381.7,285.2,376.4z"/>
<path class="st5" d="M267.6,413.5c5.8,49.9,22.9,97.9,50,140.1l16.5-10.7c-25.5-39.8-41.6-84.8-47-131.7L267.6,413.5z"/>
<path class="st5" d="M452.6,294.3c-20.6,0-40.7-6.1-57.7-17.6l-11,16.3c41.5,28,95.9,28,137.4,0l-11-16.3
	C493.3,288.2,473.2,294.3,452.6,294.3z"/>
<path class="st5" d="M670,304.1c-10.4-33.9-64.3-78.8-116-78.8c-24.4,0-47.4,6.6-66.4,19.1c-21.3,13.9-48.8,13.9-70.1,0
	c-19-12.5-42-19.1-66.4-19.1c-69,0.1-124.9,56-125,125v26c0,70.4,20.2,139.4,58.4,198.6c20.5,31.9,35.7,66.9,44.8,103.7l10.7,42.9
	c4.5,18.1,22.9,29.1,41,24.6c13.3-3.3,23.2-14.3,25.3-27.8L428.4,571c2-13.4,14.5-22.5,27.8-20.5c10.6,1.6,18.9,9.9,20.5,20.5
	l22.1,147.3c2.8,18.5,20,31.2,38.5,28.4c13.5-2,24.5-12,27.8-25.2l10.7-42.9c9.2-36.8,24.3-71.8,44.9-103.7
	c22.5-35.1,38.9-73.8,48.5-114.4c0,0.4,0,0.7,0,1C669.2,461.7,692.1,376.1,670,304.1z M604.1,564.3c-21.7,33.7-37.7,70.7-47.4,109.6
	L546,716.8c-1.9,7.6-9.6,12.2-17.1,10.3c-5.5-1.4-9.7-6-10.5-11.6l-22.1-147.3c-3.6-24.1-26.1-40.7-50.3-37.1
	c-19.1,2.9-34.2,17.9-37.1,37.1l-22.1,147.3c-1.1,7.7-8.3,13.1-16.1,11.9c-5.7-0.8-10.3-5-11.7-10.6l-10.7-42.9
	C338.7,635,322.7,598,301,564.3c-36.1-56.1-55.2-121.3-55.2-188v-26c0.1-58.1,47.2-105.2,105.4-105.3c20.6,0,39.8,5.5,55.6,15.9
	c27.8,18.2,63.8,18.2,91.7,0c15.8-10.4,35-15.9,55.6-15.9c51.9,0,96.8,38.7,104.1,89.2c0,0,3.7,24.3-1.8,87.4
	C649.6,472.5,631.8,521.2,604.1,564.3L604.1,564.3z"/>
<g>
	<path class="st5" d="M382.3,635.9c-1.9,0-3.9-0.6-5.5-1.9c-0.8-0.6-19.1-15.2-34-44.4c-13.6-26.7-26.8-71.3-12.8-132.4
		c4-17.6,8.6-35.9,12.9-53.6c24.3-98.3,49.4-199.9,19.3-273.8c-1.9-4.6,0.3-9.9,4.9-11.7c4.6-1.9,9.9,0.3,11.7,4.9
		c32.3,79.3,6.4,183.8-18.5,284.9c-4.4,17.6-8.9,35.9-12.9,53.3c-10.2,44.5-6.5,84.6,10.9,119.4c13,26,29.3,39.1,29.5,39.2
		c3.9,3.1,4.6,8.7,1.5,12.6C387.6,634.7,384.9,635.9,382.3,635.9z"/>
</g>
<path class="st5" d="M302.4,88.2c-7.8,0-14.8-5-17.3-12.4l-8-23.7c-3.2-9.6,1.9-19.9,11.4-23.2L371,1c9.6-3.2,19.9,1.9,23.2,11.4
	l8,23.7c3.2,9.5-1.9,19.9-11.4,23.2l-82.5,28C306.4,87.9,304.4,88.2,302.4,88.2z M376.9,18L376.9,18l-82.5,28
	c-0.1,0-0.1,0.1-0.2,0.1c0,0.1,0,0.1,0,0.2l8,23.7c0,0.1,0.1,0.1,0.1,0.2c0.1,0,0.1,0,0.2,0l82.5-28c0.1,0,0.1-0.1,0.2-0.1
	c0-0.1,0-0.1,0-0.2l-8-23.7c0-0.1-0.1-0.1-0.1-0.2C377.1,18,376.9,18,376.9,18z M387.9,50.8L387.9,50.8z"/>
<path class="st5" d="M291.4,124.6c-7.8,0-14.8-5-17.3-12.4l-3.1-9c-3.3-9.6,1.9-20,11.4-23.2l0,0l129.3-43.8
	c9.6-3.3,20,1.9,23.2,11.4l0,0l3,9c3.2,9.6-1.9,19.9-11.4,23.2l-129.3,43.8C295.4,124.3,293.4,124.6,291.4,124.6z M417.6,53.2
	L417.6,53.2L288.3,97.1c-0.1,0-0.1,0.1-0.2,0.2c0,0.1,0,0.1,0,0.2l3.1,9c0,0.1,0.2,0.2,0.3,0.2l0,0l129.3-43.8l2.9,8.5l-2.9-8.5
	c0.1-0.1,0.2-0.2,0.2-0.3l-3.1-9C417.9,53.3,417.8,53.2,417.6,53.2z"/>
<path class="st5" d="M345.9,142c-7.8,0-14.8-5-17.3-12.4l-6.2-18.3c-1.6-4.7,0.9-9.8,5.6-11.4s9.8,0.9,11.4,5.6l6.2,18.3
	c0,0.1,0.2,0.2,0.4,0.2l40.4-13.7c0.1,0,0.2-0.2,0.2-0.4l0,0l-5.8-17.1c-1.9-4.6,0.2-9.9,4.8-11.8s9.9,0.2,11.8,4.8
	c0.2,0.4,0.3,0.8,0.4,1.2l5.8,17.1c3.2,9.6-1.9,19.9-11.4,23.2L351.7,141C349.8,141.7,347.9,142,345.9,142z"/>
</svg>
