<svg width="143" height="114" viewBox="0 0 143 114" fill="none" xmlns="http://www.w3.org/2000/svg">
<ellipse cx="71.6636" cy="57" rx="57.5" ry="57" fill="#EEECEC"/>
<g clip-path="url(#clip0)">
<path d="M22.8866 50.9076L23.0488 50.4853L20.5672 49.4946L20.405 49.9169C20.113 50.6315 19.8535 51.3461 19.6102 52.0769L22.1405 52.9377C22.3676 52.2556 22.6109 51.5735 22.8866 50.9076Z" fill="#1F3D59"/>
<path d="M18.7829 54.708C16.9987 61.2531 16.723 68.253 18.0206 74.9281L20.6482 74.4246C19.4317 68.1393 19.6912 61.578 21.3619 55.4226L18.7829 54.708Z" fill="#1F3D59"/>
<path d="M8.56329 71.3062C8.174 71.8909 7.18457 72.1345 6.35735 71.8422L1.05335 69.942C0.226125 69.6497 -0.114498 68.9351 0.274786 68.3341C0.66407 67.7495 1.6535 67.5059 2.48073 67.7982L7.78472 69.6984C8.61195 69.9907 8.95257 70.7216 8.56329 71.3062Z" fill="#FBB03B"/>
<path d="M11.0946 78.2736C11.3217 78.8907 10.9973 79.719 10.3809 80.1251L6.40696 82.7398C5.7906 83.1459 5.10935 82.9672 4.89849 82.3501C4.67141 81.7329 4.99581 80.9046 5.61217 80.4986L9.58611 77.8838C10.2025 77.4778 10.8837 77.6564 11.0946 78.2736Z" fill="#FBB03B"/>
<path d="M8.3696 73.9698C8.7751 74.5707 8.4507 75.2853 7.63969 75.5614L2.38436 77.4291C1.57335 77.7214 0.583924 77.4778 0.1622 76.8769C-0.243304 76.276 0.0810989 75.5614 0.892107 75.2853L6.16366 73.4176C6.97467 73.1415 7.9641 73.3851 8.3696 73.9698Z" fill="#FBB03B"/>
<path d="M15.0847 53.8635C15.8957 52.0283 16.5608 50.3717 17.3718 48.7801C19.4804 44.5899 22.9515 42.2999 27.5743 42.1863C32.051 42.0726 35.6681 44.0377 37.8578 48.0005C39.2852 50.5829 40.2909 53.3926 41.4912 56.1048C41.6696 56.5108 41.8156 56.9169 41.8967 57.0793C43.5836 53.8798 44.9947 50.4529 47.0547 47.4971C52.5371 39.5715 64.0858 40.351 68.5626 48.8938C69.844 51.3462 70.5901 54.0584 71.5795 56.657C71.758 57.128 71.9202 57.599 72.0013 57.8426C73.6233 54.5944 75.0669 51.2325 76.9322 48.1305C79.5436 43.7941 83.6149 41.7315 88.6756 42.1051C93.7363 42.4948 97.3209 45.2233 99.3971 49.8358C100.354 51.9471 101.116 54.1559 102.09 56.6245C102.414 55.5039 102.641 54.6269 102.917 53.7823C104.977 47.5458 107.41 41.5853 114.725 39.7988H118.44C119.899 40.4322 121.424 40.9357 122.803 41.7315C125.706 43.4043 127.117 46.2465 128.301 49.2186C128.593 49.9495 128.902 50.6965 129.275 51.6223C131.464 58.6059 131.805 64.2253 131.675 67.8795C131.464 73.6613 126.842 78.3225 121.067 78.5499C121.019 78.5499 120.986 78.5499 120.937 78.5499C117.174 78.6636 113.395 78.6798 109.664 78.29C107.734 78.0951 105.901 76.942 103.939 76.1949C103.744 76.6659 103.468 77.4292 103.128 78.1439C101.408 81.7006 98.5699 84.0556 94.677 84.3154C89.8921 84.6403 85.0585 84.5103 80.2573 84.283C76.9809 84.1368 74.2234 82.5452 72.0986 79.8167C71.7904 80.109 71.4984 80.3201 71.2876 80.58C68.9843 83.341 65.8863 84.5591 62.4314 84.624C58.1168 84.7052 53.786 84.5753 49.4877 84.218C45.4489 83.8769 42.5292 81.5545 40.6477 77.9652C35.1491 82.1067 28.953 81.3921 22.8704 80.7911C17.8259 80.2877 16.3337 79.3782 13.706 75.7077C13.2681 75.1068 13.0248 74.3759 13.0086 73.6289C12.9275 70.4294 12.8788 61.1558 15.0847 53.8635Z" fill="white"/>
<path d="M87.6375 84.0231C90.2165 83.8769 92.39 83.7632 94.5797 83.6171C95.3097 83.5683 96.0233 83.4546 96.737 83.3247C100.305 82.6751 103.047 80.4013 103.063 77.6566C103.095 70.7379 101.798 63.9654 97.986 57.599C96.218 54.6431 93.3146 52.7916 88.9351 52.5805C84.4746 52.3531 81.263 53.9285 78.9435 56.7544C74.045 62.7311 72.4068 69.3737 71.9202 76.2436C71.6607 80.0928 74.4506 82.7076 79.495 83.341C82.3173 83.6658 85.1558 83.8119 87.6375 84.0231Z" fill="#88CACE"/>
<path d="M56.9003 84.0555C59.6416 83.8444 62.1881 83.7632 64.7022 83.4384C69.4385 82.8212 72.1149 80.1414 71.904 76.471C71.8391 75.4803 71.7905 74.4733 71.6769 73.4826C71.0768 67.9932 69.844 62.6174 66.7784 57.5664C64.9618 54.5618 61.9773 52.7104 57.5329 52.5479C53.3644 52.4018 50.2501 53.8472 48.0604 56.4783C42.9834 62.5687 41.2479 69.3574 40.8911 76.4222C40.6964 80.0927 43.4214 82.6913 48.2063 83.2922C51.126 83.6495 54.1105 83.8119 56.9003 84.0555Z" fill="#88CACE"/>
<path d="M115.423 78.6148C117.726 78.4036 120.256 78.2575 122.738 77.8839C126.079 77.3804 128.334 75.2529 128.253 72.5731C128.058 66.499 126.761 60.5872 123.63 55.0328C122.138 52.3855 119.753 50.6802 116.088 50.5665C112.357 50.4366 109.81 52.012 108.026 54.6268C104.182 60.2462 103.079 66.3853 103.063 72.703C103.063 75.464 105.334 77.5104 108.626 77.9814C110.784 78.3062 112.99 78.4036 115.423 78.6148Z" fill="#88CACE"/>
<path d="M40.8586 72.5567C40.4369 66.9211 39.2366 61.4804 35.9439 56.5431C34.3219 54.1069 31.9862 52.7589 28.7746 52.8726C25.6603 52.9863 23.4219 54.4155 22.0432 56.9004C18.8803 62.5523 17.6962 68.6264 17.4853 74.8792C17.4042 77.3803 19.3182 79.5404 22.027 80.0926C26.6497 81.0345 31.3374 81.132 35.9926 80.2387C38.8311 79.6865 40.664 77.6564 40.8424 75.0416C40.891 74.2133 40.8586 73.385 40.8586 72.5567Z" fill="#88CACE"/>
<path d="M88.0755 77.2668C84.6206 77.2668 81.2792 76.2436 78.4245 74.3271L76.5754 77.0556C79.9654 79.3456 83.9394 80.5637 88.0593 80.5637C92.1792 80.5637 96.1531 79.3456 99.5431 77.0556L97.694 74.3271C94.8717 76.2436 91.5304 77.2668 88.0755 77.2668Z" fill="#1F3D59"/>
<path d="M60.047 85.7445C56.3813 85.7445 52.8128 85.5984 49.4228 85.306C45.6111 84.9812 42.4806 82.9998 40.3233 79.5405C34.8571 83.0648 28.9205 82.4801 23.1462 81.9117L22.7893 81.8792C17.5502 81.3595 15.7011 80.32 12.8464 76.341C12.2787 75.5452 11.9705 74.6194 11.938 73.6612C11.8245 70.0557 11.8083 60.8958 14.0467 53.5549L14.0629 53.4899L14.0953 53.4249C14.3548 52.8403 14.5981 52.2718 14.8414 51.7196C15.3605 50.534 15.8471 49.3972 16.3986 48.2928C18.7018 43.7128 22.5622 41.2117 27.5581 41.0818C32.4728 40.9518 36.4791 43.2256 38.8311 47.4645C39.8529 49.316 40.6639 51.2811 41.4587 53.1813C41.6372 53.6036 41.8156 54.0421 41.994 54.4806C42.14 54.172 42.3022 53.8634 42.4482 53.5549C43.5511 51.3136 44.6865 48.9749 46.1464 46.8798C48.9362 42.8683 53.4292 40.6433 58.1979 40.9356C62.9991 41.2279 67.2326 44.0214 69.5196 48.3902C70.4442 50.1442 71.093 52.0282 71.7256 53.8634C71.8553 54.2532 72.0013 54.643 72.1311 55.049C72.2446 54.8217 72.3419 54.5943 72.4555 54.3669C73.526 52.1094 74.6452 49.7707 75.959 47.5782C78.7813 42.8683 83.1932 40.6108 88.7243 41.033C94.0445 41.4391 98.0671 44.33 100.37 49.3972C100.938 50.6315 101.425 51.8983 101.927 53.2138C104.117 46.6362 106.777 40.6108 114.449 38.7268L114.579 38.6943H118.65L118.861 38.7918C119.299 38.9867 119.77 39.1653 120.208 39.344C121.246 39.7662 122.316 40.1885 123.322 40.7732C126.615 42.6734 128.139 45.9053 129.291 48.7962C129.486 49.2835 129.68 49.7707 129.907 50.3229L130.297 51.2811C132.567 58.5084 132.876 64.3064 132.746 67.9119C132.632 70.9815 131.383 73.8886 129.21 76.0649C127.036 78.2412 124.149 79.5242 121.084 79.6379H120.938C117.791 79.7354 113.655 79.8003 109.502 79.3781C107.994 79.2319 106.599 78.5823 105.253 77.9813C105.009 77.8676 104.75 77.754 104.506 77.6403C104.377 77.9489 104.231 78.2899 104.069 78.6147C102.041 82.7887 98.797 85.1274 94.7095 85.4035C89.6164 85.7445 84.507 85.5821 80.16 85.371C77.0295 85.2248 74.2235 83.8606 71.9689 81.4082C69.6169 84.1529 66.308 85.6471 62.4152 85.7121C61.6528 85.7283 60.8418 85.7445 60.047 85.7445ZM41.037 76.2923L41.6372 77.4291C43.4538 80.9047 46.1301 82.8049 49.6012 83.0973C53.6725 83.4383 57.9871 83.5845 62.4476 83.5033C65.8052 83.4383 68.4977 82.2202 70.4766 79.8491C70.6875 79.6054 70.8983 79.4105 71.1254 79.2319C71.2065 79.1507 71.3038 79.0857 71.4011 78.9883L72.277 78.1762L73.0069 79.1182C75.002 81.668 77.4675 83.0323 80.3547 83.1622C84.6206 83.3571 89.665 83.5195 94.6446 83.1947C98.7646 82.9186 101.019 80.0277 102.171 77.6403C102.398 77.1693 102.609 76.6496 102.771 76.2436C102.836 76.0649 102.901 75.9025 102.966 75.7563L103.371 74.7656L104.361 75.1392C105.009 75.3828 105.626 75.6751 106.242 75.9512C107.491 76.5196 108.659 77.0556 109.81 77.1693C113.817 77.5753 117.872 77.5103 120.938 77.4129H121.067C126.242 77.218 130.426 72.9953 130.621 67.7982C130.751 64.3714 130.443 58.8494 128.285 51.947L127.945 51.1187C127.718 50.5665 127.523 50.0793 127.328 49.5921C126.014 46.3439 124.717 44.0539 122.3 42.6571C121.424 42.1537 120.467 41.7639 119.461 41.3579C119.072 41.1955 118.667 41.033 118.261 40.8706H114.904C108.318 42.5435 106.064 47.8543 104.004 54.1071C103.825 54.6592 103.663 55.2114 103.485 55.8611C103.387 56.1859 103.29 56.5432 103.193 56.9167L102.301 60.0025L101.116 57.0142C100.808 56.2184 100.516 55.4551 100.224 54.708C99.6405 53.1488 99.0727 51.6871 98.4402 50.2904C96.4613 45.9378 93.1686 43.5504 88.627 43.2093C83.988 42.8683 80.2898 44.7522 77.9217 48.6988C76.6565 50.8101 75.5697 53.0839 74.5154 55.2926C74.045 56.2996 73.5422 57.3228 73.0394 58.3297L71.8878 60.6359L71.0281 58.216C70.9956 58.1511 70.9794 58.0536 70.9308 57.9562C70.8497 57.7126 70.7361 57.3715 70.6064 57.0467C70.2982 56.2184 70.0062 55.3739 69.7142 54.5618C69.0817 52.7266 68.4815 51.005 67.6381 49.3972C65.7079 45.7105 62.1394 43.3555 58.1168 43.1119C54.1267 42.8683 50.3474 44.736 48.0117 48.1141C46.6492 50.0793 45.5462 52.3368 44.4757 54.5131C43.9729 55.52 43.47 56.5757 42.9185 57.5989L41.8156 59.6777L40.9235 57.5177C40.9072 57.4689 40.8748 57.404 40.8424 57.3228C40.7613 57.1116 40.6477 56.8355 40.518 56.5594C40.1449 55.7149 39.7881 54.8541 39.4474 54.0258C38.6851 52.1744 37.8903 50.2742 36.9333 48.5364C34.9707 44.9958 31.7591 43.1769 27.6392 43.2905C23.4381 43.4042 20.3239 45.4181 18.3774 49.2835C17.8422 50.3391 17.3718 51.4273 16.869 52.5966C16.6419 53.1326 16.3986 53.6848 16.1391 54.2532C13.9493 61.4642 14.0467 70.8678 14.1278 73.58C14.144 74.0997 14.3224 74.6195 14.6306 75.0417C17.1285 78.5173 18.3774 79.2157 23.0002 79.6704L23.357 79.7029C29.326 80.2876 34.9544 80.856 39.9989 77.0556L41.037 76.2923Z" fill="#1F3D59"/>
<g opacity="0.3">
<path opacity="0.3" d="M120.921 74.2786C120.921 73.5315 121.521 72.9143 122.284 72.9143C123.03 72.9143 123.646 73.5152 123.646 74.2623C123.646 75.0094 123.046 75.6266 122.284 75.6266C121.538 75.6428 120.921 75.0256 120.921 74.2786Z" fill="white"/>
<path opacity="0.3" d="M115.488 74.2786C115.488 73.5315 116.088 72.9143 116.85 72.9143C117.596 72.9143 118.213 73.5152 118.213 74.2623C118.213 75.0094 117.612 75.6266 116.85 75.6266C116.104 75.6428 115.488 75.0256 115.488 74.2786Z" fill="white"/>
<path opacity="0.3" d="M120.921 68.854C120.921 68.1069 121.521 67.4897 122.284 67.4897C123.03 67.4897 123.646 68.0907 123.646 68.854C123.646 69.6011 123.046 70.2182 122.284 70.2182C121.521 70.202 120.921 69.6011 120.921 68.854Z" fill="white"/>
<path opacity="0.3" d="M115.488 68.854C115.488 68.1069 116.088 67.4897 116.85 67.4897C117.596 67.4897 118.213 68.0907 118.213 68.854C118.213 69.6011 117.612 70.2182 116.85 70.2182C116.104 70.2182 115.488 69.6011 115.488 68.854Z" fill="white"/>
<path opacity="0.3" d="M120.921 63.4297C120.921 62.6826 121.521 62.0654 122.284 62.0654C123.03 62.0654 123.646 62.6663 123.646 63.4297C123.646 64.193 123.046 64.7939 122.284 64.7939C121.521 64.7777 120.921 64.1768 120.921 63.4297Z" fill="white"/>
<path opacity="0.3" d="M115.488 63.4297C115.488 62.6826 116.088 62.0654 116.85 62.0654C117.596 62.0654 118.213 62.6663 118.213 63.4297C118.213 64.1768 117.612 64.7939 116.85 64.7939C116.088 64.7777 115.488 64.1768 115.488 63.4297Z" fill="white"/>
<path opacity="0.3" d="M120.905 57.9888C120.905 57.2417 121.505 56.6245 122.268 56.6245C123.014 56.6245 123.63 57.2254 123.63 57.9888C123.63 58.7358 123.03 59.353 122.268 59.353C121.521 59.353 120.921 58.7358 120.905 57.9888Z" fill="white"/>
<path opacity="0.3" d="M116.834 59.353C117.586 59.353 118.196 58.7422 118.196 57.9888C118.196 57.2353 117.586 56.6245 116.834 56.6245C116.081 56.6245 115.471 57.2353 115.471 57.9888C115.471 58.7422 116.081 59.353 116.834 59.353Z" fill="white"/>
<path opacity="0.3" d="M120.905 52.5644C120.905 51.8174 121.505 51.2002 122.268 51.2002C123.014 51.2002 123.63 51.8011 123.63 52.5482C123.63 53.2953 123.03 53.9124 122.268 53.9124C121.521 53.9287 120.905 53.3115 120.905 52.5644Z" fill="white"/>
<path opacity="0.3" d="M115.488 52.5644C115.488 51.8174 116.088 51.2002 116.85 51.2002C117.596 51.2002 118.213 51.8011 118.213 52.5482C118.213 53.2953 117.612 53.9124 116.85 53.9124C116.088 53.9287 115.488 53.3115 115.488 52.5644Z" fill="white"/>
<path opacity="0.3" d="M127.701 67.4897C128.447 67.4897 129.064 68.0907 129.064 68.854C129.064 69.6011 128.464 70.2182 127.701 70.2182C126.955 70.2182 126.339 69.6173 126.339 68.854C126.355 68.0907 126.955 67.4897 127.701 67.4897Z" fill="white"/>
<path opacity="0.3" d="M127.701 64.7776C128.454 64.7776 129.064 64.1668 129.064 63.4133C129.064 62.6599 128.454 62.0491 127.701 62.0491C126.949 62.0491 126.339 62.6599 126.339 63.4133C126.339 64.1668 126.949 64.7776 127.701 64.7776Z" fill="white"/>
<path opacity="0.3" d="M127.701 59.3369C128.454 59.3369 129.064 58.7261 129.064 57.9726C129.064 57.2192 128.454 56.6084 127.701 56.6084C126.949 56.6084 126.339 57.2192 126.339 57.9726C126.339 58.7261 126.949 59.3369 127.701 59.3369Z" fill="white"/>
<path opacity="0.3" d="M127.701 53.896C128.454 53.896 129.064 53.2852 129.064 52.5317C129.064 51.7783 128.454 51.1675 127.701 51.1675C126.949 51.1675 126.339 51.7783 126.339 52.5317C126.339 53.2852 126.949 53.896 127.701 53.896Z" fill="white"/>
<path opacity="0.3" d="M120.905 47.1399C120.905 46.3928 121.505 45.7756 122.268 45.7756C123.014 45.7756 123.63 46.3766 123.63 47.1399C123.63 47.887 123.03 48.5041 122.268 48.5041C121.521 48.4879 120.905 47.887 120.905 47.1399Z" fill="white"/>
<path opacity="0.3" d="M115.471 47.1399C115.471 46.3928 116.071 45.7756 116.834 45.7756C117.58 45.7756 118.196 46.3766 118.196 47.1399C118.196 47.887 117.596 48.5041 116.834 48.5041C116.088 48.5041 115.471 47.887 115.471 47.1399Z" fill="white"/>
<path opacity="0.3" d="M127.685 45.7593C128.431 45.7593 129.048 46.3602 129.048 47.1235C129.048 47.8869 128.447 48.4878 127.685 48.4878C126.939 48.4878 126.323 47.8869 126.323 47.1235C126.323 46.3602 126.939 45.7593 127.685 45.7593Z" fill="white"/>
<path opacity="0.3" d="M127.685 40.3186C128.431 40.3186 129.048 40.9195 129.048 41.6828C129.048 42.4299 128.447 43.0471 127.685 43.0471C126.939 43.0471 126.323 42.4462 126.323 41.6828C126.339 40.9358 126.939 40.3186 127.685 40.3186Z" fill="white"/>
</g>
<path d="M133.768 45.1259C133.849 44.4275 134.627 43.7616 135.487 43.6479L141.083 42.9496C141.943 42.8359 142.591 43.3231 142.494 44.0377C142.413 44.7361 141.634 45.402 140.775 45.5156L135.179 46.214C134.319 46.3277 133.687 45.8405 133.768 45.1259Z" fill="#FBB03B"/>
<path d="M128.366 40.0586C127.896 39.6039 127.799 38.7106 128.172 38.0772L130.54 33.952C130.913 33.3186 131.594 33.1562 132.065 33.6109C132.535 34.0657 132.632 34.959 132.259 35.5924L129.891 39.7176C129.518 40.3672 128.837 40.5134 128.366 40.0586Z" fill="#FBB03B"/>
<path d="M132.73 42.6734C132.097 42.3323 132.065 41.5365 132.648 40.9194L136.493 36.8754C137.093 36.242 138.082 36.0146 138.715 36.3719C139.347 36.713 139.38 37.5088 138.796 38.1259L134.952 42.1699C134.368 42.7871 133.362 43.0145 132.73 42.6734Z" fill="#FBB03B"/>
<path d="M128.497 60.1629C132.347 60.0361 135.361 56.6702 135.229 52.6448C135.097 48.6195 131.869 45.459 128.019 45.5857C124.169 45.7125 121.155 49.0784 121.287 53.1038C121.419 57.1291 124.647 60.2896 128.497 60.1629Z" fill="#FFC933"/>
<path d="M128.577 62.6174L127.539 60.6685C126.014 57.81 123.63 55.4713 120.808 54.0746L118.991 53.1814L120.743 52.1582C123.468 50.5828 125.69 48.0817 127.036 45.1421L127.945 43.1282L128.983 45.0771C130.507 47.9355 132.892 50.2742 135.714 51.6709L137.531 52.5642L135.779 53.5874C133.054 55.1628 130.832 57.6639 129.486 60.6035L128.577 62.6174ZM123.371 53.0352C125.366 54.302 127.069 55.9586 128.415 57.94C129.632 55.8774 131.237 54.1071 133.135 52.7104C131.14 51.4436 129.437 49.787 128.091 47.8056C126.874 49.8682 125.268 51.6385 123.371 53.0352Z" fill="#1F3D59"/>
</g>
<defs>
<clipPath id="clip0">
<rect width="142.51" height="52.3935" fill="white" transform="translate(0 33.3511)"/>
</clipPath>
</defs>
</svg>
