<?xml version="1.0" encoding="utf-8"?>
<!-- Generator: Adobe Illustrator 24.1.3, SVG Export Plug-In . SVG Version: 6.00 Build 0)  -->
<svg version="1.1" id="Capa_1" xmlns="http://www.w3.org/2000/svg" xmlns:xlink="http://www.w3.org/1999/xlink" x="0px" y="0px"
	 viewBox="0 0 983.8 721.3" style="enable-background:new 0 0 983.8 721.3;" xml:space="preserve">
<style type="text/css">
	.st0{opacity:0.1;}
	.st1{fill:url(#SVGID_1_);}
	.st2{fill:url(#SVGID_2_);}
	.st3{fill:url(#SVGID_3_);}
	.st4{fill:url(#SVGID_4_);}
	.st5{fill:url(#SVGID_5_);}
	.st6{fill:url(#SVGID_6_);}
	.st7{fill:url(#SVGID_7_);}
	.st8{fill:none;}
	.st9{fill:#171717;}
	.st10{fill:url(#SVGID_8_);}
	.st11{fill:url(#SVGID_9_);}
	.st12{fill:url(#SVGID_10_);}
	.st13{fill:#FFFFFF;}
	.st14{fill:url(#SVGID_11_);}
	.st15{fill:url(#SVGID_12_);}
	.st16{fill:url(#SVGID_13_);}
	.st17{fill:url(#SVGID_14_);}
	.st18{opacity:0.3;}
	.st19{opacity:0.3;fill:#FFFFFF;enable-background:new    ;}
	.st20{fill:url(#SVGID_15_);}
	.st21{fill:url(#SVGID_16_);}
	.st22{fill:url(#SVGID_17_);}
	.st23{fill:#FFC933;}
</style>
<g class="st0">
	<linearGradient id="SVGID_1_" gradientUnits="userSpaceOnUse" x1="-9.094947e-13" y1="398.5437" x2="944.2947" y2="398.5437">
		<stop  offset="0" style="stop-color:#905E02"/>
		<stop  offset="1" style="stop-color:#F0DA66"/>
	</linearGradient>
	<path class="st1" d="M886.6,217L41.8,467.4c-27.1,8-45.6,39.8-41.2,70.9l0,0c4.3,31.1,29.8,49.8,57,41.8l844.8-250.4
		c27.1-8,45.6-39.8,41.2-70.9l0,0C939.2,227.7,913.7,209,886.6,217z"/>
	<linearGradient id="SVGID_2_" gradientUnits="userSpaceOnUse" x1="110.6497" y1="160.9934" x2="983.845" y2="160.9934">
		<stop  offset="0" style="stop-color:#905E02"/>
		<stop  offset="1" style="stop-color:#F0DA66"/>
	</linearGradient>
	<path class="st2" d="M932,2.1L150.4,233.7c-25.1,7.4-42.7,32.8-39.4,56.6l0,0c3.3,23.8,26.4,37.1,51.4,29.6L944,88.2
		c25.1-7.4,42.7-32.8,39.4-56.6l0,0C980.1,7.9,957.1-5.4,932,2.1z"/>
	<linearGradient id="SVGID_3_" gradientUnits="userSpaceOnUse" x1="78.7058" y1="306.2439" x2="727.7888" y2="306.2439">
		<stop  offset="0" style="stop-color:#905E02"/>
		<stop  offset="1" style="stop-color:#F0DA66"/>
	</linearGradient>
	<path class="st3" d="M111.5,426.2l592.3-175.5c15.5-4.6,26-22.7,23.6-40.5c-2.5-17.8-17.1-28.5-32.5-23.9L102.6,361.9
		c-15.5,4.6-26,22.7-23.6,40.5C81.5,420.1,96,430.8,111.5,426.2z"/>
	<linearGradient id="SVGID_4_" gradientUnits="userSpaceOnUse" x1="142.3238" y1="512.0104" x2="833.6708" y2="512.0104">
		<stop  offset="0" style="stop-color:#905E02"/>
		<stop  offset="1" style="stop-color:#F0DA66"/>
	</linearGradient>
	<path class="st4" d="M795.2,381.9l-625,185.2c-18.1,5.4-30.4,26.5-27.5,47.2s19.9,33.2,38,27.8l625-185.2
		c18.1-5.4,30.4-26.5,27.5-47.2C830.2,389,813.2,376.6,795.2,381.9z"/>
	<g>
		<g>
			<linearGradient id="SVGID_5_" gradientUnits="userSpaceOnUse" x1="136.4778" y1="318.1404" x2="785.2169" y2="318.1404">
				<stop  offset="0" style="stop-color:#905E02"/>
				<stop  offset="1" style="stop-color:#F0DA66"/>
			</linearGradient>
			<path class="st5" d="M152.9,426.1l620.3-183.8c7.7-2.3,13-11.4,11.8-20.2c-1.2-8.9-8.5-14.2-16.3-11.9L148.4,393.9
				c-7.7,2.3-13,11.4-11.8,20.2C137.9,423,145.1,428.4,152.9,426.1z"/>
			<linearGradient id="SVGID_6_" gradientUnits="userSpaceOnUse" x1="245.6778" y1="438.6938" x2="709.8169" y2="438.6938">
				<stop  offset="0" style="stop-color:#905E02"/>
				<stop  offset="1" style="stop-color:#F0DA66"/>
			</linearGradient>
			<path class="st6" d="M257.6,487.2c-7.7,2.3-13,11.4-11.8,20.2c1.2,8.9,8.5,14.2,16.3,11.9l435.7-129.1c7.7-2.3,13-11.4,11.8-20.2
				c-1.2-8.9-8.5-14.2-16.3-11.9L257.6,487.2z"/>
			<linearGradient id="SVGID_7_" gradientUnits="userSpaceOnUse" x1="60.7512" y1="579.5438" x2="934.0168" y2="579.5438">
				<stop  offset="0" style="stop-color:#905E02"/>
				<stop  offset="1" style="stop-color:#F0DA66"/>
			</linearGradient>
			<path class="st7" d="M917.5,438.3L72.7,688.7c-7.8,2.3-13.1,11.3-11.8,20.2c1.2,8.9,8.5,14.2,16.3,11.9L922,470.4
				c7.7-2.3,13-11.4,11.8-20.2C932.5,441.3,925.2,436,917.5,438.3z"/>
		</g>
	</g>
</g>
<rect x="538.5" y="296.6" class="st8" width="142.5" height="52.4"/>
<g>
	<path class="st9" d="M202.4,259.4l1-2.6l-15.4-6.1l-1,2.6c-1.8,4.4-3.4,8.8-4.9,13.4l15.7,5.3C199.2,267.7,200.7,263.5,202.4,259.4
		z"/>
	<path class="st9" d="M177,282.9c-11,40.5-12.7,83.8-4.7,125.1l16.3-3.1c-7.5-38.9-5.9-79.5,4.4-117.6L177,282.9z"/>
	<linearGradient id="SVGID_8_" gradientUnits="userSpaceOnUse" x1="61.5339" y1="376.3761" x2="114.8072" y2="376.3761">
		<stop  offset="0" style="stop-color:#905E02"/>
		<stop  offset="1" style="stop-color:#F0DA66"/>
	</linearGradient>
	<path class="st10" d="M113.8,385.6c-2.4,3.6-8.5,5.1-13.6,3.3l-32.8-11.8c-5.1-1.8-7.2-6.2-4.8-9.9c2.4-3.6,8.5-5.1,13.6-3.3
		l32.8,11.8C114.1,377.4,116.2,382,113.8,385.6z"/>
	<linearGradient id="SVGID_9_" gradientUnits="userSpaceOnUse" x1="90.6881" y1="441.293" x2="129.9247" y2="441.293">
		<stop  offset="0" style="stop-color:#905E02"/>
		<stop  offset="1" style="stop-color:#F0DA66"/>
	</linearGradient>
	<path class="st11" d="M129.5,428.7c1.4,3.8-0.6,8.9-4.4,11.5l-24.6,16.2c-3.8,2.5-8,1.4-9.3-2.4c-1.4-3.8,0.6-8.9,4.4-11.5
		l24.6-16.2C124,423.8,128.2,424.9,129.5,428.7z"/>
	<linearGradient id="SVGID_10_" gradientUnits="userSpaceOnUse" x1="60.7512" y1="411.076" x2="113.6948" y2="411.076">
		<stop  offset="0" style="stop-color:#905E02"/>
		<stop  offset="1" style="stop-color:#F0DA66"/>
	</linearGradient>
	<path class="st12" d="M112.6,402.1c2.5,3.7,0.5,8.1-4.5,9.8l-32.5,11.6c-5,1.8-11.1,0.3-13.7-3.4c-2.5-3.7-0.5-8.1,4.5-9.8
		L99,398.6C104,396.9,110.1,398.4,112.6,402.1z"/>
	<path class="st13" d="M154.2,277.6c5-11.4,9.1-21.6,14.2-31.5c13-25.9,34.5-40.1,63.1-40.8c27.7-0.7,50.1,11.5,63.6,36
		c8.8,16,15.1,33.4,22.5,50.1c1.1,2.5,2,5,2.5,6c10.4-19.8,19.2-41,31.9-59.3c33.9-49,105.4-44.2,133.1,8.6
		c7.9,15.2,12.5,32,18.7,48c1.1,2.9,2.1,5.8,2.6,7.3c10-20.1,19-40.9,30.5-60.1c16.2-26.8,41.3-39.6,72.7-37.3
		c31.3,2.4,53.5,19.3,66.3,47.8c5.9,13.1,10.6,26.7,16.7,42c2-6.9,3.4-12.4,5.1-17.6c12.7-38.6,27.8-75.5,73.1-86.5h23
		c9,3.9,18.5,7,27,12c18,10.4,26.7,27.9,34,46.3c1.8,4.5,3.7,9.1,6,14.9c13.5,43.2,15.7,78,14.9,100.6c-1.3,35.8-29.9,64.6-65.6,66
		c-0.3,0-0.5,0-0.8,0c-23.3,0.7-46.7,0.8-69.8-1.6c-11.9-1.2-23.3-8.3-35.4-13c-1.2,2.9-2.9,7.6-5,12.1
		c-10.6,22-28.2,36.6-52.3,38.2c-29.6,2-59.5,1.2-89.2-0.2c-20.3-0.9-37.3-10.8-50.5-27.6c-1.9,1.8-3.7,3.1-5,4.7
		c-14.3,17.1-33.4,24.6-54.8,25c-26.7,0.5-53.5-0.3-80.1-2.5c-25-2.1-43.1-16.5-54.7-38.7c-34,25.6-72.4,21.2-110,17.5
		c-31.2-3.1-40.4-8.7-56.7-31.5c-2.7-3.7-4.2-8.2-4.3-12.9C140.8,380.1,140.5,322.8,154.2,277.6z"/>
	<linearGradient id="SVGID_11_" gradientUnits="userSpaceOnUse" x1="505.7312" y1="366.914" x2="698.5338" y2="366.914">
		<stop  offset="0" style="stop-color:#905E02"/>
		<stop  offset="1" style="stop-color:#F0DA66"/>
	</linearGradient>
	<path class="st14" d="M603.1,464.3c16-0.9,29.4-1.6,43-2.5c4.5-0.3,8.9-1,13.3-1.8c22.1-4,39-18.1,39.1-35.1
		c0.2-42.8-7.8-84.7-31.4-124.1c-10.9-18.3-28.9-29.7-56-31.1c-27.6-1.4-47.5,8.3-61.8,25.8c-30.3,37-40.4,78.1-43.5,120.6
		c-1.6,23.8,15.7,40,46.9,43.9C570.2,462,587.7,462.9,603.1,464.3z"/>
	<linearGradient id="SVGID_12_" gradientUnits="userSpaceOnUse" x1="313.7811" y1="366.9491" x2="505.8056" y2="366.9491">
		<stop  offset="0" style="stop-color:#905E02"/>
		<stop  offset="1" style="stop-color:#F0DA66"/>
	</linearGradient>
	<path class="st15" d="M412.9,464.5c17-1.3,32.7-1.8,48.3-3.8c29.3-3.8,45.9-20.4,44.6-43.1c-0.4-6.1-0.7-12.4-1.4-18.5
		c-3.7-34-11.3-67.2-30.3-98.5c-11.2-18.6-29.7-30-57.2-31.1c-25.8-0.9-45.1,8-58.6,24.3c-31.4,37.7-42.2,79.7-44.4,123.4
		c-1.2,22.7,15.7,38.8,45.3,42.5C377.2,461.9,395.6,462.9,412.9,464.5z"/>
	<linearGradient id="SVGID_13_" gradientUnits="userSpaceOnUse" x1="698.5303" y1="343.9951" x2="854.4065" y2="343.9951">
		<stop  offset="0" style="stop-color:#905E02"/>
		<stop  offset="1" style="stop-color:#F0DA66"/>
	</linearGradient>
	<path class="st16" d="M775,430.8c14.2-1.3,29.9-2.2,45.3-4.5c20.7-3.1,34.6-16.3,34.1-32.9c-1.2-37.6-9.2-74.2-28.6-108.5
		c-9.2-16.4-24-26.9-46.7-27.6c-23.1-0.8-38.8,8.9-49.9,25.1c-23.8,34.8-30.6,72.8-30.7,111.8c0,17.1,14.1,29.7,34.4,32.7
		C746.3,428.9,760,429.5,775,430.8z"/>
	<linearGradient id="SVGID_14_" gradientUnits="userSpaceOnUse" x1="169.0027" y1="358.0686" x2="313.7059" y2="358.0686">
		<stop  offset="0" style="stop-color:#905E02"/>
		<stop  offset="1" style="stop-color:#F0DA66"/>
	</linearGradient>
	<path class="st17" d="M313.6,393.3c-2.6-34.9-10-68.5-30.4-99.1c-10-15.1-24.5-23.4-44.4-22.7c-19.3,0.7-33.1,9.5-41.7,24.9
		c-19.6,35-26.9,72.6-28.2,111.2c-0.5,15.5,11.3,28.8,28.1,32.3c28.6,5.8,57.6,6.4,86.4,0.9c17.6-3.4,28.9-16,30-32.2
		C313.8,403.6,313.6,398.4,313.6,393.3z"/>
	<path class="st9" d="M605.8,422.5c-21.4,0-42.1-6.3-59.7-18.2l-11.4,16.9c21,14.2,45.6,21.7,71.1,21.7s50.1-7.5,71.1-21.7
		l-11.4-16.9C647.8,416.1,627.2,422.5,605.8,422.5z"/>
	<path class="st9" d="M432.4,474.9c-22.7,0-44.8-0.9-65.7-2.7c-23.6-2-43-14.3-56.3-35.7c-33.8,21.8-70.6,18.2-106.3,14.7l-2.2-0.2
		c-32.4-3.2-43.9-9.6-61.5-34.3c-3.5-4.9-5.4-10.7-5.6-16.6c-0.7-22.3-0.8-79,13-124.4l0.1-0.4l0.2-0.4c1.6-3.6,3.1-7.1,4.6-10.6
		c3.2-7.3,6.2-14.4,9.6-21.2c14.3-28.3,38.1-43.8,69-44.6c30.4-0.8,55.2,13.3,69.8,39.5c6.3,11.5,11.3,23.6,16.3,35.4
		c1.1,2.6,2.2,5.3,3.3,8c0.9-1.9,1.9-3.8,2.8-5.7c6.8-13.9,13.8-28.3,22.9-41.3c17.3-24.8,45.1-38.6,74.6-36.8
		c29.7,1.8,55.9,19.1,70.1,46.1c5.7,10.9,9.7,22.5,13.6,33.9c0.8,2.4,1.7,4.8,2.5,7.3c0.7-1.4,1.3-2.8,2-4.2
		c6.6-14,13.5-28.4,21.7-42c17.5-29.1,44.8-43.1,79-40.5c32.9,2.5,57.8,20.4,72.1,51.8c3.5,7.6,6.5,15.5,9.6,23.6
		c13.6-40.7,30-78,77.5-89.6l0.8-0.2H795l1.3,0.6c2.7,1.2,5.6,2.3,8.3,3.4c6.4,2.6,13,5.2,19.3,8.8c20.4,11.8,29.8,31.8,36.9,49.6
		c1.2,3,2.4,6,3.8,9.4l2.4,5.9c14,44.7,16,80.6,15.2,102.9c-0.7,19-8.4,37-21.9,50.4c-13.5,13.5-31.3,21.4-50.3,22.1h-0.9
		c-19.5,0.6-45.1,1-70.8-1.6c-9.3-0.9-18-4.9-26.3-8.6c-1.5-0.7-3.1-1.4-4.6-2.1c-0.8,1.9-1.7,4-2.7,6c-12.5,25.8-32.6,40.3-57.9,42
		c-31.5,2.1-63.1,1.1-90-0.2c-19.4-0.9-36.7-9.3-50.7-24.5c-14.6,17-35,26.2-59.1,26.6C442.3,474.8,437.3,474.9,432.4,474.9z
		 M314.7,416.4l3.7,7c11.2,21.5,27.8,33.3,49.3,35.1c25.2,2.1,51.9,3,79.5,2.5c20.8-0.4,37.4-7.9,49.7-22.6c1.3-1.5,2.6-2.7,4-3.8
		c0.5-0.5,1.1-0.9,1.7-1.5l5.4-5l4.5,5.8c12.3,15.8,27.6,24.2,45.5,25c26.4,1.2,57.6,2.2,88.4,0.2c25.5-1.7,39.4-19.6,46.6-34.4
		c1.4-2.9,2.7-6.1,3.7-8.6c0.4-1.1,0.8-2.1,1.2-3l2.5-6.1l6.1,2.3c4,1.5,7.8,3.3,11.6,5c7.7,3.5,15,6.8,22.1,7.5
		c24.8,2.5,49.9,2.1,68.9,1.5h0.8c32-1.2,57.9-27.3,59.1-59.5c0.8-21.2-1.1-55.4-14.5-98.1l-2.1-5.1c-1.4-3.4-2.6-6.4-3.8-9.4
		c-8.1-20.1-16.2-34.3-31.1-42.9c-5.4-3.1-11.3-5.5-17.6-8c-2.4-1-4.9-2-7.4-3h-20.8c-40.8,10.4-54.7,43.2-67.4,81.9
		c-1.1,3.4-2.1,6.8-3.2,10.9c-0.6,2-1.2,4.2-1.8,6.5l-5.5,19.1l-7.3-18.5c-1.9-4.9-3.7-9.6-5.5-14.3c-3.6-9.6-7.1-18.7-11-27.3
		c-12.2-26.9-32.6-41.7-60.7-43.8c-28.7-2.1-51.6,9.5-66.2,34c-7.8,13.1-14.6,27.1-21.1,40.8c-2.9,6.2-6,12.6-9.1,18.8l-7.1,14.3
		l-5.3-15c-0.2-0.4-0.3-1-0.6-1.6c-0.5-1.5-1.2-3.6-2-5.6c-1.9-5.1-3.7-10.4-5.5-15.4c-3.9-11.4-7.6-22-12.8-32
		c-11.9-22.8-34-37.4-58.9-38.9c-24.7-1.5-48.1,10-62.5,31c-8.4,12.2-15.3,26.1-21.9,39.6c-3.1,6.2-6.2,12.8-9.6,19.1l-6.8,12.9
		l-5.5-13.4c-0.1-0.3-0.3-0.7-0.5-1.2c-0.5-1.3-1.2-3-2-4.7c-2.3-5.2-4.5-10.6-6.6-15.7c-4.7-11.5-9.6-23.2-15.6-34
		c-12.1-21.9-32-33.2-57.5-32.5c-26,0.7-45.3,13.2-57.3,37.1c-3.3,6.5-6.2,13.3-9.3,20.5c-1.4,3.3-2.9,6.7-4.5,10.3
		c-13.5,44.6-12.9,102.8-12.4,119.6c0.1,3.2,1.2,6.4,3.1,9c15.5,21.5,23.2,25.8,51.8,28.6l2.2,0.2c36.9,3.6,71.8,7.1,103-16.4
		L314.7,416.4z"/>
	<g class="st18">
		<path class="st19" d="M809,404c0-4.6,3.7-8.4,8.4-8.4c4.6,0,8.4,3.7,8.4,8.3c0,4.6-3.7,8.4-8.4,8.4C812.8,412.4,809,408.6,809,404
			z"/>
		<path class="st19" d="M775.4,404c0-4.6,3.7-8.4,8.4-8.4c4.6,0,8.4,3.7,8.4,8.3c0,4.6-3.7,8.4-8.4,8.4
			C779.2,412.4,775.4,408.6,775.4,404z"/>
		<path class="st19" d="M809,370.4c0-4.6,3.7-8.4,8.4-8.4c4.6,0,8.4,3.7,8.4,8.4c0,4.6-3.7,8.4-8.4,8.4
			C812.7,378.7,809,375,809,370.4z"/>
		<path class="st19" d="M775.4,370.4c0-4.6,3.7-8.4,8.4-8.4c4.6,0,8.4,3.7,8.4,8.4c0,4.6-3.7,8.4-8.4,8.4
			C779.2,378.8,775.4,375,775.4,370.4z"/>
		<path class="st19" d="M809,336.8c0-4.6,3.7-8.4,8.4-8.4c4.6,0,8.4,3.7,8.4,8.4c0,4.7-3.7,8.4-8.4,8.4
			C812.7,345.2,809,341.5,809,336.8z"/>
		<path class="st19" d="M775.4,336.8c0-4.6,3.7-8.4,8.4-8.4c4.6,0,8.4,3.7,8.4,8.4c0,4.6-3.7,8.4-8.4,8.4
			C779.1,345.2,775.4,341.5,775.4,336.8z"/>
		<path class="st19" d="M808.9,303.2c0-4.6,3.7-8.4,8.4-8.4c4.6,0,8.4,3.7,8.4,8.4c0,4.6-3.7,8.4-8.4,8.4
			C812.7,311.6,809,307.8,808.9,303.2z"/>
		<path class="st19" d="M783.7,311.6c4.7,0,8.4-3.8,8.4-8.4c0-4.7-3.8-8.4-8.4-8.4c-4.7,0-8.4,3.8-8.4,8.4
			C775.3,307.8,779.1,311.6,783.7,311.6z"/>
		<path class="st19" d="M808.9,269.6c0-4.6,3.7-8.4,8.4-8.4c4.6,0,8.4,3.7,8.4,8.3c0,4.6-3.7,8.4-8.4,8.4
			C812.7,278,808.9,274.2,808.9,269.6z"/>
		<path class="st19" d="M775.4,269.6c0-4.6,3.7-8.4,8.4-8.4c4.6,0,8.4,3.7,8.4,8.3c0,4.6-3.7,8.4-8.4,8.4
			C779.1,278,775.4,274.2,775.4,269.6z"/>
		<path class="st19" d="M851,362c4.6,0,8.4,3.7,8.4,8.4c0,4.6-3.7,8.4-8.4,8.4c-4.6,0-8.4-3.7-8.4-8.4
			C842.6,365.7,846.4,362,851,362z"/>
		<path class="st19" d="M851,345.2c4.7,0,8.4-3.8,8.4-8.4c0-4.7-3.8-8.4-8.4-8.4c-4.7,0-8.4,3.8-8.4,8.4
			C842.6,341.4,846.3,345.2,851,345.2z"/>
		<path class="st19" d="M851,311.5c4.7,0,8.4-3.8,8.4-8.4c0-4.7-3.8-8.4-8.4-8.4c-4.7,0-8.4,3.8-8.4,8.4
			C842.6,307.7,846.3,311.5,851,311.5z"/>
		<path class="st19" d="M851,277.8c4.7,0,8.4-3.8,8.4-8.4c0-4.7-3.8-8.4-8.4-8.4c-4.7,0-8.4,3.8-8.4,8.4
			C842.6,274.1,846.3,277.8,851,277.8z"/>
		<path class="st19" d="M808.9,236c0-4.6,3.7-8.4,8.4-8.4c4.6,0,8.4,3.7,8.4,8.4c0,4.6-3.7,8.4-8.4,8.4
			C812.7,244.4,808.9,240.7,808.9,236z"/>
		<path class="st19" d="M775.3,236c0-4.6,3.7-8.4,8.4-8.4c4.6,0,8.4,3.7,8.4,8.4c0,4.6-3.7,8.4-8.4,8.4
			C779.1,244.5,775.3,240.7,775.3,236z"/>
		<path class="st19" d="M850.9,227.5c4.6,0,8.4,3.7,8.4,8.4c0,4.7-3.7,8.4-8.4,8.4c-4.6,0-8.4-3.7-8.4-8.4
			C842.5,231.2,846.3,227.5,850.9,227.5z"/>
		<path class="st19" d="M850.9,193.8c4.6,0,8.4,3.7,8.4,8.4c0,4.6-3.7,8.4-8.4,8.4c-4.6,0-8.4-3.7-8.4-8.4
			C842.6,197.7,846.3,193.8,850.9,193.8z"/>
	</g>
	<linearGradient id="SVGID_15_" gradientUnits="userSpaceOnUse" x1="888.4742" y1="220.2134" x2="942.5692" y2="220.2134">
		<stop  offset="0" style="stop-color:#905E02"/>
		<stop  offset="1" style="stop-color:#F0DA66"/>
	</linearGradient>
	<path class="st20" d="M888.5,223.6c0.5-4.3,5.3-8.4,10.6-9.1l34.6-4.3c5.3-0.7,9.3,2.3,8.7,6.7c-0.5,4.3-5.3,8.4-10.6,9.1
		l-34.6,4.3C891.9,231,888,228,888.5,223.6z"/>
	<linearGradient id="SVGID_16_" gradientUnits="userSpaceOnUse" x1="852.4785" y1="172.2927" x2="880.5943" y2="172.2927">
		<stop  offset="0" style="stop-color:#905E02"/>
		<stop  offset="1" style="stop-color:#F0DA66"/>
	</linearGradient>
	<path class="st21" d="M855.1,192.2c-2.9-2.8-3.5-8.3-1.2-12.3l14.7-25.5c2.3-3.9,6.5-4.9,9.4-2.1c2.9,2.8,3.5,8.3,1.2,12.3
		l-14.7,25.5C862.2,194.1,858,195,855.1,192.2z"/>
	<linearGradient id="SVGID_17_" gradientUnits="userSpaceOnUse" x1="879.0134" y1="188.8773" x2="922.2053" y2="188.8773">
		<stop  offset="0" style="stop-color:#905E02"/>
		<stop  offset="1" style="stop-color:#F0DA66"/>
	</linearGradient>
	<path class="st22" d="M882.1,208.4c-3.9-2.1-4.1-7-0.5-10.9l23.8-25c3.7-3.9,9.8-5.3,13.7-3.1c3.9,2.1,4.1,7,0.5,10.9l-23.8,25
		C892.2,209.1,886,210.5,882.1,208.4z"/>
	<path class="st23" d="M855.9,316.6c11.7-0.4,9.5-20.5,17-28.7c7.8-8.5,25.1-5.1,24.6-17.8c-0.4-12.1-20.7-12.2-28.4-20
		c-8.1-8.3-4-24-16.3-23.6c-11.7,0.4-6.7,17.7-14.2,25.8c-7.8,8.5-27.9,8-27.4,20.7c0.3,10.6,21,11.9,27.1,19.4
		C846.6,302.5,842.2,317.1,855.9,316.6z"/>
	<path class="st9" d="M856.4,331.8l-6.4-12.1c-9.4-17.7-24.2-32.2-41.6-40.8l-11.2-5.5l10.8-6.3c16.9-9.7,30.6-25.2,38.9-43.4
		l5.6-12.5l6.4,12.1c9.4,17.7,24.2,32.2,41.6,40.8l11.2,5.5l-10.8,6.3c-16.9,9.7-30.6,25.2-38.9,43.4L856.4,331.8z M824.2,272.5
		c12.3,7.8,22.9,18.1,31.2,30.3c7.5-12.8,17.5-23.7,29.2-32.4c-12.3-7.8-22.9-18.1-31.2-30.3C845.9,252.9,835.9,263.9,824.2,272.5z"
		/>
</g>
</svg>
