<?xml version="1.0" encoding="utf-8"?>
<!-- Generator: Adobe Illustrator 24.1.3, SVG Export Plug-In . SVG Version: 6.00 Build 0)  -->
<svg version="1.1" id="Capa_1" xmlns="http://www.w3.org/2000/svg" xmlns:xlink="http://www.w3.org/1999/xlink" x="0px" y="0px"
	 viewBox="0 0 983.9 721.4" style="enable-background:new 0 0 983.9 721.4;" xml:space="preserve">
<style type="text/css">
	.st0{fill:url(#SVGID_1_);}
	.st1{fill:#171717;}
	.st2{fill:url(#SVGID_2_);}
	.st3{fill:url(#SVGID_3_);}
	.st4{fill:url(#SVGID_4_);}
	.st5{fill:#FFFFFF;}
	.st6{fill:url(#SVGID_5_);}
	.st7{fill:url(#SVGID_6_);}
	.st8{fill:url(#SVGID_7_);}
	.st9{fill:url(#SVGID_8_);}
	.st10{fill:url(#SVGID_9_);}
	.st11{fill:url(#SVGID_10_);}
	.st12{fill:url(#SVGID_11_);}
	.st13{fill:url(#SVGID_12_);}
	.st14{fill:url(#SVGID_13_);}
</style>
<linearGradient id="SVGID_1_" gradientUnits="userSpaceOnUse" x1="415.8748" y1="214.1579" x2="792.8804" y2="214.1579">
	<stop  offset="0" style="stop-color:#8E8E8E"/>
	<stop  offset="0.2899" style="stop-color:#D6D6D6"/>
	<stop  offset="0.5151" style="stop-color:#A2A2A2"/>
	<stop  offset="0.7385" style="stop-color:#D9D9D9"/>
	<stop  offset="0.7915" style="stop-color:#D1D1D1"/>
	<stop  offset="0.8718" style="stop-color:#BCBCBC"/>
	<stop  offset="0.969" style="stop-color:#9A9A9A"/>
	<stop  offset="1" style="stop-color:#8E8E8E"/>
</linearGradient>
<path class="st0" d="M782.5,109.2c-5.7,0-10.4-4.4-10.4-9.7s4.6-9.7,10.4-9.7s10.4,4.4,10.4,9.7S788.2,109.2,782.5,109.2z
	 M703.8,99.5c0-5.4-4.6-9.7-10.4-9.7s-10.4,4.4-10.4,9.7s4.6,9.7,10.4,9.7S703.8,104.8,703.8,99.5z M614.7,99.5
	c0-5.4-4.6-9.7-10.4-9.7S594,94.1,594,99.5s4.6,9.7,10.4,9.7S614.7,104.8,614.7,99.5z M525.7,99.5c0-5.4-4.6-9.7-10.4-9.7
	c-5.7,0-10.4,4.4-10.4,9.7s4.6,9.7,10.4,9.7C521,109.2,525.7,104.8,525.7,99.5z M436.6,99.5c0-5.4-4.6-9.7-10.4-9.7
	s-10.4,4.4-10.4,9.7s4.6,9.7,10.4,9.7S436.6,104.8,436.6,99.5z M792.9,175.9c0-5.4-4.6-9.7-10.4-9.7s-10.4,4.4-10.4,9.7
	c0,5.4,4.6,9.7,10.4,9.7S792.9,181.3,792.9,175.9z M703.8,175.9c0-5.4-4.6-9.7-10.4-9.7s-10.4,4.4-10.4,9.7c0,5.4,4.6,9.7,10.4,9.7
	S703.8,181.3,703.8,175.9z M614.7,175.9c0-5.4-4.6-9.7-10.4-9.7s-10.4,4.4-10.4,9.7c0,5.4,4.6,9.7,10.4,9.7S614.7,181.3,614.7,175.9
	z M525.7,175.9c0-5.4-4.6-9.7-10.4-9.7c-5.7,0-10.4,4.4-10.4,9.7c0,5.4,4.6,9.7,10.4,9.7C521,185.7,525.7,181.3,525.7,175.9z
	 M436.6,175.9c0-5.4-4.6-9.7-10.4-9.7s-10.4,4.4-10.4,9.7c0,5.4,4.6,9.7,10.4,9.7S436.6,181.3,436.6,175.9z M792.9,252.4
	c0-5.4-4.6-9.7-10.4-9.7s-10.4,4.4-10.4,9.7s4.6,9.7,10.4,9.7S792.9,257.8,792.9,252.4z M703.8,252.4c0-5.4-4.6-9.7-10.4-9.7
	s-10.4,4.4-10.4,9.7s4.6,9.7,10.4,9.7S703.8,257.8,703.8,252.4z M614.7,252.4c0-5.4-4.6-9.7-10.4-9.7S594,247,594,252.4
	s4.6,9.7,10.4,9.7S614.7,257.8,614.7,252.4z M525.7,252.4c0-5.4-4.6-9.7-10.4-9.7c-5.7,0-10.4,4.4-10.4,9.7s4.6,9.7,10.4,9.7
	C521,262.1,525.7,257.8,525.7,252.4z M436.6,252.4c0-5.4-4.6-9.7-10.4-9.7s-10.4,4.4-10.4,9.7s4.6,9.7,10.4,9.7
	S436.6,257.8,436.6,252.4z M792.9,328.9c0-5.4-4.6-9.7-10.4-9.7s-10.4,4.4-10.4,9.7c0,5.4,4.6,9.7,10.4,9.7S792.9,334.2,792.9,328.9
	z M703.8,328.9c0-5.4-4.6-9.7-10.4-9.7s-10.4,4.4-10.4,9.7c0,5.4,4.6,9.7,10.4,9.7S703.8,334.2,703.8,328.9z M614.7,328.9
	c0-5.4-4.6-9.7-10.4-9.7s-10.4,4.4-10.4,9.7c0,5.4,4.6,9.7,10.4,9.7S614.7,334.2,614.7,328.9z M525.7,328.9c0-5.4-4.6-9.7-10.4-9.7
	c-5.7,0-10.4,4.4-10.4,9.7c0,5.4,4.6,9.7,10.4,9.7C521,338.6,525.7,334.2,525.7,328.9z M436.6,328.9c0-5.4-4.6-9.7-10.4-9.7
	s-10.4,4.4-10.4,9.7c0,5.4,4.6,9.7,10.4,9.7S436.6,334.2,436.6,328.9z"/>
<path class="st1" d="M167.5,304.7l1-2.6l-15.3-6.1l-1,2.6c-1.8,4.4-3.4,8.8-4.9,13.3l15.6,5.3C164.3,313,165.8,308.8,167.5,304.7z"
	/>
<path class="st1" d="M142.2,328.1c-11,40.3-12.7,83.4-4.7,124.5l16.2-3.1c-7.5-38.7-5.9-79.1,4.4-117L142.2,328.1z"/>
<g>
	
		<linearGradient id="SVGID_2_" gradientUnits="userSpaceOnUse" x1="27.0095" y1="299.85" x2="80.1905" y2="299.85" gradientTransform="matrix(1 0 0 -1 0 721)">
		<stop  offset="0" style="stop-color:#8E8E8E"/>
		<stop  offset="0.2899" style="stop-color:#D6D6D6"/>
		<stop  offset="0.5151" style="stop-color:#A2A2A2"/>
		<stop  offset="0.7385" style="stop-color:#D9D9D9"/>
		<stop  offset="0.7915" style="stop-color:#D1D1D1"/>
		<stop  offset="0.8718" style="stop-color:#BCBCBC"/>
		<stop  offset="0.969" style="stop-color:#9A9A9A"/>
		<stop  offset="1" style="stop-color:#8E8E8E"/>
	</linearGradient>
	<path class="st2" d="M79.2,430.3L79.2,430.3c-2.4,3.6-8.5,5.1-13.6,3.3l-32.8-11.7c-5.1-1.8-7.2-6.2-4.8-9.9l0,0
		c2.4-3.6,8.5-5.1,13.6-3.3l32.8,11.7C79.5,422.3,81.6,426.7,79.2,430.3z"/>
	
		<linearGradient id="SVGID_3_" gradientUnits="userSpaceOnUse" x1="56.1526" y1="235.25" x2="95.2474" y2="235.25" gradientTransform="matrix(1 0 0 -1 0 721)">
		<stop  offset="0" style="stop-color:#8E8E8E"/>
		<stop  offset="0.2899" style="stop-color:#D6D6D6"/>
		<stop  offset="0.5151" style="stop-color:#A2A2A2"/>
		<stop  offset="0.7385" style="stop-color:#D9D9D9"/>
		<stop  offset="0.7915" style="stop-color:#D1D1D1"/>
		<stop  offset="0.8718" style="stop-color:#BCBCBC"/>
		<stop  offset="0.969" style="stop-color:#9A9A9A"/>
		<stop  offset="1" style="stop-color:#8E8E8E"/>
	</linearGradient>
	<path class="st3" d="M94.8,473.2L94.8,473.2c1.4,3.8-0.6,8.9-4.4,11.4l-24.5,16.1c-3.8,2.5-8,1.4-9.3-2.4l0,0
		c-1.4-3.8,0.6-8.9,4.4-11.4l24.5-16.1C89.3,468.3,93.5,469.4,94.8,473.2z"/>
	
		<linearGradient id="SVGID_4_" gradientUnits="userSpaceOnUse" x1="26.3237" y1="265.3196" x2="79.0763" y2="265.3196" gradientTransform="matrix(1 0 0 -1 0 721)">
		<stop  offset="0" style="stop-color:#8E8E8E"/>
		<stop  offset="0.2899" style="stop-color:#D6D6D6"/>
		<stop  offset="0.5151" style="stop-color:#A2A2A2"/>
		<stop  offset="0.7385" style="stop-color:#D9D9D9"/>
		<stop  offset="0.7915" style="stop-color:#D1D1D1"/>
		<stop  offset="0.8718" style="stop-color:#BCBCBC"/>
		<stop  offset="0.969" style="stop-color:#9A9A9A"/>
		<stop  offset="1" style="stop-color:#8E8E8E"/>
	</linearGradient>
	<path class="st4" d="M78,446.7L78,446.7c2.5,3.7,0.5,8.1-4.5,9.8L41.1,468c-5,1.8-11.1,0.3-13.7-3.4l0,0c-2.5-3.7-0.5-8.1,4.5-9.8
		l32.4-11.5C69.4,441.6,75.5,443.1,78,446.7z"/>
</g>
<path class="st5" d="M119.5,322.9c5-11.3,9.1-21.5,14.1-31.3c13-25.8,34.4-39.9,62.9-40.6c27.6-0.7,49.9,11.4,63.4,35.8
	c8.8,15.9,15,33.2,22.4,49.9c1.1,2.5,2,5,2.5,6c10.4-19.7,19.1-40.8,31.8-59c33.8-48.8,105-44,132.6,8.6
	c7.9,15.1,12.5,31.8,18.6,47.8c1.1,2.9,2.1,5.8,2.6,7.3c10-20,18.9-40.7,30.4-59.8c16.1-26.7,41.2-39.4,72.4-37.1
	c31.2,2.4,53.3,19.2,66.1,47.6c5.9,13,10.6,26.6,16.6,41.8c2-6.9,3.4-12.3,5.1-17.5c12.7-38.4,27.7-75.1,72.8-86.1h22.9
	c9,3.9,18.4,7,26.9,11.9c17.9,10.3,26.6,27.8,33.9,46.1c1.8,4.5,3.7,9.1,6,14.8c13.5,43,15.6,77.6,14.8,100.1
	c-1.3,35.6-29.8,64.3-65.4,65.7c-0.3,0-0.5,0-0.8,0c-23.2,0.7-46.5,0.8-69.5-1.6c-11.9-1.2-23.2-8.3-35.3-12.9
	c-1.2,2.9-2.9,7.6-5,12c-10.6,21.9-28.1,36.4-52.1,38c-29.5,2-59.3,1.2-88.9-0.2c-20.2-0.9-37.2-10.7-50.3-27.5
	c-1.9,1.8-3.7,3.1-5,4.7c-14.2,17-33.3,24.5-54.6,24.9c-26.6,0.5-53.3-0.3-79.8-2.5c-24.9-2.1-42.9-16.4-54.5-38.5
	c-33.9,25.5-72.1,21.1-109.6,17.4c-31.1-3.1-40.3-8.7-56.5-31.3c-2.7-3.7-4.2-8.2-4.3-12.8C106.1,424.9,105.8,367.8,119.5,322.9z"/>
<g>
	
		<linearGradient id="SVGID_5_" gradientUnits="userSpaceOnUse" x1="469.6975" y1="309.2666" x2="661.8036" y2="309.2666" gradientTransform="matrix(1 0 0 -1 0 721)">
		<stop  offset="0" style="stop-color:#905E02"/>
		<stop  offset="1" style="stop-color:#F0DA66"/>
	</linearGradient>
	<path class="st6" d="M566.7,508.6c15.9-0.9,29.3-1.6,42.8-2.5c4.5-0.3,8.9-1,13.3-1.8c22-4,38.9-18,39-34.9
		c0.2-42.6-7.8-84.3-31.3-123.5c-10.9-18.2-28.8-29.6-55.8-30.9c-27.5-1.4-47.3,8.3-61.6,25.7c-30.2,36.8-40.3,77.7-43.3,120
		c-1.6,23.7,15.6,39.8,46.7,43.7C533.9,506.4,551.4,507.3,566.7,508.6z"/>
	
		<linearGradient id="SVGID_6_" gradientUnits="userSpaceOnUse" x1="278.4398" y1="309.2311" x2="469.7715" y2="309.2311" gradientTransform="matrix(1 0 0 -1 0 721)">
		<stop  offset="0" style="stop-color:#905E02"/>
		<stop  offset="1" style="stop-color:#F0DA66"/>
	</linearGradient>
	<path class="st7" d="M377.2,508.8c16.9-1.3,32.6-1.8,48.1-3.8c29.2-3.8,45.7-20.3,44.4-42.9c-0.4-6.1-0.7-12.3-1.4-18.4
		c-3.7-33.8-11.3-66.9-30.2-98c-11.2-18.5-29.6-29.9-57-30.9c-25.7-0.9-44.9,8-58.4,24.2c-31.3,37.5-42,79.3-44.2,122.8
		c-1.2,22.6,15.6,38.6,45.1,42.3C341.6,506.3,360,507.3,377.2,508.8z"/>
	
		<linearGradient id="SVGID_7_" gradientUnits="userSpaceOnUse" x1="661.8" y1="331.973" x2="817.113" y2="331.973" gradientTransform="matrix(1 0 0 -1 0 721)">
		<stop  offset="0" style="stop-color:#905E02"/>
		<stop  offset="1" style="stop-color:#F0DA66"/>
	</linearGradient>
	<path class="st8" d="M738,475.4c14.2-1.3,29.8-2.2,45.1-4.5c20.6-3.1,34.5-16.2,34-32.7c-1.2-37.4-9.2-73.8-28.5-108
		c-9.2-16.3-23.9-26.8-46.5-27.5c-23-0.8-38.7,8.9-49.7,25c-23.7,34.6-30.5,72.4-30.6,111.3c0,17,14,29.6,34.3,32.5
		C709.4,473.4,723,474,738,475.4z"/>
	
		<linearGradient id="SVGID_8_" gradientUnits="userSpaceOnUse" x1="134.1847" y1="318.0674" x2="278.408" y2="318.0674" gradientTransform="matrix(1 0 0 -1 0 721)">
		<stop  offset="0" style="stop-color:#905E02"/>
		<stop  offset="1" style="stop-color:#F0DA66"/>
	</linearGradient>
	<path class="st9" d="M278.3,438c-2.6-34.7-10-68.2-30.3-98.6c-10-15-24.4-23.3-44.2-22.6c-19.2,0.7-33,9.5-41.5,24.8
		c-19.5,34.8-26.8,72.2-28.1,110.7c-0.5,15.4,11.3,28.7,28,32.1c28.5,5.8,57.4,6.4,86.1,0.9c17.5-3.4,28.8-15.9,29.9-32
		C278.6,448.2,278.3,443.1,278.3,438z"/>
	
		<linearGradient id="SVGID_9_" gradientUnits="userSpaceOnUse" x1="840.2" y1="321.6" x2="840.2" y2="321.6" gradientTransform="matrix(1 0 0 -1 0 721)">
		<stop  offset="0" style="stop-color:#905E02"/>
		<stop  offset="1" style="stop-color:#F0DA66"/>
	</linearGradient>
	<path class="st10" d="M840.2,399.4"/>
</g>
<path class="st1" d="M569.4,467c-21.3,0-41.9-6.3-59.5-18.1l-11.4,16.8c20.9,14.1,45.4,21.6,70.8,21.6s49.9-7.5,70.8-21.6
	l-11.4-16.8C611.3,460.7,590.7,467,569.4,467z"/>
<g>
	<path class="st1" d="M396.6,519.2c-22.6,0-44.6-0.9-65.5-2.7c-23.5-2-42.8-14.2-56.1-35.5c-33.7,21.7-70.3,18.1-105.9,14.6
		l-2.2-0.2c-32.3-3.2-43.7-9.6-61.3-34.1c-3.5-4.9-5.4-10.6-5.6-16.5c-0.7-22.2-0.8-78.6,13-123.8l0.1-0.4l0.2-0.4
		c1.6-3.6,3.1-7.1,4.6-10.5c3.2-7.3,6.2-14.3,9.6-21.1c14.2-28.2,38-43.6,68.8-44.4c30.3-0.8,55,13.2,69.5,39.3
		c6.3,11.4,11.3,23.5,16.2,35.2c1.1,2.6,2.2,5.3,3.3,8c0.9-1.9,1.9-3.8,2.8-5.7c6.8-13.8,13.8-28.2,22.8-41.1
		c17.2-24.7,44.9-38.4,74.3-36.6c29.6,1.8,55.7,19,69.8,45.9c5.7,10.8,9.7,22.4,13.6,33.7c0.8,2.4,1.7,4.8,2.5,7.3
		c0.7-1.4,1.3-2.8,2-4.2c6.6-13.9,13.5-28.3,21.6-41.8c17.4-29,44.6-42.9,78.7-40.3c32.8,2.5,57.6,20.3,71.8,51.5
		c3.5,7.6,6.5,15.4,9.6,23.5c13.5-40.5,29.9-77.6,77.2-89.2l0.8-0.2h25.1l1.3,0.6c2.7,1.2,5.6,2.3,8.3,3.4c6.4,2.6,13,5.2,19.2,8.8
		c20.3,11.7,29.7,31.6,36.8,49.4c1.2,3,2.4,6,3.8,9.4l2.4,5.9c14,44.5,15.9,80.2,15.1,102.4c-0.7,18.9-8.4,36.8-21.8,50.2
		c-13.4,13.4-31.2,21.3-50.1,22H772c-19.4,0.6-44.9,1-70.5-1.6c-9.3-0.9-17.9-4.9-26.2-8.6c-1.5-0.7-3.1-1.4-4.6-2.1
		c-0.8,1.9-1.7,4-2.7,6c-12.5,25.7-32.5,40.1-57.7,41.8c-31.4,2.1-62.9,1.1-89.7-0.2c-19.3-0.9-36.6-9.3-50.5-24.4
		c-14.5,16.9-34.9,26.1-58.9,26.5C406.5,519.1,401.5,519.2,396.6,519.2z M279.4,461l3.7,7c11.2,21.4,27.7,33.1,49.1,34.9
		c25.1,2.1,51.7,3,79.2,2.5c20.7-0.4,37.3-7.9,49.5-22.5c1.3-1.5,2.6-2.7,4-3.8c0.5-0.5,1.1-0.9,1.7-1.5l5.4-5l4.5,5.8
		c12.3,15.7,27.5,24.1,45.3,24.9c26.3,1.2,57.4,2.2,88.1,0.2c25.4-1.7,39.3-19.5,46.4-34.2c1.4-2.9,2.7-6.1,3.7-8.6
		c0.4-1.1,0.8-2.1,1.2-3l2.5-6.1l6.1,2.3c4,1.5,7.8,3.3,11.6,5c7.7,3.5,14.9,6.8,22,7.5c24.7,2.5,49.7,2.1,68.6,1.5h0.8
		c31.9-1.2,57.7-27.2,58.9-59.2c0.8-21.1-1.1-55.1-14.4-97.6l-2.1-5.1c-1.4-3.4-2.6-6.4-3.8-9.4c-8.1-20-16.1-34.1-31-42.7
		c-5.4-3.1-11.3-5.5-17.5-8c-2.4-1-4.9-2-7.4-3h-20.7c-40.6,10.3-54.5,43-67.2,81.5c-1.1,3.4-2.1,6.8-3.2,10.8
		c-0.6,2-1.2,4.2-1.8,6.5l-5.5,19l-7.3-18.4c-1.9-4.9-3.7-9.6-5.5-14.2c-3.6-9.6-7.1-18.6-11-27.2c-12.2-26.8-32.5-41.5-60.5-43.6
		c-28.6-2.1-51.4,9.5-66,33.8c-7.8,13-14.5,27-21,40.6c-2.9,6.2-6,12.5-9.1,18.7l-7.1,14.2l-5.3-14.9c-0.2-0.4-0.3-1-0.6-1.6
		c-0.5-1.5-1.2-3.6-2-5.6c-1.9-5.1-3.7-10.3-5.5-15.3c-3.9-11.3-7.6-21.9-12.8-31.8c-11.9-22.7-33.9-37.2-58.7-38.7
		c-24.6-1.5-47.9,10-62.3,30.8c-8.4,12.1-15.2,26-21.8,39.4c-3.1,6.2-6.2,12.7-9.6,19l-6.8,12.8l-5.5-13.3c-0.1-0.3-0.3-0.7-0.5-1.2
		c-0.5-1.3-1.2-3-2-4.7c-2.3-5.2-4.5-10.5-6.6-15.6c-4.7-11.4-9.6-23.1-15.5-33.8c-12.1-21.8-31.9-33-57.3-32.3
		c-25.9,0.7-45.1,13.1-57.1,36.9c-3.3,6.5-6.2,13.2-9.3,20.4c-1.4,3.3-2.9,6.7-4.5,10.2c-13.4,44.5-12.8,102.3-12.3,119.1
		c0.1,3.2,1.2,6.4,3.1,9c15.4,21.4,23.1,25.7,51.6,28.5l2.2,0.2c36.8,3.6,71.5,7.1,102.6-16.3L279.4,461z"/>
</g>
<g>
	
		<linearGradient id="SVGID_10_" gradientUnits="userSpaceOnUse" x1="851.0568" y1="455.25" x2="904.9596" y2="455.25" gradientTransform="matrix(1 0 0 -1 0 721)">
		<stop  offset="0" style="stop-color:#8E8E8E"/>
		<stop  offset="0.2899" style="stop-color:#D6D6D6"/>
		<stop  offset="0.5151" style="stop-color:#A2A2A2"/>
		<stop  offset="0.7385" style="stop-color:#D9D9D9"/>
		<stop  offset="0.7915" style="stop-color:#D1D1D1"/>
		<stop  offset="0.8718" style="stop-color:#BCBCBC"/>
		<stop  offset="0.969" style="stop-color:#9A9A9A"/>
		<stop  offset="1" style="stop-color:#8E8E8E"/>
	</linearGradient>
	<path class="st11" d="M851.1,269.1L851.1,269.1c0.5-4.3,5.3-8.4,10.6-9.1l34.5-4.3c5.3-0.7,9.3,2.3,8.7,6.7l0,0
		c-0.5,4.3-5.3,8.4-10.6,9.1l-34.5,4.3C854.5,276.5,850.6,273.5,851.1,269.1z"/>
	
		<linearGradient id="SVGID_11_" gradientUnits="userSpaceOnUse" x1="815.192" y1="502.9362" x2="843.208" y2="502.9362" gradientTransform="matrix(1 0 0 -1 0 721)">
		<stop  offset="0" style="stop-color:#8E8E8E"/>
		<stop  offset="0.2899" style="stop-color:#D6D6D6"/>
		<stop  offset="0.5151" style="stop-color:#A2A2A2"/>
		<stop  offset="0.7385" style="stop-color:#D9D9D9"/>
		<stop  offset="0.7915" style="stop-color:#D1D1D1"/>
		<stop  offset="0.8718" style="stop-color:#BCBCBC"/>
		<stop  offset="0.969" style="stop-color:#9A9A9A"/>
		<stop  offset="1" style="stop-color:#8E8E8E"/>
	</linearGradient>
	<path class="st12" d="M817.8,237.9L817.8,237.9c-2.9-2.8-3.5-8.3-1.2-12.2l14.6-25.4c2.3-3.9,6.5-4.9,9.4-2.1l0,0
		c2.9,2.8,3.5,8.3,1.2,12.2l-14.6,25.4C824.9,239.8,820.7,240.7,817.8,237.9z"/>
	
		<linearGradient id="SVGID_12_" gradientUnits="userSpaceOnUse" x1="841.6314" y1="486.4326" x2="884.6686" y2="486.4326" gradientTransform="matrix(1 0 0 -1 0 721)">
		<stop  offset="0" style="stop-color:#8E8E8E"/>
		<stop  offset="0.2899" style="stop-color:#D6D6D6"/>
		<stop  offset="0.5151" style="stop-color:#A2A2A2"/>
		<stop  offset="0.7385" style="stop-color:#D9D9D9"/>
		<stop  offset="0.7915" style="stop-color:#D1D1D1"/>
		<stop  offset="0.8718" style="stop-color:#BCBCBC"/>
		<stop  offset="0.969" style="stop-color:#9A9A9A"/>
		<stop  offset="1" style="stop-color:#8E8E8E"/>
	</linearGradient>
	<path class="st13" d="M844.7,254L844.7,254c-3.9-2.1-4.1-7-0.5-10.8l23.7-24.9c3.7-3.9,9.8-5.3,13.7-3.1l0,0
		c3.9,2.1,4.1,7,0.5,10.8l-23.7,24.9C854.8,254.7,848.6,256.1,844.7,254z"/>
</g>
<g>
	
		<linearGradient id="SVGID_13_" gradientUnits="userSpaceOnUse" x1="774.1942" y1="404.2489" x2="860.206" y2="404.2489" gradientTransform="matrix(1 0 0 -1 0 721)">
		<stop  offset="0" style="stop-color:#8E8E8E"/>
		<stop  offset="0.2899" style="stop-color:#D6D6D6"/>
		<stop  offset="0.5151" style="stop-color:#A2A2A2"/>
		<stop  offset="0.7385" style="stop-color:#D9D9D9"/>
		<stop  offset="0.7915" style="stop-color:#D1D1D1"/>
		<stop  offset="0.8718" style="stop-color:#BCBCBC"/>
		<stop  offset="0.969" style="stop-color:#9A9A9A"/>
		<stop  offset="1" style="stop-color:#8E8E8E"/>
	</linearGradient>
	<path class="st14" d="M815.7,271.9c12.2-0.4,10,20.8,18.1,29.1c7.6,7.8,26,2.3,26.4,14.3s-19.3,14.1-26.4,22.4
		c-7.5,8.9-2.8,23.5-15.1,23.9c-12.6,0.4-10.4-14.7-18.6-23.5c-7.2-7.7-25.5-8.3-25.9-19.9s19.8-10.7,26.4-18.9
		C808.1,290,803,272.4,815.7,271.9z"/>
</g>
<g>
	<path class="st1" d="M819.1,376.8l-6.4-12c-9.4-17.6-24.1-32-41.5-40.6l-11.2-5.5l10.8-6.3c16.8-9.7,30.5-25.1,38.8-43.2l5.6-12.4
		l6.4,12c9.4,17.6,24.1,32,41.5,40.6l11.2,5.5l-10.8,6.3c-16.8,9.7-30.5,25.1-38.8,43.2L819.1,376.8z M787,317.8
		c12.3,7.8,22.8,18,31.1,30.2c7.5-12.7,17.4-23.6,29.1-32.2c-12.3-7.8-22.8-18-31.1-30.2C808.6,298.3,798.7,309.2,787,317.8z"/>
</g>
</svg>
