<?xml version="1.0" encoding="utf-8"?>
<!-- Generator: Adobe Illustrator 24.1.3, SVG Export Plug-In . SVG Version: 6.00 Build 0)  -->
<svg version="1.1" id="Capa_1" xmlns="http://www.w3.org/2000/svg" xmlns:xlink="http://www.w3.org/1999/xlink" x="0px" y="0px"
	 viewBox="0 0 983.9 721.4" style="enable-background:new 0 0 983.9 721.4;" xml:space="preserve">
<style type="text/css">
	.st0{fill:url(#SVGID_1_);}
	.st1{fill:#FFFFFF;}
	.st2{fill:url(#SVGID_2_);}
	.st3{fill:url(#SVGID_3_);}
	.st4{fill:url(#SVGID_4_);}
	.st5{fill:url(#SVGID_5_);}
	.st6{fill:url(#SVGID_6_);}
	.st7{fill:url(#SVGID_7_);}
	.st8{fill:url(#SVGID_8_);}
	.st9{fill:url(#SVGID_9_);}
	.st10{fill:#171717;}
</style>
<linearGradient id="SVGID_1_" gradientUnits="userSpaceOnUse" x1="496.4243" y1="270.853" x2="873.4299" y2="270.853">
	<stop  offset="0" style="stop-color:#8E8E8E"/>
	<stop  offset="0.2899" style="stop-color:#D6D6D6"/>
	<stop  offset="0.5151" style="stop-color:#A2A2A2"/>
	<stop  offset="0.7385" style="stop-color:#D9D9D9"/>
	<stop  offset="0.7915" style="stop-color:#D1D1D1"/>
	<stop  offset="0.8718" style="stop-color:#BCBCBC"/>
	<stop  offset="0.969" style="stop-color:#9A9A9A"/>
	<stop  offset="1" style="stop-color:#8E8E8E"/>
</linearGradient>
<path class="st0" d="M863.1,165.9c-5.7,0-10.4-4.4-10.4-9.7s4.6-9.7,10.4-9.7s10.4,4.4,10.4,9.7S868.8,165.9,863.1,165.9z
	 M784.4,156.1c0-5.4-4.6-9.7-10.4-9.7s-10.4,4.4-10.4,9.7s4.6,9.7,10.4,9.7S784.4,161.5,784.4,156.1z M695.3,156.1
	c0-5.4-4.6-9.7-10.4-9.7s-10.4,4.4-10.4,9.7s4.6,9.7,10.4,9.7S695.3,161.5,695.3,156.1z M606.2,156.1c0-5.4-4.6-9.7-10.4-9.7
	c-5.7,0-10.4,4.4-10.4,9.7s4.6,9.7,10.4,9.7C601.6,165.9,606.2,161.5,606.2,156.1z M517.1,156.1c0-5.4-4.6-9.7-10.4-9.7
	c-5.7,0-10.4,4.4-10.4,9.7s4.6,9.7,10.4,9.7C512.5,165.9,517.1,161.5,517.1,156.1z M873.4,232.6c0-5.4-4.6-9.7-10.4-9.7
	s-10.4,4.4-10.4,9.7s4.6,9.7,10.4,9.7S873.4,238,873.4,232.6z M784.4,232.6c0-5.4-4.6-9.7-10.4-9.7s-10.4,4.4-10.4,9.7
	s4.6,9.7,10.4,9.7S784.4,238,784.4,232.6z M695.3,232.6c0-5.4-4.6-9.7-10.4-9.7s-10.4,4.4-10.4,9.7s4.6,9.7,10.4,9.7
	S695.3,238,695.3,232.6z M606.2,232.6c0-5.4-4.6-9.7-10.4-9.7c-5.7,0-10.4,4.4-10.4,9.7s4.6,9.7,10.4,9.7
	C601.6,242.4,606.2,238,606.2,232.6z M517.1,232.6c0-5.4-4.6-9.7-10.4-9.7c-5.7,0-10.4,4.4-10.4,9.7s4.6,9.7,10.4,9.7
	C512.5,242.4,517.1,238,517.1,232.6z M873.4,309.1c0-5.4-4.6-9.7-10.4-9.7s-10.4,4.4-10.4,9.7c0,5.4,4.6,9.7,10.4,9.7
	S873.4,314.5,873.4,309.1z M784.4,309.1c0-5.4-4.6-9.7-10.4-9.7s-10.4,4.4-10.4,9.7c0,5.4,4.6,9.7,10.4,9.7S784.4,314.5,784.4,309.1
	z M695.3,309.1c0-5.4-4.6-9.7-10.4-9.7s-10.4,4.4-10.4,9.7c0,5.4,4.6,9.7,10.4,9.7S695.3,314.5,695.3,309.1z M606.2,309.1
	c0-5.4-4.6-9.7-10.4-9.7c-5.7,0-10.4,4.4-10.4,9.7c0,5.4,4.6,9.7,10.4,9.7C601.6,318.8,606.2,314.5,606.2,309.1z M517.1,309.1
	c0-5.4-4.6-9.7-10.4-9.7c-5.7,0-10.4,4.4-10.4,9.7c0,5.4,4.6,9.7,10.4,9.7C512.5,318.8,517.1,314.5,517.1,309.1z M873.4,385.6
	c0-5.4-4.6-9.7-10.4-9.7s-10.4,4.4-10.4,9.7c0,5.4,4.6,9.7,10.4,9.7S873.4,390.9,873.4,385.6z M784.4,385.6c0-5.4-4.6-9.7-10.4-9.7
	s-10.4,4.4-10.4,9.7c0,5.4,4.6,9.7,10.4,9.7S784.4,390.9,784.4,385.6z M695.3,385.6c0-5.4-4.6-9.7-10.4-9.7s-10.4,4.4-10.4,9.7
	c0,5.4,4.6,9.7,10.4,9.7S695.3,390.9,695.3,385.6z M606.2,385.6c0-5.4-4.6-9.7-10.4-9.7c-5.7,0-10.4,4.4-10.4,9.7
	c0,5.4,4.6,9.7,10.4,9.7C601.6,395.3,606.2,390.9,606.2,385.6z M517.1,385.6c0-5.4-4.6-9.7-10.4-9.7c-5.7,0-10.4,4.4-10.4,9.7
	c0,5.4,4.6,9.7,10.4,9.7C512.5,395.3,517.1,390.9,517.1,385.6z"/>
<path class="st1" d="M312.1,373.5c6.2,39.1-25.7,77-68.6,82.1c-41.2,4.9-78.3-22.9-82.9-62.5c-1.8-15.5-2.4-31-3.7-48.9l-3.4-49.7
	c0.1-3.9,4.7-10.3,8.4-11.3c46.4-12.4,93.1-12,139.6-0.7c3.5,0.9,8.1,6.4,8.3,9.9c0.8,17.9,0.4,35.8,0.4,56.3L312.1,373.5z"/>
<path class="st1" d="M462.5,372.7c1.8,25.2-7.3,51.9-29.2,68.4c-24.6,18.5-56.7,20.1-83.7,4.2c-26.1-15.4-34-39.1-36.8-75.4
	l0.1-19.5c0-20.5-0.2-40.2,0.3-59.9c0.1-2.5,3.6-6.6,6.2-7.3c48-11.7,95.9-11.5,143,1.9L462.5,372.7L462.5,372.7z"/>
<path class="st1" d="M628,370.3c8.1,41.3-20.6,79.3-64.7,85.1c-42.6,5.7-85.1-24.9-89.1-64.2l2.4-34.2c0-22.8-0.3-45,0.4-67.2
	c0.1-2.4,5.3-6,8.8-6.8c43.9-10.5,89.6-10.4,133.4,0.3c3.3,0.8,8.2,4.7,8.3,7.3c0.7,20,0.4,40,0.4,61.5L628,370.3z"/>
<path class="st1" d="M781.9,345.3c-1.9,19.7-1.9,37.4-5.6,54.2c-7.3,33.1-41.8,55.6-76.5,51.9c-34.4-3.7-61.5-32-62.9-65.8
	c-0.3-6.6,0-13.3,0-20.7l-1.7-16.2c0-20.6-0.3-40.4,0.4-60.2c0.1-2.3,5.3-5.6,8.7-6.5c43.9-10.4,87.8-9.8,131.7,0.9
	c7,1.7,9.5,4.8,9.4,12L781.9,345.3z"/>
<linearGradient id="SVGID_2_" gradientUnits="userSpaceOnUse" x1="190.9" y1="335.1075" x2="319.5211" y2="335.1075" gradientTransform="matrix(1 0 0 -1 0 721)">
	<stop  offset="0" style="stop-color:#905E02"/>
	<stop  offset="1" style="stop-color:#F0DA66"/>
</linearGradient>
<path class="st2" d="M318.9,392.4c5,30.3-20.8,59.7-55.4,63.6c-33.3,3.8-63.3-17.7-66.9-48.4c-1.4-12-1.9-24-3-37.9l-2.7-38.5
	c0.1-3.1,3.8-8,6.8-8.7c37.5-9.6,75.2-9.3,112.8-0.5c2.8,0.7,6.6,4.9,6.7,7.6c0.7,13.9,0.3,27.8,0.3,43.6L318.9,392.4z"/>
<linearGradient id="SVGID_3_" gradientUnits="userSpaceOnUse" x1="336.7499" y1="335.1089" x2="455.491" y2="335.1089" gradientTransform="matrix(1 0 0 -1 0 721)">
	<stop  offset="0" style="stop-color:#905E02"/>
	<stop  offset="1" style="stop-color:#F0DA66"/>
</linearGradient>
<path class="st3" d="M455.3,391.3c1.5,19.1-5.8,39.3-23.1,51.8c-19.5,14-44.9,15.2-66.3,3.2c-20.7-11.6-26.9-29.6-29.1-57.1v-14.7
	c0-15.5-0.2-30.5,0.2-45.3c0.1-1.9,2.9-5,4.9-5.5c38.1-8.9,76-8.7,113.3,1.4L455.3,391.3L455.3,391.3z"/>
<linearGradient id="SVGID_4_" gradientUnits="userSpaceOnUse" x1="487.9" y1="335.9204" x2="620.2627" y2="335.9204" gradientTransform="matrix(1 0 0 -1 0 721)">
	<stop  offset="0" style="stop-color:#905E02"/>
	<stop  offset="1" style="stop-color:#F0DA66"/>
</linearGradient>
<path class="st4" d="M619.1,388.9c6.9,33.8-17.6,64.8-55.2,69.6c-36.3,4.6-72.5-20.4-76-52.5l2-27.9c0-18.7-0.2-36.8,0.3-55
	c0.1-2,4.6-4.9,7.5-5.6c37.4-8.6,76.3-8.5,113.7,0.2c2.8,0.6,7,3.8,7.1,5.9c0.6,16.3,0.3,32.7,0.3,50.3L619.1,388.9z"/>
<linearGradient id="SVGID_5_" gradientUnits="userSpaceOnUse" x1="648.9604" y1="335.9939" x2="774.0123" y2="335.9939" gradientTransform="matrix(1 0 0 -1 0 721)">
	<stop  offset="0" style="stop-color:#905E02"/>
	<stop  offset="1" style="stop-color:#F0DA66"/>
</linearGradient>
<path class="st5" d="M771.2,371c-1.6,15.6-1.6,29.5-4.7,42.8c-6.1,26.2-34.8,44-63.7,41c-28.6-2.9-51.3-25.3-52.4-52
	c-0.2-5.2,0-10.5,0-16.4l-1.4-12.9c0-16.3-0.2-31.9,0.3-47.6c0.1-1.8,4.4-4.5,7.2-5.1c36.1-8.1,73.7-7.9,109.7,0.7
	c5.8,1.4,8,3.8,7.8,9.5L771.2,371z"/>
<linearGradient id="SVGID_6_" gradientUnits="userSpaceOnUse" x1="204.3106" y1="349.9437" x2="241.5106" y2="349.9437">
	<stop  offset="0" style="stop-color:#8E8E8E"/>
	<stop  offset="0.2899" style="stop-color:#D6D6D6"/>
	<stop  offset="0.5151" style="stop-color:#A2A2A2"/>
	<stop  offset="0.7385" style="stop-color:#D9D9D9"/>
	<stop  offset="0.7915" style="stop-color:#D1D1D1"/>
	<stop  offset="0.8718" style="stop-color:#BCBCBC"/>
	<stop  offset="0.969" style="stop-color:#9A9A9A"/>
	<stop  offset="1" style="stop-color:#8E8E8E"/>
</linearGradient>
<ellipse class="st6" cx="222.9" cy="349.9" rx="18.6" ry="20.9"/>
<linearGradient id="SVGID_7_" gradientUnits="userSpaceOnUse" x1="374.3" y1="361.2" x2="411.5" y2="361.2">
	<stop  offset="0" style="stop-color:#8E8E8E"/>
	<stop  offset="0.2899" style="stop-color:#D6D6D6"/>
	<stop  offset="0.5151" style="stop-color:#A2A2A2"/>
	<stop  offset="0.7385" style="stop-color:#D9D9D9"/>
	<stop  offset="0.7915" style="stop-color:#D1D1D1"/>
	<stop  offset="0.8718" style="stop-color:#BCBCBC"/>
	<stop  offset="0.969" style="stop-color:#9A9A9A"/>
	<stop  offset="1" style="stop-color:#8E8E8E"/>
</linearGradient>
<ellipse class="st7" cx="392.9" cy="361.2" rx="18.6" ry="20.9"/>
<linearGradient id="SVGID_8_" gradientUnits="userSpaceOnUse" x1="535" y1="361.2" x2="572.2" y2="361.2">
	<stop  offset="0" style="stop-color:#8E8E8E"/>
	<stop  offset="0.2899" style="stop-color:#D6D6D6"/>
	<stop  offset="0.5151" style="stop-color:#A2A2A2"/>
	<stop  offset="0.7385" style="stop-color:#D9D9D9"/>
	<stop  offset="0.7915" style="stop-color:#D1D1D1"/>
	<stop  offset="0.8718" style="stop-color:#BCBCBC"/>
	<stop  offset="0.969" style="stop-color:#9A9A9A"/>
	<stop  offset="1" style="stop-color:#8E8E8E"/>
</linearGradient>
<ellipse class="st8" cx="553.6" cy="361.2" rx="18.6" ry="20.9"/>
<linearGradient id="SVGID_9_" gradientUnits="userSpaceOnUse" x1="708.0832" y1="345.1" x2="745.2831" y2="345.1">
	<stop  offset="0" style="stop-color:#8E8E8E"/>
	<stop  offset="0.2899" style="stop-color:#D6D6D6"/>
	<stop  offset="0.5151" style="stop-color:#A2A2A2"/>
	<stop  offset="0.7385" style="stop-color:#D9D9D9"/>
	<stop  offset="0.7915" style="stop-color:#D1D1D1"/>
	<stop  offset="0.8718" style="stop-color:#BCBCBC"/>
	<stop  offset="0.969" style="stop-color:#9A9A9A"/>
	<stop  offset="1" style="stop-color:#8E8E8E"/>
</linearGradient>
<ellipse class="st9" cx="726.7" cy="345.1" rx="18.6" ry="20.9"/>
<path class="st10" d="M913.9,299.3c-2.2-4.1-7.3-5.7-11.5-3.5c-28.6,15.1-66.1,24.7-87,29.3l0.4-5.5c0.5-9.4,1.3-18.8,1.7-28.1
	c0.7-16.4-4.1-22.9-20.2-27.2c-49.2-13.2-98.5-13-148-1.3c-7.2,1.7-14.7,1.7-21.9,0c-47.4-11.2-96.8-11.3-144.2-0.2
	c-8.1,1.8-16.4,1.8-24.5-0.1c-47.3-11.2-96.6-11-143.9,0.5c-7.3,1.8-14.9,1.8-22.2,0c-49.4-12-98.6-11.9-147.7,1
	c-17.3,4.5-22,11.2-20.9,29.4c0.5,8.2,1.2,16.4,2,27.7c-20.9-6.7-39-13-57.4-18.1c-0.8-0.2-1.7-0.3-2.6-0.3
	c-7.2,0-10.8,9.4-5.2,13.9c0.6,0.5,1.3,0.9,2,1.2c17.6,6.6,35.5,12.2,53.6,17.2c8,2.2,11.6,5.9,11.8,14.4c0.5,15,1.5,30.1,3.2,45
	c6.1,53.5,56.4,88.7,109,76.8c28.5-6.4,49.5-23.1,64.9-47.9c38.1,66.4,125.1,67.6,164.1,0.5c20.3,30.6,47.6,49.5,85.2,49.7
	c37.4,0.2,64.7-18.4,85.2-50c2.7,4,4.4,6.7,6.2,9.4c22.6,33,59.3,47.4,97.2,38c36.7-9,62.7-39.2,67-78.3c1.5-12.1,2.3-24.4,2.3-36.6
	l0.7-10.6l0.3-2.5c20.3-4.1,63.3-14.4,96.7-32C914.4,308.5,916,303.4,913.9,299.3z M141.2,292c0.1-4,4.6-10.5,8.3-11.5
	c45.8-12.7,91.9-12.2,137.8-0.7c3.5,0.9,8,6.5,8.2,10c0.8,18.2,0.4,36.5,0.4,57.3l-40.8-4c-1.3-3.2-2.5-6.6-4-9.9
	c-9.8-22-36.9-26.4-51.5-7.4c-5.5,7.1-10.4,8-17.7,6.3c-3.2-0.8-6.4-1.4-9.6-2C140.9,324.2,140.6,324.2,141.2,292z M222.9,368.4
	c-11.7,0.1-13.6-9.1-13.5-18.8c0.1-9.9,2.4-18.5,14.2-18.1c11.1,0.4,13,8.8,12.8,18C236.7,359.3,234.4,368.3,222.9,368.4
	L222.9,368.4z M229.9,456.2c-40.7,5-77.2-23.3-81.8-63.7c-1.8-15.7-2.4-31.6-3.7-49.8c15.4,2.7,29.1,4.8,42.5,7.7
	c2.3,0.5,5.1,4.3,5.5,6.9c2.5,16.6,11.7,26.8,28.4,28.1c17,1.3,26.9-8.8,32.7-25.2c12.8,1.2,24.5,1.8,36,3.8c3.2,0.6,7.5,5.3,8,8.6
	c6.2,39.9-25.3,78.4-67.5,83.6H229.9z M432.3,441.4c-24.5,18.9-56.4,20.6-83.2,4.3c-26-15.8-38.2-44.8-32.5-79.6
	c7.3,0.6,13.8,1.5,20.3,1.6c12.4,0.1,21.5,1.7,28.4,15.8c8.9,18.2,37.3,18.5,47.1,1c7.1-12.6,15.9-13.5,27.4-12.7
	c6,0.4,12.1,0.1,17.6,0.1C464.6,396.8,454.2,424.5,432.3,441.4L432.3,441.4z M375.7,360.7c0-9.8,2.1-18.4,14-18.1
	c11.1,0.3,13,8.6,13.1,17.7c0.2,9.7-1.9,19.1-13.3,19.2C378.4,379.6,375.8,370.5,375.7,360.7z M461.4,354.3h-40.1
	c-2.2-5.1-3.9-10.5-6.8-15.1c-12.5-19.8-41.6-18.5-51.6,2.9c-4,8.6-8.6,10.8-17,9.7c-10.1-1.4-20.4-2-33.2-3.3
	c0-21-0.2-41.2,0.3-61.3c0.1-2.6,3.6-6.8,6.2-7.4c47.8-12,95.4-11.8,142.3,1.9L461.4,354.3z M480,286.1c0.1-2.5,5.3-6.2,8.7-7
	c43.5-10.8,89-10.7,132.5,0.3c3.3,0.8,8.2,4.8,8.2,7.4c0.7,20.5,0.4,41.1,0.4,63.1c-11.8,0.8-23.4,1.9-35,2.1c-2.7,0-7.1-2.7-8-5.2
	c-5.3-14-15.3-21.8-29.8-21.5c-15.3,0.3-24.8,9.4-29.3,24.2c-0.8,2.5-5.1,5.3-7.8,5.5c-13,0.6-26.1,0.3-40.3,0.3
	C479.6,331.6,479.3,308.9,480,286.1z M558.5,342.5c12.5,0.6,12.2,10.6,12.3,19.7c0.2,9.5-2.8,17.7-13.5,17.3
	c-11.5-0.4-13.7-9.4-13.1-19.2C543.9,350.3,546.7,342,558.5,342.5L558.5,342.5z M565.8,456.1c-42.4,5.8-84.5-25.6-88.5-65.9
	c-1.5-15.7,0.2-17.7,16.2-18c6.1-0.1,12.3,0.4,18.3-0.3c9.6-1,15.6,1.1,21.2,10.7c11.8,20.5,41.1,18.7,51.2-3.1
	c4.3-9.2,9.5-11.2,18.1-11c9.2,0.3,18.5,0.1,27.8,0.1C638.1,411.1,609.5,450.1,565.8,456.1L565.8,456.1z M647.3,285.5
	c0.1-2.4,5.4-5.9,8.9-6.8c45.1-10.9,90.1-10.3,135.1,0.9c7.2,1.8,9.8,5,9.6,12.6c-0.9,35.5-3.1,38.3-38.6,41.9c-3,0.3-8.2-1-9.2-3.1
	c-7.2-14.9-18.2-22.6-34.8-19.6c-14.4,2.6-21,11-26.2,32.7l-45.2,4.5C646.8,327.1,646.5,306.3,647.3,285.5L647.3,285.5z
	 M723.6,364.9c-10.4-0.3-13.1-8.3-13.1-18c0-9.9,2-18.7,13.4-19.1c12.1-0.4,13.5,9.1,13.4,19.4C738,356.6,735,365.2,723.6,364.9
	L723.6,364.9z M791.6,402c-7.5,34.8-42.8,58.3-78.4,54.4c-35.3-3.9-63.1-33.6-64.5-69c-0.3-6.9,0-13.9,0-21.7
	c14.2-1.5,27.2-3.3,40.2-3.9c3.1-0.1,7.5,3,9.4,5.9c7,10.3,16.7,15.5,28.7,14.2c13.2-1.4,22-9.1,26.4-22.2c1.1-3.2,4.7-7.1,7.9-7.9
	c10.8-2.7,22-4.2,36.2-6.7C795.4,365.9,795.4,384.4,791.6,402L791.6,402z"/>
</svg>
