<svg xmlns="http://www.w3.org/2000/svg" viewBox="0 0 983.93 721.38"><defs><style>.cls-1{opacity:0.1;}.cls-2{fill:#61b9be;}.cls-3{fill:#fff;}.cls-4{fill:#88cace;}.cls-5{fill:#ffc933;}.cls-6{opacity:0.3;}.cls-7{fill:#1f3d59;}</style></defs><g id="Capa_2" data-name="Capa 2"><g id="Capa_1-2" data-name="Capa 1"><g class="cls-1"><path class="cls-2" d="M886.68,217,41.87,467.4c-27.12,8-45.58,39.76-41.24,70.87h0c4.35,31.1,29.85,49.81,57,41.77L902.4,329.68c27.12-8,45.58-39.77,41.24-70.87h0C939.3,227.7,913.79,209,886.68,217Z"/><path class="cls-2" d="M932.09,2.07,150.48,233.69c-25.09,7.44-42.73,32.76-39.41,56.56h0c3.32,23.79,26.35,37.06,51.44,29.62L944.12,88.24c25.08-7.43,42.73-32.75,39.41-56.55h0C980.2,7.9,957.17-5.37,932.09,2.07Z"/><path class="cls-2" d="M111.64,426.24,703.9,250.72c15.5-4.59,26.05-22.72,23.57-40.5s-17.06-28.46-32.55-23.87L102.66,361.87c-15.5,4.59-26,22.72-23.57,40.5S96.15,430.83,111.64,426.24Z"/><path class="cls-2" d="M795.26,381.91l-625,185.23c-18.08,5.36-30.39,26.51-27.49,47.25s19.89,33.21,38,27.85L805.74,457c18.08-5.36,30.39-26.51,27.5-47.25S813.34,376.56,795.26,381.91Z"/><path class="cls-2" d="M153,426.08,773.31,242.25c7.75-2.29,13-11.36,11.78-20.24s-8.53-14.24-16.27-11.94L148.5,393.9c-7.75,2.3-13,11.36-11.78,20.25S145.24,428.38,153,426.08Z"/><path class="cls-2" d="M257.68,487.23c-7.75,2.29-13,11.36-11.78,20.25s8.52,14.23,16.27,11.93l435.66-129.1c7.74-2.3,13-11.36,11.78-20.25s-8.53-14.23-16.28-11.94Z"/><path class="cls-2" d="M917.57,438.3,72.76,688.66C65,691,59.74,700,61,708.91s8.52,14.23,16.27,11.93L922.06,470.49c7.75-2.3,13-11.37,11.78-20.25S925.31,436,917.57,438.3Z"/></g><path class="cls-3" d="M312.15,373.49c6.2,39.15-25.71,77-68.58,82.06-41.23,4.86-78.29-22.88-82.86-62.53-1.78-15.46-2.39-31-3.7-48.87l-3.39-49.73c.08-3.94,4.68-10.29,8.39-11.28,46.39-12.44,93.1-12,139.64-.69,3.52.85,8.12,6.35,8.29,9.86.84,17.89.39,35.83.39,56.26Z"/><path class="cls-3" d="M462.53,372.68c1.84,25.22-7.27,51.93-29.17,68.35-24.63,18.47-56.7,20.08-83.66,4.22-26.12-15.38-34-39.1-36.78-75.41l.06-19.47c0-20.53-.24-40.2.28-59.85.07-2.55,3.6-6.61,6.23-7.25,48.05-11.73,95.91-11.48,143,1.9v87.51Z"/><path class="cls-3" d="M628,370.3c8.13,41.34-20.64,79.26-64.71,85.13-42.63,5.67-85.09-24.92-89.1-64.21L476.57,357c0-22.83-.28-45,.4-67.23.07-2.42,5.34-6,8.76-6.82a284.22,284.22,0,0,1,133.38.25c3.31.8,8.21,4.68,8.3,7.25.69,20,.38,40,.38,61.47Z"/><path class="cls-3" d="M781.88,345.29C780,365,780,382.65,776.26,399.48c-7.31,33.13-41.77,55.61-76.46,51.86-34.39-3.72-61.52-32-62.93-65.81-.27-6.61,0-13.25,0-20.7l-1.68-16.23c0-20.57-.3-40.41.39-60.21.08-2.3,5.3-5.65,8.65-6.45,43.94-10.4,87.84-9.83,131.71.89,7,1.71,9.54,4.82,9.36,12Z"/><path class="cls-4" d="M318.93,392.35c5,30.32-20.78,59.66-55.42,63.57-33.32,3.77-63.26-17.73-66.95-48.44-1.44-12-1.94-24.05-3-37.86l-2.73-38.52c.06-3.06,3.78-8,6.78-8.74,37.48-9.64,75.23-9.28,112.83-.54,2.84.66,6.56,4.92,6.7,7.64.68,13.86.31,27.76.31,43.59Z"/><path class="cls-4" d="M455.33,391.25c1.46,19.1-5.76,39.33-23.11,51.77-19.52,14-44.93,15.21-66.29,3.19-20.7-11.65-26.94-29.61-29.14-57.11l0-14.74c0-15.55-.19-30.45.22-45.33.06-1.93,2.86-5,4.94-5.49,38.07-8.89,76-8.7,113.34,1.44v66.27Z"/><path class="cls-4" d="M619.07,388.93c6.93,33.8-17.59,64.82-55.15,69.61-36.34,4.64-72.53-20.38-75.95-52.5l2-27.94c0-18.67-.24-36.83.34-55,.07-2,4.56-4.92,7.47-5.58a252.24,252.24,0,0,1,113.68.21c2.82.65,7,3.82,7.07,5.93.59,16.34.33,32.71.33,50.25Z"/><path class="cls-4" d="M771.2,371.05c-1.59,15.61-1.59,29.53-4.68,42.83-6.09,26.19-34.79,43.95-63.69,41-28.64-2.94-51.25-25.31-52.42-52-.23-5.23,0-10.48,0-16.36L649,373.67c0-16.25-.24-31.93.33-47.59.07-1.82,4.42-4.46,7.21-5.09a243.39,243.39,0,0,1,109.71.7c5.84,1.35,7.95,3.81,7.8,9.5Z"/><ellipse class="cls-5" cx="237.26" cy="350.68" rx="18.64" ry="20.86"/><ellipse class="cls-5" cx="392.88" cy="361.19" rx="18.64" ry="20.86"/><ellipse class="cls-5" cx="553.6" cy="361.19" rx="18.64" ry="20.86"/><ellipse class="cls-5" cx="710.97" cy="347.34" rx="18.64" ry="20.86"/><g class="cls-6"><path class="cls-3" d="M763.4,444.16a5.65,5.65,0,1,1,5.66,5.64A5.66,5.66,0,0,1,763.4,444.16Z"/><path class="cls-3" d="M740.77,444.17a5.65,5.65,0,1,1,5.66,5.65A5.65,5.65,0,0,1,740.77,444.17Z"/><path class="cls-3" d="M718.14,444.19a5.65,5.65,0,1,1,5.66,5.64A5.66,5.66,0,0,1,718.14,444.19Z"/><path class="cls-3" d="M740.76,421.57a5.65,5.65,0,1,1,5.65,5.65A5.64,5.64,0,0,1,740.76,421.57Z"/><path class="cls-3" d="M718.13,421.59a5.65,5.65,0,1,1,5.65,5.64A5.66,5.66,0,0,1,718.13,421.59Z"/><path class="cls-3" d="M740.74,399a5.65,5.65,0,1,1,5.66,5.65A5.65,5.65,0,0,1,740.74,399Z"/><path class="cls-3" d="M718.11,399a5.65,5.65,0,1,1,5.66,5.64A5.65,5.65,0,0,1,718.11,399Z"/><path class="cls-3" d="M740.73,376.37a5.65,5.65,0,1,1,5.65,5.65A5.64,5.64,0,0,1,740.73,376.37Z"/><circle class="cls-3" cx="723.75" cy="376.39" r="5.65"/><path class="cls-3" d="M740.71,353.78a5.65,5.65,0,1,1,5.66,5.64A5.67,5.67,0,0,1,740.71,353.78Z"/><path class="cls-3" d="M718.08,353.79a5.65,5.65,0,1,1,5.66,5.65A5.65,5.65,0,0,1,718.08,353.79Z"/><path class="cls-3" d="M769,415.9a5.65,5.65,0,1,1-5.64,5.66A5.66,5.66,0,0,1,769,415.9Z"/><circle class="cls-3" cx="769.02" cy="398.92" r="5.65"/><circle class="cls-3" cx="769.01" cy="376.29" r="5.65"/><circle class="cls-3" cx="768.99" cy="353.66" r="5.65"/><path class="cls-3" d="M740.7,331.18a5.65,5.65,0,1,1,5.65,5.64A5.66,5.66,0,0,1,740.7,331.18Z"/><path class="cls-3" d="M718.07,331.19a5.65,5.65,0,1,1,5.65,5.65A5.64,5.64,0,0,1,718.07,331.19Z"/><path class="cls-3" d="M740.68,308.58a5.65,5.65,0,1,1,5.66,5.64A5.65,5.65,0,0,1,740.68,308.58Z"/><path class="cls-3" d="M718.05,308.59a5.65,5.65,0,1,1,5.66,5.65A5.65,5.65,0,0,1,718.05,308.59Z"/><path class="cls-3" d="M769,325.45a5.65,5.65,0,1,1-5.64,5.65A5.64,5.64,0,0,1,769,325.45Z"/><path class="cls-3" d="M769,302.81a5.65,5.65,0,1,1-5.65,5.66A5.65,5.65,0,0,1,769,302.81Z"/></g><path class="cls-7" d="M913.89,299.3a8.49,8.49,0,0,0-11.45-3.54c-28.64,15.12-66.08,24.69-87,29.25l.39-5.54c.51-9.39,1.29-18.75,1.69-28.14.71-16.4-4.08-22.94-20.15-27.24-49.2-13.17-98.48-13-148-1.34a47.94,47.94,0,0,1-21.87-.05,313.72,313.72,0,0,0-144.19-.16,54.41,54.41,0,0,1-24.45-.09,309.26,309.26,0,0,0-143.9.45,47.5,47.5,0,0,1-22.21,0c-49.38-12-98.55-11.91-147.7.95-17.33,4.53-22,11.22-20.93,29.37.5,8.22,1.17,16.44,2,27.72-20.93-6.72-39-13-57.41-18.09a9.87,9.87,0,0,0-2.56-.32c-7.19,0-10.79,9.38-5.23,13.94a7,7,0,0,0,2,1.18c17.56,6.61,35.54,12.18,53.63,17.19,8,2.23,11.56,5.9,11.84,14.37.5,15,1.51,30.07,3.22,45C137.67,447.7,188,482.89,240.6,471c28.48-6.44,49.53-23.07,64.93-47.93,38.1,66.44,125.05,67.59,164.11.5,20.3,30.56,47.56,49.45,85.17,49.67,37.44.22,64.68-18.41,85.15-50,2.65,4,4.39,6.71,6.2,9.35,22.64,33,59.3,47.39,97.15,38.05,36.67-9,62.69-39.24,67-78.31a299,299,0,0,0,2.32-36.59l.71-10.6.28-2.46c20.26-4.14,63.31-14.36,96.71-32A8.48,8.48,0,0,0,913.89,299.3ZM141.2,292c.08-4,4.62-10.48,8.28-11.5,45.77-12.67,91.86-12.21,137.78-.7,3.47.87,8,6.47,8.18,10.05.83,18.22.38,36.51.38,57.33l-40.8-4c-1.28-3.19-2.51-6.58-4-9.85-9.83-22-36.9-26.39-51.52-7.4-5.46,7.08-10.4,8-17.67,6.28-3.19-.75-6.43-1.36-9.65-2C140.86,324.22,140.56,324.22,141.2,292Zm81.7,76.43c-11.74.1-13.58-9.12-13.52-18.83.06-9.87,2.36-18.51,14.24-18.13,11.06.35,13,8.79,12.76,18C236.73,359.28,234.44,368.31,222.9,368.41Zm7,87.78c-40.68,4.95-77.24-23.33-81.75-63.74-1.76-15.74-2.36-31.62-3.66-49.79,15.43,2.69,29.06,4.78,42.52,7.69,2.29.49,5.12,4.27,5.51,6.86,2.49,16.63,11.67,26.82,28.35,28.12,17,1.33,26.92-8.76,32.68-25.23,12.76,1.23,24.5,1.78,36,3.84,3.19.57,7.53,5.29,8,8.61C303.74,412.45,272.25,451,230,456.19Zm202.43-14.85c-24.51,18.91-56.42,20.57-83.23,4.31-26-15.75-38.22-44.75-32.51-79.56,7.27.6,13.8,1.53,20.34,1.58,12.43.1,21.5,1.67,28.4,15.76,8.92,18.22,37.25,18.53,47.07,1.05,7.1-12.64,15.86-13.46,27.39-12.66,6,.41,12.06.07,17.64.07C464.58,396.81,454.16,424.52,432.38,441.34ZM375.74,360.7c0-9.78,2.06-18.4,14.05-18.1,11.07.28,13,8.61,13.11,17.71.16,9.68-1.94,19.07-13.32,19.17C378.35,379.58,375.75,370.48,375.74,360.7Zm85.65-6.44H421.25c-2.22-5.06-3.85-10.51-6.78-15.14-12.55-19.84-41.65-18.55-51.63,2.94-4,8.62-8.56,10.83-17,9.67-10.14-1.38-20.38-2-33.2-3.26,0-21-.23-41.18.29-61.31.06-2.61,3.58-6.76,6.2-7.42,47.79-12,95.4-11.77,142.29,1.94ZM480,286.07c.07-2.48,5.3-6.18,8.7-7a273.3,273.3,0,0,1,132.51.26c3.29.82,8.16,4.8,8.24,7.44.69,20.52.38,41.08.38,63.11-11.75.79-23.37,1.93-35,2.08-2.73,0-7.07-2.74-8-5.23-5.25-14.05-15.33-21.81-29.84-21.52-15.32.3-24.78,9.39-29.26,24.17-.75,2.47-5.06,5.34-7.84,5.46-13.05.57-26.15.26-40.29.26C479.57,331.65,479.29,308.85,480,286.07Zm78.52,56.44c12.46.57,12.16,10.63,12.32,19.67.17,9.45-2.78,17.67-13.54,17.32-11.54-.38-13.67-9.35-13.06-19.18C543.86,350.29,546.7,342,558.49,342.51Zm7.24,113.6c-42.36,5.83-84.54-25.58-88.53-65.92-1.55-15.71.24-17.72,16.19-18,6.1-.11,12.25.36,18.3-.26,9.59-1,15.6,1.06,21.21,10.74,11.85,20.48,41.11,18.67,51.24-3.07,4.29-9.18,9.54-11.21,18.09-11,9.24.27,18.5.07,27.78.07C638.09,411.15,609.51,450.09,565.73,456.11Zm81.5-170.58c.08-2.42,5.44-5.93,8.87-6.76,45.07-10.91,90.11-10.32,135.11.93,7.19,1.8,9.79,5.05,9.6,12.6-.87,35.53-3.07,38.27-38.58,41.93-3,.31-8.17-1-9.18-3.13-7.18-14.87-18.16-22.6-34.84-19.63-14.41,2.57-21,11-26.17,32.67l-45.22,4.53C646.82,327.1,646.52,306.3,647.23,285.53Zm76.34,79.39c-10.36-.27-13.11-8.34-13.1-17.95,0-9.91,2-18.73,13.42-19.1,12.1-.38,13.55,9.07,13.37,19.39C738,356.62,735.05,365.21,723.57,364.92Zm68,37.09c-7.5,34.75-42.85,58.31-78.44,54.38-35.27-3.89-63.11-33.58-64.55-69-.28-6.94,0-13.9,0-21.71,14.2-1.49,27.19-3.31,40.24-3.91,3.12-.14,7.47,3,9.44,5.91,7,10.31,16.67,15.52,28.71,14.24,13.24-1.39,22-9.15,26.37-22.16,1.08-3.22,4.72-7.06,7.87-7.85,10.85-2.72,22-4.21,36.17-6.72C795.38,365.9,795.38,384.37,791.58,402Z"/></g></g></svg>