<svg width="153" height="118" viewBox="0 0 153 118" fill="none" xmlns="http://www.w3.org/2000/svg">
<circle cx="73.7003" cy="57.6437" r="56.9343" fill="#EEECEC"/>
<g clip-path="url(#clip0)">
<g opacity="0.1">
<path opacity="0.1" d="M137.875 39.2213L6.51513 78.018C2.30129 79.2575 -0.575323 84.1845 0.108844 89.0031C0.777461 93.8217 4.74252 96.7191 8.97191 95.4795L140.332 56.6829C144.546 55.4434 147.422 50.5163 146.738 45.6977C146.054 40.8791 142.089 37.9818 137.875 39.2213Z" fill="#61B9BE"/>
<path opacity="0.1" d="M144.935 5.92499L23.4016 41.8088C19.4988 42.9553 16.7621 46.8908 17.2752 50.5783C17.7883 54.2659 21.3802 56.3265 25.2675 55.1645L146.8 19.2652C150.703 18.1187 153.44 14.1832 152.927 10.4957C152.414 6.82363 148.837 4.76294 144.935 5.92499Z" fill="#61B9BE"/>
<path opacity="0.1" d="M17.353 71.6344L109.451 44.4427C111.861 43.73 113.494 40.9256 113.121 38.1677C112.732 35.4098 110.462 33.7519 108.067 34.4646L15.9691 61.6719C13.559 62.3846 11.9263 65.189 12.2995 67.9469C12.6882 70.6893 14.9428 72.3471 17.353 71.6344Z" fill="#61B9BE"/>
<path opacity="0.1" d="M123.663 64.7707L26.4803 93.4653C23.6659 94.302 21.7534 97.5712 22.2043 100.778C22.6552 103.986 25.2986 105.922 28.113 105.086L125.296 76.3911C128.11 75.5544 130.023 72.2852 129.572 69.078C129.105 65.8707 126.462 63.9495 123.663 64.7707Z" fill="#61B9BE"/>
<g opacity="0.1">
<g opacity="0.1">
<path opacity="0.1" d="M23.7903 71.6189L120.242 43.1412C121.44 42.7848 122.264 41.3749 122.077 40.0114C121.89 38.6325 120.755 37.8113 119.543 38.1676L23.0906 66.6299C21.8933 66.9862 21.0692 68.3962 21.2558 69.7596C21.4579 71.1386 22.5774 71.9753 23.7903 71.6189Z" fill="#61B9BE"/>
<path opacity="0.1" d="M40.0704 81.0858C38.8731 81.4421 38.049 82.8521 38.2356 84.2155C38.4222 85.5945 39.5573 86.4157 40.7701 86.0593L108.518 66.0567C109.715 65.7003 110.54 64.2904 110.353 62.9269C110.166 61.548 109.031 60.7268 107.818 61.0832L40.0704 81.0858Z" fill="#61B9BE"/>
<path opacity="0.1" d="M142.68 73.5092L11.3198 112.306C10.107 112.662 9.28287 114.057 9.48501 115.436C9.6716 116.815 10.8067 117.636 12.0195 117.279L143.38 78.4827C144.577 78.1264 145.401 76.7164 145.214 75.353C145.012 73.974 143.877 73.1528 142.68 73.5092Z" fill="#61B9BE"/>
</g>
</g>
</g>
<path d="M48.5447 63.4694C49.5088 69.5275 44.5486 75.3997 37.8779 76.1898C31.4717 76.949 25.7029 72.6417 24.9876 66.5062C24.7077 64.1046 24.6144 61.7031 24.4123 58.9297L23.8836 51.2292C23.8992 50.625 24.6144 49.6334 25.1898 49.4784C32.4046 47.5572 39.6661 47.6192 46.8965 49.37C47.4407 49.5094 48.156 50.3461 48.1871 50.9039C48.3115 53.6773 48.2493 56.4507 48.2493 59.6269L48.5447 63.4694Z" fill="white"/>
<path d="M71.9153 63.3453C72.1952 67.2498 70.7802 71.3866 67.3749 73.9431C63.5498 76.8095 58.5585 77.0574 54.3602 74.5939C50.3018 72.2078 49.0734 68.5358 48.638 62.9115L48.6536 59.8902C48.6536 56.7139 48.6225 53.6616 48.7002 50.6093C48.7158 50.222 49.26 49.5867 49.6643 49.4783C57.1279 47.6655 64.576 47.6965 71.8997 49.7727C71.8997 53.5222 71.8997 57.0548 71.8997 60.7578V63.3453H71.9153Z" fill="white"/>
<path d="M97.6493 62.9735C98.9087 69.3725 94.4461 75.2602 87.5889 76.1588C80.9649 77.042 74.3565 72.3009 73.7345 66.2118L74.1077 60.9129C74.1077 57.3803 74.061 53.9406 74.1699 50.501C74.1854 50.1291 74.994 49.5714 75.5382 49.4474C82.4421 47.8205 89.3771 47.836 96.2809 49.4939C96.794 49.6178 97.556 50.2221 97.5715 50.6094C97.6803 53.7082 97.6337 56.807 97.6337 60.1382L97.6493 62.9735Z" fill="white"/>
<path d="M121.58 59.1001C121.284 62.1678 121.284 64.8948 120.709 67.4977C119.574 72.6262 114.209 76.1123 108.814 75.5391C103.465 74.9658 99.2508 70.581 99.0332 65.3441C98.9865 64.3215 99.0332 63.2834 99.0332 62.1369L98.7688 59.6269C98.7688 56.4351 98.7222 53.3673 98.831 50.2995C98.8466 49.9432 99.6551 49.4164 100.184 49.3079C107.01 47.6966 113.836 47.7895 120.662 49.4474C121.751 49.7108 122.139 50.1911 122.124 51.3066L121.58 59.1001Z" fill="white"/>
<path d="M49.5866 66.3829C50.364 71.0775 46.3523 75.6327 40.9723 76.237C35.7944 76.8258 31.1296 73.4946 30.5543 68.738C30.3366 66.8787 30.2589 65.0194 30.0878 62.8658L29.668 56.9006C29.6835 56.4203 30.2589 55.6611 30.7253 55.5527C36.5563 54.0653 42.4184 54.1117 48.2649 55.4752C48.7003 55.5837 49.2911 56.2344 49.3067 56.6527C49.4155 58.8064 49.3533 60.96 49.3533 63.4081L49.5866 66.3829Z" fill="#88CACE"/>
<path d="M70.7957 66.2118C71.029 69.1711 69.8939 72.3009 67.2039 74.2376C64.1718 76.4067 60.2223 76.5927 56.8947 74.7334C53.676 72.9361 52.712 70.1472 52.3699 65.8864V63.6088C52.3699 61.2073 52.3388 58.8987 52.401 56.5901C52.4165 56.2957 52.8519 55.8154 53.1629 55.7379C59.0872 54.359 64.9803 54.39 70.7802 55.9548C70.7802 58.7902 70.7802 61.4707 70.7802 64.275V66.2118H70.7957Z" fill="#88CACE"/>
<path d="M96.2654 65.8553C97.3383 71.0923 93.5288 75.8954 87.6822 76.6391C82.0379 77.3518 76.409 73.4783 75.8803 68.5048L76.1913 64.182C76.1913 61.2847 76.1602 58.4803 76.238 55.6604C76.2535 55.3505 76.9532 54.9012 77.4042 54.7927C83.2973 53.4603 89.1905 53.4757 95.0837 54.8237C95.5191 54.9322 96.1721 55.4125 96.1877 55.7379C96.281 58.2634 96.2343 60.8043 96.2343 63.5313L96.2654 65.8553Z" fill="#88CACE"/>
<path d="M119.916 63.0975C119.667 65.5146 119.667 67.6682 119.185 69.7289C118.236 73.7883 113.774 76.5462 109.28 76.0814C104.833 75.632 101.319 72.1614 101.132 68.0246C101.101 67.2189 101.132 66.3977 101.132 65.4836L100.915 63.5004C100.915 60.9749 100.884 58.5578 100.961 56.1253C100.977 55.8464 101.645 55.4281 102.081 55.3351C107.772 54.0646 113.463 54.1266 119.138 55.4436C120.04 55.6605 120.382 56.0323 120.351 56.9155L119.916 63.0975Z" fill="#88CACE"/>
<path d="M36.8984 63.1749C38.4957 63.1749 39.7905 61.7251 39.7905 59.9367C39.7905 58.1483 38.4957 56.6985 36.8984 56.6985C35.3011 56.6985 34.0062 58.1483 34.0062 59.9367C34.0062 61.7251 35.3011 63.1749 36.8984 63.1749Z" fill="#FFC933"/>
<path d="M61.093 64.8016C62.6903 64.8016 63.9851 63.3518 63.9851 61.5634C63.9851 59.775 62.6903 58.3252 61.093 58.3252C59.4957 58.3252 58.2008 59.775 58.2008 61.5634C58.2008 63.3518 59.4957 64.8016 61.093 64.8016Z" fill="#FFC933"/>
<path d="M86.0806 64.8016C87.6779 64.8016 88.9728 63.3518 88.9728 61.5634C88.9728 59.775 87.6779 58.3252 86.0806 58.3252C84.4833 58.3252 83.1885 59.775 83.1885 61.5634C83.1885 63.3518 84.4833 64.8016 86.0806 64.8016Z" fill="#FFC933"/>
<path d="M110.555 62.6481C112.152 62.6481 113.447 61.1983 113.447 59.4099C113.447 57.6214 112.152 56.1716 110.555 56.1716C108.958 56.1716 107.663 57.6214 107.663 59.4099C107.663 61.1983 108.958 62.6481 110.555 62.6481Z" fill="#FFC933"/>
<g opacity="0.3">
<path opacity="0.3" d="M118.703 74.4234C118.703 73.9431 119.092 73.5403 119.574 73.5403C120.056 73.5403 120.46 73.9276 120.46 74.4079C120.46 74.8883 120.071 75.2911 119.589 75.2911C119.092 75.2911 118.703 74.9037 118.703 74.4234Z" fill="white"/>
<path opacity="0.3" d="M115.189 74.4234C115.189 73.9431 115.578 73.5403 116.06 73.5403C116.542 73.5403 116.946 73.9276 116.946 74.4079C116.946 74.8883 116.557 75.2911 116.075 75.2911C115.578 75.2911 115.189 74.9037 115.189 74.4234Z" fill="white"/>
<path opacity="0.3" d="M111.659 74.4234C111.659 73.9431 112.048 73.5403 112.53 73.5403C113.012 73.5403 113.416 73.9276 113.416 74.4079C113.416 74.8883 113.027 75.2911 112.545 75.2911C112.063 75.2911 111.659 74.9037 111.659 74.4234Z" fill="white"/>
<path opacity="0.3" d="M115.189 70.9217C115.189 70.4414 115.578 70.0386 116.06 70.0386C116.542 70.0386 116.946 70.4259 116.946 70.9062C116.946 71.3865 116.557 71.7894 116.075 71.7894C115.578 71.7894 115.189 71.402 115.189 70.9217Z" fill="white"/>
<path opacity="0.3" d="M111.659 70.9217C111.659 70.4414 112.048 70.0386 112.53 70.0386C113.012 70.0386 113.416 70.4259 113.416 70.9062C113.416 71.3865 113.027 71.7894 112.545 71.7894C112.063 71.7894 111.659 71.402 111.659 70.9217Z" fill="white"/>
<path opacity="0.3" d="M115.173 67.4203C115.173 66.94 115.562 66.5371 116.044 66.5371C116.526 66.5371 116.93 66.9245 116.93 67.4048C116.93 67.8851 116.542 68.2879 116.06 68.2879C115.577 68.2879 115.173 67.9006 115.173 67.4203Z" fill="white"/>
<path opacity="0.3" d="M111.659 67.4203C111.659 66.94 112.048 66.5371 112.53 66.5371C113.012 66.5371 113.416 66.9245 113.416 67.4048C113.416 67.8851 113.027 68.2879 112.545 68.2879C112.048 68.2879 111.659 67.9006 111.659 67.4203Z" fill="white"/>
<path opacity="0.3" d="M115.173 63.9185C115.173 63.4382 115.562 63.0354 116.044 63.0354C116.526 63.0354 116.93 63.4227 116.93 63.9031C116.93 64.3834 116.542 64.7862 116.06 64.7862C115.577 64.7862 115.173 64.3989 115.173 63.9185Z" fill="white"/>
<path opacity="0.3" d="M112.53 64.7864C113.011 64.7864 113.401 64.3979 113.401 63.9187C113.401 63.4395 113.011 63.051 112.53 63.051C112.049 63.051 111.659 63.4395 111.659 63.9187C111.659 64.3979 112.049 64.7864 112.53 64.7864Z" fill="white"/>
<path opacity="0.3" d="M115.173 60.4171C115.173 59.9368 115.562 59.5339 116.044 59.5339C116.526 59.5339 116.93 59.9213 116.93 60.4016C116.93 60.8819 116.542 61.2847 116.06 61.2847C115.562 61.2847 115.173 60.8974 115.173 60.4171Z" fill="white"/>
<path opacity="0.3" d="M111.659 60.4171C111.659 59.9368 112.048 59.5339 112.53 59.5339C113.012 59.5339 113.416 59.9213 113.416 60.4016C113.416 60.8819 113.027 61.2847 112.545 61.2847C112.048 61.2847 111.659 60.8974 111.659 60.4171Z" fill="white"/>
<path opacity="0.3" d="M119.574 70.0386C120.056 70.0386 120.46 70.4259 120.46 70.9062C120.46 71.3865 120.071 71.7894 119.589 71.7894C119.107 71.7894 118.703 71.402 118.703 70.9217C118.703 70.4259 119.092 70.0386 119.574 70.0386Z" fill="white"/>
<path opacity="0.3" d="M119.574 68.2724C120.055 68.2724 120.444 67.884 120.444 67.4048C120.444 66.9256 120.055 66.5371 119.574 66.5371C119.093 66.5371 118.703 66.9256 118.703 67.4048C118.703 67.884 119.093 68.2724 119.574 68.2724Z" fill="white"/>
<path opacity="0.3" d="M119.574 64.7707C120.055 64.7707 120.444 64.3822 120.444 63.903C120.444 63.4239 120.055 63.0354 119.574 63.0354C119.093 63.0354 118.703 63.4239 118.703 63.903C118.703 64.3822 119.093 64.7707 119.574 64.7707Z" fill="white"/>
<path opacity="0.3" d="M119.574 61.2692C120.055 61.2692 120.444 60.8808 120.444 60.4016C120.444 59.9224 120.055 59.5339 119.574 59.5339C119.093 59.5339 118.703 59.9224 118.703 60.4016C118.703 60.8808 119.093 61.2692 119.574 61.2692Z" fill="white"/>
<path opacity="0.3" d="M115.173 56.9154C115.173 56.4351 115.562 56.0322 116.044 56.0322C116.526 56.0322 116.93 56.4196 116.93 56.8999C116.93 57.3802 116.542 57.783 116.06 57.783C115.562 57.783 115.173 57.3957 115.173 56.9154Z" fill="white"/>
<path opacity="0.3" d="M111.659 56.9154C111.659 56.4351 112.048 56.0322 112.53 56.0322C113.012 56.0322 113.416 56.4196 113.416 56.8999C113.416 57.3802 113.027 57.783 112.545 57.783C112.048 57.783 111.659 57.3957 111.659 56.9154Z" fill="white"/>
<path opacity="0.3" d="M115.173 53.4139C115.173 52.9336 115.562 52.5308 116.044 52.5308C116.526 52.5308 116.93 52.9181 116.93 53.3984C116.93 53.8787 116.542 54.2816 116.06 54.2816C115.562 54.2816 115.173 53.8942 115.173 53.4139Z" fill="white"/>
<path opacity="0.3" d="M111.659 53.4156C111.659 52.9353 112.048 52.5325 112.53 52.5325C113.012 52.5325 113.416 52.9198 113.416 53.4001C113.416 53.8804 113.027 54.2833 112.545 54.2833C112.048 54.2833 111.659 53.8959 111.659 53.4156Z" fill="white"/>
<path opacity="0.3" d="M119.574 56.0166C120.056 56.0166 120.46 56.404 120.46 56.8843C120.46 57.3646 120.071 57.7674 119.589 57.7674C119.107 57.7674 118.703 57.3801 118.703 56.8998C118.687 56.4194 119.092 56.0166 119.574 56.0166Z" fill="white"/>
<path opacity="0.3" d="M119.574 52.5151C120.056 52.5151 120.46 52.9025 120.46 53.3828C120.46 53.8631 120.071 54.266 119.589 54.266C119.107 54.266 118.703 53.8786 118.703 53.3983C118.687 52.9025 119.076 52.5151 119.574 52.5151Z" fill="white"/>
</g>
<path d="M142.104 51.9728C141.762 51.3376 140.969 51.0897 140.332 51.4305C135.885 53.7701 130.054 55.2575 126.804 55.9548L126.866 55.1026C126.944 53.6462 127.068 52.2052 127.131 50.7488C127.239 48.2078 126.493 47.2007 124.005 46.5345C116.355 44.4893 108.689 44.5203 100.992 46.3331C99.8727 46.5965 98.7065 46.581 97.587 46.3331C90.1078 44.5823 82.6597 44.5978 75.165 46.3021C73.9211 46.5965 72.6149 46.581 71.371 46.2866C63.8918 44.5668 56.4593 44.5823 48.9956 46.3641C47.8605 46.6274 46.6788 46.6429 45.5437 46.3641C37.8624 44.5048 30.2121 44.5203 22.5775 46.5035C19.8875 47.2007 19.1566 48.2388 19.3277 51.0587C19.4054 52.3292 19.5143 53.5997 19.6387 55.3505C16.3889 54.3124 13.5745 53.3363 10.7134 52.5461C10.589 52.5151 10.4491 52.4996 10.3091 52.4996C9.18958 52.4996 8.6298 53.9561 9.50056 54.6533C9.59386 54.7307 9.7027 54.7927 9.81155 54.8392C12.5482 55.8618 15.3315 56.7295 18.1459 57.5041C19.3899 57.845 19.9497 58.4183 19.9807 59.7353C20.0585 62.0593 20.214 64.3989 20.4783 66.7075C21.4268 74.9967 29.2481 80.4506 37.4425 78.6068C41.8741 77.6152 45.1394 75.0277 47.534 71.1852C53.4583 81.4732 66.9861 81.6591 73.0503 71.2627C76.2068 76.0038 80.4517 78.9167 86.2983 78.9632C92.1137 78.9941 96.3586 76.1123 99.5307 71.2162C99.9505 71.836 100.215 72.2543 100.495 72.6572C104.009 77.7701 109.715 80.0012 115.593 78.5603C121.3 77.1659 125.342 72.4867 126.011 66.4286C126.213 64.5539 126.4 62.6481 126.369 60.7579L126.477 59.1155L126.524 58.7282C129.681 58.0929 136.367 56.497 141.56 53.7701C142.198 53.4138 142.447 52.6081 142.104 51.9728ZM21.9555 50.8418C21.9711 50.222 22.6708 49.2149 23.2461 49.06C30.3676 47.0923 37.5358 47.1697 44.6729 48.9515C45.2172 49.091 45.9169 49.9586 45.948 50.5009C46.0724 53.3208 46.0102 56.1562 46.0102 59.3789C43.8333 59.162 41.8119 58.9761 39.6661 58.7592C39.4639 58.2633 39.2774 57.7366 39.0441 57.2407C37.5203 53.8321 33.3064 53.1504 31.0363 56.0942C30.1811 57.1943 29.4191 57.3337 28.284 57.0703C27.7865 56.9464 27.2889 56.8534 26.7758 56.7604C21.9089 55.8308 21.8622 55.8308 21.9555 50.8418ZM34.6592 62.6791C32.84 62.6946 32.5445 61.2692 32.5601 59.7663C32.5756 58.2324 32.9333 56.8999 34.7681 56.9619C36.494 57.0238 36.7895 58.3253 36.7584 59.7508C36.805 61.2692 36.4474 62.6636 34.6592 62.6791ZM35.7632 76.2827C29.4347 77.0574 23.7592 72.6726 23.0439 66.4131C22.7641 63.9806 22.6708 61.5171 22.4686 58.6972C24.8632 59.1155 26.9935 59.4409 29.0771 59.8902C29.4347 59.9677 29.8701 60.5564 29.9323 60.9593C30.321 63.5313 31.7515 65.1116 34.3482 65.3131C36.9761 65.5145 38.531 63.9496 39.4328 61.4086C41.4232 61.5945 43.2424 61.6875 45.0306 61.9974C45.5282 62.0903 46.1968 62.8185 46.2745 63.3298C47.223 69.4964 42.325 75.477 35.7632 76.2827ZM67.2349 73.9741C63.4253 76.9025 58.4651 77.1659 54.2979 74.6404C50.2551 72.1923 48.3581 67.6991 49.2444 62.3072C50.3795 62.4002 51.3902 62.5397 52.4009 62.5551C54.329 62.5706 55.744 62.8185 56.8169 65.0032C58.2008 67.8231 62.6168 67.8695 64.1406 65.1736C65.2446 63.2214 66.6129 63.0819 68.4011 63.2059C69.334 63.2679 70.2825 63.2214 71.1377 63.2214C72.2417 67.0794 70.6246 71.3712 67.2349 73.9741ZM58.4185 61.4861C58.4185 59.9677 58.745 58.6352 60.6109 58.6817C62.3369 58.7282 62.6323 60.0142 62.6479 61.4241C62.679 62.927 62.3524 64.3834 60.5798 64.3989C58.8228 64.4144 58.434 63.0045 58.4185 61.4861ZM71.7442 60.4945C69.5673 60.4945 67.5459 60.4945 65.5089 60.4945C65.1668 59.7043 64.9025 58.8676 64.4516 58.1549C62.5079 55.0871 57.9675 55.2885 56.4282 58.6042C55.8062 59.9367 55.0909 60.2775 53.7848 60.1071C52.2143 59.8902 50.6128 59.7972 48.6225 59.5958C48.6225 56.3421 48.5914 53.2123 48.6691 50.0981C48.6846 49.6952 49.2289 49.0445 49.6331 48.9515C57.0657 47.0923 64.4671 47.1233 71.7597 49.2459C71.7442 53.0729 71.7442 56.6985 71.7442 60.4945ZM74.6363 49.9276C74.6519 49.5403 75.4604 48.967 75.9891 48.8431C82.8463 47.1852 89.7346 47.1852 96.5919 48.8896C97.105 49.0135 97.8669 49.6333 97.8669 50.0361C97.9757 53.2123 97.9291 56.4041 97.9291 59.8127C96.0943 59.9367 94.2906 60.1071 92.4868 60.1381C92.067 60.1381 91.3829 59.7198 91.2429 59.3324C90.4343 57.1478 88.8639 55.9548 86.6092 56.0012C84.2302 56.0477 82.753 57.4577 82.0533 59.7508C81.9445 60.1381 81.2603 60.5719 80.8405 60.6029C78.8035 60.6959 76.7666 60.6494 74.5741 60.6494C74.5741 56.9928 74.5275 53.4448 74.6363 49.9276ZM86.8425 58.6662C88.7861 58.7591 88.7395 60.3085 88.755 61.7185C88.7861 63.1904 88.3197 64.4609 86.6559 64.3989C84.8677 64.3369 84.5256 62.958 84.6189 61.4241C84.5723 59.8747 85.0077 58.5887 86.8425 58.6662ZM87.962 76.2672C81.3691 77.1659 74.8229 72.3008 74.201 66.0568C73.9522 63.6242 74.232 63.3144 76.7199 63.2679C77.6684 63.2524 78.6169 63.3298 79.5654 63.2214C81.0582 63.0664 81.9911 63.3918 82.8619 64.8792C84.6967 68.0555 89.2526 67.7766 90.8231 64.3989C91.4917 62.9735 92.3003 62.6636 93.6375 62.6946C95.068 62.7411 96.5141 62.7101 97.9602 62.7101C99.2197 69.295 94.7726 75.3376 87.962 76.2672ZM100.635 49.8347C100.65 49.4628 101.474 48.9205 102.019 48.7811C109.031 47.0923 116.028 47.1852 123.026 48.9205C124.145 49.1994 124.549 49.7107 124.518 50.8728C124.378 56.3731 124.036 56.8069 118.516 57.3647C118.05 57.4112 117.241 57.2098 117.086 56.8844C115.966 54.5758 114.256 53.3828 111.675 53.8476C109.436 54.2504 108.409 55.5519 107.601 58.9141C105.408 59.131 103.309 59.3479 100.572 59.6113C100.572 56.2801 100.526 53.0574 100.635 49.8347ZM112.514 62.1368C110.897 62.0903 110.477 60.8508 110.477 59.3479C110.477 57.814 110.788 56.4506 112.561 56.3886C114.442 56.3266 114.66 57.7985 114.645 59.3944C114.753 60.8508 114.287 62.1833 112.514 62.1368ZM123.088 67.885C121.922 73.2614 116.433 76.918 110.897 76.3137C105.408 75.7094 101.086 71.1078 100.868 65.6229C100.821 64.5539 100.868 63.4693 100.868 62.2608C103.076 62.0284 105.097 61.7495 107.119 61.6565C107.601 61.641 108.285 62.1213 108.58 62.5706C109.669 64.1665 111.177 64.9722 113.043 64.7708C115.095 64.5539 116.464 63.3453 117.148 61.3311C117.319 60.8353 117.879 60.2311 118.376 60.1071C120.071 59.6888 121.797 59.4564 124.005 59.069C123.679 62.2918 123.679 65.1581 123.088 67.885Z" fill="#1F3D59"/>
</g>
<defs>
<clipPath id="clip0">
<rect width="152.989" height="111.773" fill="white" transform="translate(0 5.59961)"/>
</clipPath>
</defs>
</svg>
