<?xml version="1.0" encoding="utf-8"?>
<!-- Generator: Adobe Illustrator 24.1.3, SVG Export Plug-In . SVG Version: 6.00 Build 0)  -->
<svg version="1.1" id="Capa_1" xmlns:serif="http://www.serif.com/"
	 xmlns="http://www.w3.org/2000/svg" xmlns:xlink="http://www.w3.org/1999/xlink" x="0px" y="0px" viewBox="0 0 510 510"
	 style="enable-background:new 0 0 510 510;" xml:space="preserve">
<style type="text/css">
	.st0{fill-rule:evenodd;clip-rule:evenodd;fill:url(#SVGID_1_);}
	.st1{fill:#FFFFFF;}
	.st2{fill-rule:evenodd;clip-rule:evenodd;fill:#FFFFFF;}
</style>
<g>
	
		<radialGradient id="SVGID_1_" cx="-245" cy="561" r="1" gradientTransform="matrix(712.2915 0 0 -712.2915 174511.4219 400092.7813)" gradientUnits="userSpaceOnUse">
		<stop  offset="0" style="stop-color:#FF8100"/>
		<stop  offset="0.19" style="stop-color:#FF7209"/>
		<stop  offset="0.32" style="stop-color:#F55E16"/>
		<stop  offset="0.48" style="stop-color:#D92938"/>
		<stop  offset="1" style="stop-color:#9100FF"/>
	</radialGradient>
	<path class="st0" d="M510,127.5C510,57.1,452.9,0,382.5,0c-77.9,0-177.1,0-255,0C57.1,0,0,57.1,0,127.5c0,77.9,0,177.1,0,255
		C0,452.9,57.1,510,127.5,510c77.9,0,177.1,0,255,0c70.4,0,127.5-57.1,127.5-127.5C510,304.6,510,205.4,510,127.5z"/>
	<path class="st1" d="M330.4,76.6c53.3,0.5,102.4,46.3,102.9,102.9c0.2,50.3,0.2,100.6,0,150.9c-0.5,53.1-46.3,102.4-102.9,102.9
		c-50.3,0.2-100.6,0.2-150.9,0c-53.3-0.5-102.4-46.3-102.9-102.9c-0.2-50.3-0.2-100.6,0-150.9c0.5-53.4,46.2-102.4,102.9-102.9
		C229.9,76.4,280.1,76.4,330.4,76.6L330.4,76.6z M180.3,100.7c-41.4,0.1-79.1,36-79.5,79c-0.2,50.2-0.2,100.4,0,150.6
		c0.4,40.9,35.4,78.6,79,79c50.2,0.2,100.4,0.2,150.6,0c41-0.4,78.6-35.4,79-79c0.2-50.2,0.2-100.4,0-150.6
		c-0.4-41.2-36.1-78.6-79-79C280.3,100.6,230.3,100.7,180.3,100.7z"/>
	<path class="st1" d="M255.6,165.8c41.3,0.4,79.7,32.2,87.3,73c5.4,29.1-4.8,60.6-26.2,81c-23.8,22.7-60.7,30.8-92.4,19.2
		c-35.3-12.9-60.2-50.2-58.5-87.9c2-45.1,41.8-85.2,89.2-85.3C255.2,165.7,255.4,165.7,255.6,165.8L255.6,165.8z M254.6,189.9
		c-29.5,0.3-57.2,22.6-63.3,51.6c-6.2,29.4,10.7,61.9,38.4,73.6c30.3,12.8,69.4-1.6,84-31.4c15.1-30.9,0.9-72.8-31.1-87.7
		C273.9,191.9,264.2,189.9,254.6,189.9z"/>
	<path class="st2" d="M369.8,158.8c0-4.9-2-9.6-5.4-13.1s-8.2-5.4-13.1-5.4c-0.4,0-0.8,0-1.2,0c-4.9,0-9.6,2-13.1,5.4
		c-3.5,3.5-5.4,8.2-5.4,13.1c0,0.2,0,0.4,0,0.6c0,5.1,2,9.9,5.6,13.5c3.6,3.6,8.4,5.6,13.5,5.6l0,0c10.6,0,19.1-8.6,19.1-19.1
		C369.8,159.2,369.8,159,369.8,158.8z"/>
</g>
</svg>
