<svg xmlns="http://www.w3.org/2000/svg" viewBox="0 0 870.29 422.01"><defs><style>.cls-1{fill:#fff;}</style></defs><g id="Capa_2" data-name="Capa 2"><g id="fondo"><path class="cls-1" d="M379.22,301.74a2.28,2.28,0,0,1-.55,2.38,5.74,5.74,0,0,1-3,1.34,5.51,5.51,0,0,1-2,.12,5,5,0,0,1-1.86-.59,4.74,4.74,0,0,1-1.39-1.19,3,3,0,0,1-.63-1.66c-.11-1.11-.18-2.65-.2-4.63s0-4,0-6V250.88c-.11-3.06-.21-5.48-.32-7.28a22.4,22.4,0,0,0-.55-4.19,2.26,2.26,0,0,1,.55-2.37,5.74,5.74,0,0,1,3-1.34,4.86,4.86,0,0,1,2-.08,5.8,5.8,0,0,1,1.86.59,4.11,4.11,0,0,1,1.39,1.15,3,3,0,0,1,.63,1.66c.11,1.1.17,2.65.2,4.62s0,4,0,6v40.65c0,3.06.15,5.49.28,7.28A24.57,24.57,0,0,0,379.22,301.74Z"/><path class="cls-1" d="M425,292.73a3,3,0,0,1,.32-1.51c.21-.37.43-.56.67-.59s.46.13.67.47a3.42,3.42,0,0,1,.32,1.7,20.12,20.12,0,0,1-.75,5.9,11.82,11.82,0,0,1-2,3.95,8.12,8.12,0,0,1-2.82,2.26,7.47,7.47,0,0,1-3.13.71,12.51,12.51,0,0,1-4.24-.75,10.57,10.57,0,0,1-3.81-2.38,12.19,12.19,0,0,1-2.78-4.15,15.9,15.9,0,0,1-1.07-6.17c0-.95,0-2.17,0-3.68s0-3,0-4.43,0-2.72,0-3.83,0-1.74,0-1.9q0-7.59,0-12.22a41.47,41.47,0,0,0-.51-7.12,4.16,4.16,0,0,0-4.84-4.15,6.17,6.17,0,0,0-4.8,2,13.83,13.83,0,0,0-2.77,5.07,30.75,30.75,0,0,0-1.31,6.84q-.32,3.75-.4,7.32v14.23c.11,3.06.21,5.49.32,7.28a22.27,22.27,0,0,0,.56,4.19,2.28,2.28,0,0,1-.56,2.38,6.22,6.22,0,0,1-3,1.42,4.91,4.91,0,0,1-1.95.08,5.62,5.62,0,0,1-1.82-.63,5.5,5.5,0,0,1-1.43-1.19,3,3,0,0,1-.67-1.66c-.11-1.06-.17-2.58-.2-4.59s0-4,0-6V267.33c0-3.05-.13-5.48-.24-7.27a22.65,22.65,0,0,0-.55-4.2q-.72-2.84,3.57-3.71a4.69,4.69,0,0,1,1.94-.08,5.72,5.72,0,0,1,1.82.59,4.11,4.11,0,0,1,1.39,1.15,3.11,3.11,0,0,1,.64,1.66,6.4,6.4,0,0,1,.08,1,9.93,9.93,0,0,0,.07,1.15,11.57,11.57,0,0,1,3.77-3.76,10.41,10.41,0,0,1,5.51-1.39,20,20,0,0,1,7,1.07,9.69,9.69,0,0,1,4.64,3.64A18,18,0,0,1,415,264a57,57,0,0,1,.83,10.64q-.07,3.72-.08,6.88V291q0,3.79.08,6.16a22.13,22.13,0,0,0,.36,3.72,3,3,0,0,0,.87,1.82,2.53,2.53,0,0,0,1.63.48,5.12,5.12,0,0,0,2.41-.6,5.7,5.7,0,0,0,2-1.82,9.6,9.6,0,0,0,1.38-3.2A19.1,19.1,0,0,0,425,292.73Z"/><path class="cls-1" d="M466.45,292.73a3.05,3.05,0,0,1,.32-1.51c.21-.37.44-.56.67-.59s.47.13.68.47a3.44,3.44,0,0,1,.31,1.7,20.12,20.12,0,0,1-.75,5.9,11.64,11.64,0,0,1-2,3.95,8,8,0,0,1-2.82,2.26,7.47,7.47,0,0,1-3.13.71,12.51,12.51,0,0,1-4.24-.75,10.66,10.66,0,0,1-3.81-2.38,12.17,12.17,0,0,1-2.77-4.15,15.71,15.71,0,0,1-1.07-6.17c0-.95,0-2.17,0-3.68s0-3,0-4.43,0-2.72,0-3.83,0-1.74,0-1.9q0-7.59,0-12.22a42.32,42.32,0,0,0-.52-7.12,5.23,5.23,0,0,0-1.58-3.32,5.34,5.34,0,0,0-3.25-.83,6.17,6.17,0,0,0-4.8,2,13.7,13.7,0,0,0-2.78,5.07,31.33,31.33,0,0,0-1.31,6.84q-.31,3.75-.39,7.32v14.23q.15,4.59.32,7.28a22.4,22.4,0,0,0,.55,4.19,2.3,2.3,0,0,1-.55,2.38,6.26,6.26,0,0,1-3,1.42,4.86,4.86,0,0,1-1.94.08,5.54,5.54,0,0,1-1.82-.63,5.19,5.19,0,0,1-1.43-1.19,3,3,0,0,1-.68-1.66c-.1-1.06-.17-2.58-.19-4.59s0-4,0-6V267.33c-.06-3.05-.14-5.48-.24-7.27a22.51,22.51,0,0,0-.56-4.2q-.7-2.84,3.57-3.71a4.69,4.69,0,0,1,1.94-.08,5.86,5.86,0,0,1,1.83.59,4.31,4.31,0,0,1,1.39,1.15,3,3,0,0,1,.63,1.66,6.4,6.4,0,0,1,.08,1,10.12,10.12,0,0,0,.08,1.15,11.48,11.48,0,0,1,3.77-3.76,10.36,10.36,0,0,1,5.51-1.39,20.13,20.13,0,0,1,7,1.07,9.62,9.62,0,0,1,4.63,3.64,17.83,17.83,0,0,1,2.62,6.8,56.15,56.15,0,0,1,.83,10.64q-.08,3.72-.07,6.88V291q0,3.79.07,6.16a24.48,24.48,0,0,0,.36,3.72,3.06,3.06,0,0,0,.87,1.82,2.53,2.53,0,0,0,1.63.48,5.19,5.19,0,0,0,2.42-.6,5.67,5.67,0,0,0,2-1.82,9.81,9.81,0,0,0,1.39-3.2A19.61,19.61,0,0,0,466.45,292.73Z"/><path class="cls-1" d="M508.64,268.36c.32-.1.54.13.67.71a5,5,0,0,1-.12,2.22,14.51,14.51,0,0,1-2.22,4.82,10.51,10.51,0,0,1-5.23,3.64q0,12.18-4.4,19t-13.13,6.84H483q-8.79,0-13.16-6.84t-4.36-19.11v-1.26a59,59,0,0,1,.91-10.92,23,23,0,0,1,3-8.14,14.16,14.16,0,0,1,5.51-5.11,17.86,17.86,0,0,1,8.32-1.78h.64a1.59,1.59,0,0,1,1.15.36,1.16,1.16,0,0,1,0,1.66,1.34,1.34,0,0,1-1,.36h-.88a8.34,8.34,0,0,0-4,.83A5.53,5.53,0,0,0,476.8,259a29.74,29.74,0,0,0-1.15,7.12q-.31,4.62-.32,12.22v1.42q0,7.37.28,11.95a31.45,31.45,0,0,0,1.07,7.15,6.13,6.13,0,0,0,2.3,3.53,7.38,7.38,0,0,0,4,.94h1.34a7.62,7.62,0,0,0,3.89-.87,5.61,5.61,0,0,0,2.3-3.32,29.88,29.88,0,0,0,1.11-6.76c.21-2.87.32-6.61.32-11.19h-.16a10.27,10.27,0,0,1-6.23-1.9,13.66,13.66,0,0,1-4-4.71,16.24,16.24,0,0,1-1.79-6,14.62,14.62,0,0,1,.56-5.93,9,9,0,0,1,2.93-4.39,7.21,7.21,0,0,1,5.4-1.35,13.94,13.94,0,0,1,6.14,2,12.51,12.51,0,0,1,4,4.31,20,20,0,0,1,2.22,6.37,50.14,50.14,0,0,1,.75,8.19c3.22-1.43,5.08-3.7,5.55-6.81a8.46,8.46,0,0,1,.44-1.74A1.32,1.32,0,0,1,508.64,268.36Zm-20.94-9.17a4.07,4.07,0,0,0-3.49,1.22,7.39,7.39,0,0,0-1.7,3.64,14.16,14.16,0,0,0,0,4.87,15.13,15.13,0,0,0,1.63,4.94,11.84,11.84,0,0,0,3.17,3.88,7.63,7.63,0,0,0,4.64,1.62v-1c0-4,0-7.17-.12-9.65a38.31,38.31,0,0,0-.52-5.78,5,5,0,0,0-1.23-2.8A4,4,0,0,0,487.7,259.19Z"/><path class="cls-1" d="M528.23,251.59a17.5,17.5,0,0,1,5.51.83,10.14,10.14,0,0,1,4.28,2.77,13.45,13.45,0,0,1,2.78,5.07,25.8,25.8,0,0,1,1,7.71v.63a67.11,67.11,0,0,1-1.39,13.68,52.82,52.82,0,0,1-3.85,11.83,27.26,27.26,0,0,1-5.83,8.34,10.59,10.59,0,0,1-7.41,3.17,14.37,14.37,0,0,1-7.45-1.78,13.72,13.72,0,0,1-4.92-5.1,24.94,24.94,0,0,1-2.74-8.15,65.24,65.24,0,0,1-.83-10.92V268.13c-.11-3.06-.21-5.49-.32-7.28a22.4,22.4,0,0,0-.55-4.19,2.28,2.28,0,0,1,.55-2.38,5.74,5.74,0,0,1,3-1.34,4.69,4.69,0,0,1,1.94-.08,6,6,0,0,1,1.82.59,4.57,4.57,0,0,1,1.43,1.15,2.85,2.85,0,0,1,.67,1.66c.11,1.11.18,2.65.2,4.63s0,4,0,6v3.28c0,1.4,0,2.78,0,4.16s0,2.58,0,3.63v1.82q0,7.37.2,11.95a33.59,33.59,0,0,0,.91,7.15,6.08,6.08,0,0,0,2.11,3.53,6.73,6.73,0,0,0,3.84.94,8.8,8.8,0,0,0,6-2.57,23.35,23.35,0,0,0,5.11-7.12,45.74,45.74,0,0,0,3.61-10.91,67.42,67.42,0,0,0,1.35-14v-.87q0-5.22-1.39-7c-.92-1.16-1.89-1.51-2.89-1a3.27,3.27,0,0,0-1.35,1.34,6.52,6.52,0,0,1-2.26,2.14,6.25,6.25,0,0,1-9.32-5.46,6.19,6.19,0,0,1,1.83-4.43A5.93,5.93,0,0,1,528.23,251.59Z"/><path class="cls-1" d="M586.83,292.73a3.06,3.06,0,0,1,.31-1.51c.22-.37.44-.56.68-.59s.46.13.67.47a3.42,3.42,0,0,1,.32,1.7,20.12,20.12,0,0,1-.75,5.9,11.65,11.65,0,0,1-2,3.95,8,8,0,0,1-2.81,2.26,7.5,7.5,0,0,1-3.13.71,12,12,0,0,1-5.36-1.27,10.16,10.16,0,0,1-4.24-4,14.63,14.63,0,0,1-4.36,3.83,12,12,0,0,1-6.11,1.47q-7.68,0-11.65-3.92t-4-11.82a15,15,0,0,1,2.06-7.91,19.3,19.3,0,0,1,5.44-5.78,29,29,0,0,1,7.69-3.79,46.13,46.13,0,0,1,8.84-2c-.11-3.11-.29-5.66-.56-7.63a15.56,15.56,0,0,0-1.22-4.67,4.72,4.72,0,0,0-2.22-2.33,8.44,8.44,0,0,0-3.53-.64h-.56a17.3,17.3,0,0,0-2.81.24,17.65,17.65,0,0,0-2.66.63,5.54,5.54,0,0,0-1.94,1.07,1.51,1.51,0,0,0-.6,1.46,3.13,3.13,0,0,0,.4.95,2.18,2.18,0,0,0,.95.87,5.66,5.66,0,0,1,2.22,2.18,6,6,0,0,1,.87,3.12,5.79,5.79,0,0,1-11.57,0,12.68,12.68,0,0,1,.95-4.86A11.37,11.37,0,0,1,549,256.7a14.07,14.07,0,0,1,4.76-2.85,19,19,0,0,1,6.66-1.07h.4a19.53,19.53,0,0,1,8.48,1.58,11.2,11.2,0,0,1,5.08,5.14,27.88,27.88,0,0,1,2.5,9.3,124.57,124.57,0,0,1,.67,14V291q0,3.79.08,6.16a22.13,22.13,0,0,0,.36,3.72,3,3,0,0,0,.87,1.82,2.5,2.5,0,0,0,1.62.48,5.16,5.16,0,0,0,2.42-.6,5.59,5.59,0,0,0,2-1.82,9.4,9.4,0,0,0,1.39-3.2A19.1,19.1,0,0,0,586.83,292.73Zm-26.89,10.59a6.14,6.14,0,0,0,4.13-1.34,9.71,9.71,0,0,0,2.54-3.44,17.79,17.79,0,0,0,1.34-4.67c.27-1.71.45-3.39.56-5v-16a34.73,34.73,0,0,0-7,1.7,12.33,12.33,0,0,0-4.52,2.81,9.77,9.77,0,0,0-2.42,4.35,24.55,24.55,0,0,0-.71,6.33,80,80,0,0,0,.32,8.18,14.42,14.42,0,0,0,1.07,4.63,3.64,3.64,0,0,0,1.9,2A8,8,0,0,0,559.94,303.32Z"/><path class="cls-1" d="M601.3,248.14a1.41,1.41,0,0,1-1.47,1.3c-4.9-.22-2.39-.16-4.52-.46V268.6q0,3.56,0,7.08t0,6.56c0,2,0,3.83,0,5.38s0,2.68,0,3.37q0,3.79.08,6.16a22.13,22.13,0,0,0,.36,3.72,3,3,0,0,0,.87,1.82,2.52,2.52,0,0,0,1.62.48,5.47,5.47,0,0,0,2.42-.56,5.17,5.17,0,0,0,2-1.82,9.92,9.92,0,0,0,1.39-3.24,18.73,18.73,0,0,0,.52-4.75,3.17,3.17,0,0,1,.32-1.54c.21-.39.43-.6.67-.63s.46.13.67.47a3.42,3.42,0,0,1,.32,1.7,20.12,20.12,0,0,1-.75,5.9,11.82,11.82,0,0,1-2,3.95,8.12,8.12,0,0,1-2.82,2.26,7.47,7.47,0,0,1-3.13.71,11.82,11.82,0,0,1-4.16-.75,9.6,9.6,0,0,1-3.61-2.38,12.13,12.13,0,0,1-2.58-4.15,17,17,0,0,1-1-6.17V282.4c0-2.71,0-5.68,0-8.9s0-6.31,0-9.29,0-5.66,0-8,0-4.06,0-5.06c0-.63,0-1.23,0-1.78s0-1.09,0-1.62L582,247c-1.35-.24-2.55-.49-3.61-.76a6.67,6.67,0,0,1-3.13-1.26c-.45-.48-.53-.88-.24-1.23a3.12,3.12,0,0,1,1.67-.79,6.1,6.1,0,0,1,2.65,0,31.47,31.47,0,0,0,3.22.67l3.76.6c-.11-1.06-.2-2-.28-2.69a10.62,10.62,0,0,0-.35-1.9,2.26,2.26,0,0,1,.55-2.37,5.74,5.74,0,0,1,3-1.35,5,5,0,0,1,2-.08,6.06,6.06,0,0,1,1.86.6,4.2,4.2,0,0,1,1.39,1.14,3,3,0,0,1,.63,1.66,18.77,18.77,0,0,1,.16,2.69c0,1.06,0,2.22.08,3.48a35.34,35.34,0,0,0,4.68.17,1.4,1.4,0,0,1,1.38,1.5Z"/><path class="cls-1" d="M607.6,248.27a6.25,6.25,0,1,1,0-12.5,6.1,6.1,0,0,1,4.4,1.82,6.18,6.18,0,0,1,0,8.86A6.06,6.06,0,0,1,607.6,248.27Zm13.64,44.46a3.05,3.05,0,0,1,.32-1.51c.21-.37.44-.56.68-.59s.46.13.67.47a3.42,3.42,0,0,1,.32,1.7,20.09,20.09,0,0,1-.76,5.9,11.46,11.46,0,0,1-2,3.95,8.09,8.09,0,0,1-2.81,2.26,7.55,7.55,0,0,1-3.14.71,11.9,11.9,0,0,1-4.16-.75,9.68,9.68,0,0,1-3.61-2.38,12.13,12.13,0,0,1-2.58-4.15,17,17,0,0,1-1-6.17V287.5c0-2.16,0-4.48,0-7s0-4.86,0-7.15v-5.26c-.1-3.06-.21-5.49-.31-7.28a23.13,23.13,0,0,0-.56-4.19,2.26,2.26,0,0,1,.56-2.38,5.67,5.67,0,0,1,3-1.34,4.69,4.69,0,0,1,1.94-.08,6.14,6.14,0,0,1,1.83.59,4.53,4.53,0,0,1,1.42,1.15,2.93,2.93,0,0,1,.68,1.66c.1,1.11.17,2.65.19,4.63s0,4,0,6v6.25c0,1.58,0,3.29,0,5.14s0,3.63,0,5.34V291q0,3.79.08,6.16a23.25,23.25,0,0,0,.36,3.72,3.12,3.12,0,0,0,.87,1.82,2.53,2.53,0,0,0,1.63.48,5.19,5.19,0,0,0,2.42-.6,5.67,5.67,0,0,0,2-1.82,9.81,9.81,0,0,0,1.39-3.2A19.61,19.61,0,0,0,621.24,292.73Z"/><path class="cls-1" d="M663.43,268.36c.32-.1.54.13.67.71a4.93,4.93,0,0,1-.11,2.22,14.92,14.92,0,0,1-2.22,4.82,10.55,10.55,0,0,1-5.24,3.64q0,12.18-4.4,19T639,305.62h-1.19q-8.8,0-13.17-6.84t-4.36-19.11v-1.26a59.9,59.9,0,0,1,.91-10.92,23.21,23.21,0,0,1,3-8.14,14.16,14.16,0,0,1,5.51-5.11,17.89,17.89,0,0,1,8.32-1.78h.64a1.57,1.57,0,0,1,1.15.36,1.14,1.14,0,0,1,0,1.66,1.34,1.34,0,0,1-1,.36H638a8.38,8.38,0,0,0-4,.83,5.53,5.53,0,0,0-2.38,3.32,30.26,30.26,0,0,0-1.15,7.12q-.32,4.62-.32,12.22v1.42q0,7.37.28,11.95a32,32,0,0,0,1.07,7.15,6.13,6.13,0,0,0,2.3,3.53,7.41,7.41,0,0,0,4,.94h1.35a7.58,7.58,0,0,0,3.88-.87,5.57,5.57,0,0,0,2.3-3.32,29.88,29.88,0,0,0,1.11-6.76c.21-2.87.32-6.61.32-11.19h-.16a10.21,10.21,0,0,1-6.22-1.9,13.69,13.69,0,0,1-4.05-4.71,16.22,16.22,0,0,1-1.78-6,14.62,14.62,0,0,1,.55-5.93,9,9,0,0,1,2.94-4.39,7.17,7.17,0,0,1,5.39-1.35,13.94,13.94,0,0,1,6.14,2,12.42,12.42,0,0,1,4,4.31,20,20,0,0,1,2.22,6.37,50.14,50.14,0,0,1,.75,8.19q4.85-2.14,5.55-6.81a8.46,8.46,0,0,1,.44-1.74A1.32,1.32,0,0,1,663.43,268.36Zm-20.93-9.17a4.06,4.06,0,0,0-3.49,1.22,7.32,7.32,0,0,0-1.71,3.64,14.41,14.41,0,0,0,0,4.87,15.61,15.61,0,0,0,1.63,4.94,12,12,0,0,0,3.17,3.88,7.63,7.63,0,0,0,4.64,1.62v-1c0-4,0-7.17-.12-9.65a38.31,38.31,0,0,0-.52-5.78,5,5,0,0,0-1.23-2.8A4,4,0,0,0,642.5,259.19Z"/><path class="cls-1" d="M704.35,292.73a3,3,0,0,1,.32-1.51c.21-.37.43-.56.67-.59s.46.13.67.47a3.42,3.42,0,0,1,.32,1.7,20.12,20.12,0,0,1-.75,5.9,11.82,11.82,0,0,1-2,3.95,8.12,8.12,0,0,1-2.82,2.26,7.47,7.47,0,0,1-3.13.71,12.51,12.51,0,0,1-4.24-.75,10.57,10.57,0,0,1-3.81-2.38,12.19,12.19,0,0,1-2.78-4.15,15.9,15.9,0,0,1-1.07-6.17c0-.95,0-2.17,0-3.68s0-3,0-4.43,0-2.72,0-3.83,0-1.74,0-1.9q0-7.59,0-12.22A41.47,41.47,0,0,0,685,259a4.16,4.16,0,0,0-4.84-4.15,6.17,6.17,0,0,0-4.8,2,13.83,13.83,0,0,0-2.77,5.07,30.75,30.75,0,0,0-1.31,6.84q-.31,3.75-.4,7.32v14.23q.17,4.59.32,7.28a22.27,22.27,0,0,0,.56,4.19,2.28,2.28,0,0,1-.56,2.38,6.22,6.22,0,0,1-3,1.42,4.91,4.91,0,0,1-2,.08,5.62,5.62,0,0,1-1.82-.63A5.5,5.5,0,0,1,663,303.8a3,3,0,0,1-.67-1.66c-.11-1.06-.17-2.58-.2-4.59s0-4,0-6V267.33c-.05-3.05-.13-5.48-.24-7.27a22.65,22.65,0,0,0-.55-4.2q-.72-2.84,3.57-3.71a4.69,4.69,0,0,1,1.94-.08,5.72,5.72,0,0,1,1.82.59,4.11,4.11,0,0,1,1.39,1.15,3.11,3.11,0,0,1,.64,1.66,6.4,6.4,0,0,1,.08,1,9.93,9.93,0,0,0,.07,1.15,11.67,11.67,0,0,1,3.77-3.76,10.41,10.41,0,0,1,5.51-1.39,20,20,0,0,1,7,1.07,9.69,9.69,0,0,1,4.64,3.64,18,18,0,0,1,2.62,6.8,57,57,0,0,1,.83,10.64q-.07,3.72-.08,6.88V291q0,3.79.08,6.16a22.13,22.13,0,0,0,.36,3.72,3,3,0,0,0,.87,1.82,2.53,2.53,0,0,0,1.63.48,5.12,5.12,0,0,0,2.41-.6,5.7,5.7,0,0,0,2-1.82,9.6,9.6,0,0,0,1.38-3.2A19.1,19.1,0,0,0,704.35,292.73Z"/><path class="cls-1" d="M739.87,235.85a18.7,18.7,0,0,1,8.41,2,20,20,0,0,1,7.14,6.17,33,33,0,0,1,5,10.56,54.79,54.79,0,0,1,1.87,15.19v1.34A47.28,47.28,0,0,1,760,286.4a33.44,33.44,0,0,1-5.79,10.75,23.47,23.47,0,0,1-8,6.37,20.48,20.48,0,0,1-8.8,2.1H727.19a5.59,5.59,0,0,1-3.41-.79,3.38,3.38,0,0,1-1.75-2.69c-.1-1.11-.17-2.65-.2-4.63s0-4,0-6V251.12c0-3.06-.13-5.48-.23-7.28a22.27,22.27,0,0,0-.56-4.19c-.47-1.9.71-3.14,3.57-3.72a5.26,5.26,0,0,1,1.94-.12,4.82,4.82,0,0,1,1.83.6,4.65,4.65,0,0,1,1.38,1.18,3.14,3.14,0,0,1,.64,1.66,4.34,4.34,0,0,1,.08.8,4.69,4.69,0,0,0,.08.87,9.2,9.2,0,0,1,3.57-3.8A11.62,11.62,0,0,1,739.87,235.85Zm12.53,33.94a102.08,102.08,0,0,0-1-16.22,35.41,35.41,0,0,0-2.73-9.61,9,9,0,0,0-8.69-5.81,13.15,13.15,0,0,0-3.76.47,6.53,6.53,0,0,0-2.62,1.5,7.84,7.84,0,0,0-1.75,2.69,29.13,29.13,0,0,0-1.22,4c0,.53.08,1,.08,1.5v12.14c0,2.56,0,5.32,0,8.27s0,5.81,0,8.58v12.93c.1,3.06.21,5.49.31,7.28a22.27,22.27,0,0,0,.56,4.19,3.89,3.89,0,0,1,.08.87,12.77,12.77,0,0,0,1.86.44,18.32,18.32,0,0,0,3.29.27h.8a11.43,11.43,0,0,0,4.48-1.14,12.52,12.52,0,0,0,4.91-4.59,31,31,0,0,0,3.93-9.77,70.43,70.43,0,0,0,1.58-16.61Z"/><path class="cls-1" d="M783.49,252.46a15.53,15.53,0,0,1,7.93,1.94,15.93,15.93,0,0,1,5.43,5.18,23.54,23.54,0,0,1,3.09,7.44,37.67,37.67,0,0,1,1,8.7v.55c0,3.32-1.32,5.65-4,7s-6.61,2-11.9,2H774.92a62.94,62.94,0,0,0,.8,9.14,17.82,17.82,0,0,0,1.74,5.49,6.16,6.16,0,0,0,2.74,2.73,9.07,9.07,0,0,0,3.84.75,16.26,16.26,0,0,0,3.89-.51,12.85,12.85,0,0,0,3.84-1.66,12.21,12.21,0,0,0,3.18-3,11.37,11.37,0,0,0,1.94-4.62,1.82,1.82,0,0,1,.56-1.11.78.78,0,0,1,.75-.2,1,1,0,0,1,.55.67,2.79,2.79,0,0,1,0,1.43,14,14,0,0,1-1.94,5.06,13,13,0,0,1-3.33,3.52A14.12,14.12,0,0,1,789.2,305a18.63,18.63,0,0,1-5,.67,17.4,17.4,0,0,1-8-1.78,17.18,17.18,0,0,1-6-5.1,24.26,24.26,0,0,1-3.85-8.15A40.6,40.6,0,0,1,765,279.67v-1.26a47.11,47.11,0,0,1,1.15-10.92,25,25,0,0,1,3.37-8.14,15.3,15.3,0,0,1,5.55-5.11,16.32,16.32,0,0,1,7.77-1.78ZM791.18,273q0-9.33-1.63-13.72c-1.08-2.93-3.08-4.39-6-4.39h-.87a6.63,6.63,0,0,0-3.37.83,6.28,6.28,0,0,0-2.46,3.32,28.53,28.53,0,0,0-1.51,7.12,116,116,0,0,0-.52,12.22v4.59h8a14.72,14.72,0,0,0,3.69-.4,5.34,5.34,0,0,0,2.58-1.46,6.87,6.87,0,0,0,1.55-2.89,17.7,17.7,0,0,0,.51-4.67Z"/><path class="cls-1" d="M846.53,292.73a3.05,3.05,0,0,1,.32-1.51c.21-.37.43-.56.67-.59s.46.13.68.47a3.44,3.44,0,0,1,.31,1.7,20.12,20.12,0,0,1-.75,5.9,11.64,11.64,0,0,1-2,3.95,8.12,8.12,0,0,1-2.82,2.26,7.47,7.47,0,0,1-3.13.71,12.51,12.51,0,0,1-4.24-.75,10.66,10.66,0,0,1-3.81-2.38,12,12,0,0,1-2.77-4.15,15.71,15.71,0,0,1-1.07-6.17c0-.95,0-2.17,0-3.68s0-3,0-4.43,0-2.72,0-3.83,0-1.74,0-1.9q0-7.59,0-12.22a42.32,42.32,0,0,0-.52-7.12,5.23,5.23,0,0,0-1.58-3.32,5.35,5.35,0,0,0-3.26-.83,6.16,6.16,0,0,0-4.79,2,13.7,13.7,0,0,0-2.78,5.07,30.75,30.75,0,0,0-1.31,6.84q-.32,3.75-.39,7.32v14.23c.1,3.06.21,5.49.31,7.28a22.27,22.27,0,0,0,.56,4.19,2.28,2.28,0,0,1-.56,2.38,6.22,6.22,0,0,1-3,1.42,4.86,4.86,0,0,1-1.94.08,5.67,5.67,0,0,1-1.83-.63,5.3,5.3,0,0,1-1.42-1.19,2.89,2.89,0,0,1-.68-1.66c-.1-1.06-.17-2.58-.2-4.59s0-4,0-6V267.33c0-3.05-.13-5.48-.23-7.27a22.51,22.51,0,0,0-.56-4.2q-.71-2.84,3.57-3.71a4.69,4.69,0,0,1,1.94-.08,5.86,5.86,0,0,1,1.83.59,4.17,4.17,0,0,1,1.38,1.15,3,3,0,0,1,.64,1.66,6.4,6.4,0,0,1,.08,1,8.24,8.24,0,0,0,.08,1.15,11.54,11.54,0,0,1,3.76-3.76,10.42,10.42,0,0,1,5.52-1.39,20,20,0,0,1,7,1.07,9.65,9.65,0,0,1,4.64,3.64,18,18,0,0,1,2.62,6.8,57,57,0,0,1,.83,10.64q-.08,3.72-.08,6.88V291q0,3.79.08,6.16a22.13,22.13,0,0,0,.36,3.72,3.06,3.06,0,0,0,.87,1.82,2.53,2.53,0,0,0,1.63.48,5.19,5.19,0,0,0,2.42-.6,5.67,5.67,0,0,0,2-1.82,9.81,9.81,0,0,0,1.39-3.2A19.61,19.61,0,0,0,846.53,292.73Z"/><path class="cls-1" d="M865.21,248.41a1.66,1.66,0,0,1-1.75,1.54c-4.75-.24-3.47-.39-8.36-1V268.6q0,3.56,0,7.08t0,6.56c0,2,0,3.83,0,5.38s0,2.68,0,3.37q0,3.79.08,6.16a24.48,24.48,0,0,0,.36,3.72,3.06,3.06,0,0,0,.87,1.82,2.53,2.53,0,0,0,1.63.48,5.54,5.54,0,0,0,2.42-.56,5.24,5.24,0,0,0,2-1.82,10.36,10.36,0,0,0,1.39-3.24,19.24,19.24,0,0,0,.51-4.75,3.29,3.29,0,0,1,.32-1.54c.21-.39.44-.6.67-.63s.47.13.68.47a3.44,3.44,0,0,1,.31,1.7,20.12,20.12,0,0,1-.75,5.9,11.64,11.64,0,0,1-2,3.95,8.12,8.12,0,0,1-2.82,2.26,7.47,7.47,0,0,1-3.13.71,11.86,11.86,0,0,1-4.16-.75,9.68,9.68,0,0,1-3.61-2.38,12.13,12.13,0,0,1-2.58-4.15,17,17,0,0,1-1-6.17V282.4q0-4.06,0-8.9c0-3.21,0-6.31,0-9.29s0-5.66,0-8,0-4.06,0-5.06c0-.63,0-1.23,0-1.78s0-1.09,0-1.62l-4.48-.75c-1.34-.24-2.55-.49-3.6-.76A6.72,6.72,0,0,1,835,245c-.45-.48-.52-.88-.23-1.23a3.09,3.09,0,0,1,1.66-.79,6.14,6.14,0,0,1,2.66,0,30.71,30.71,0,0,0,3.21.67l3.76.6c-.1-1.06-.19-2-.27-2.69a10.56,10.56,0,0,0-.36-1.9,2.26,2.26,0,0,1,.56-2.37,5.67,5.67,0,0,1,3-1.35,5,5,0,0,1,2-.08,6.13,6.13,0,0,1,1.87.6,4.26,4.26,0,0,1,1.38,1.14,3.14,3.14,0,0,1,.64,1.66,20.35,20.35,0,0,1,.16,2.69c0,1.06,0,2.22.08,3.48a61.5,61.5,0,0,0,9.26.71,1,1,0,0,1,.94,1Z"/><path class="cls-1" d="M58.35,273C27.56,226.79,4.12,176.76,16.69,124.9c15.51-64,78.78-68.39,115.92-50.26,28,13.65,60.68,35.77,106.65,36.68,71.74,1.41,100.3-75.63,100.3-75.63H329.15S313.49,65.1,299,79.85c-11.09,11.32-27.83,19.61-44.83,22.64-16.53,2.94-27.4,1.13-45.51-3.85-15.85-4.36-43.51-17.52-57.51-25.06-4.09-2.2-13.14-5.86-15.09-6.79-11.41-5.41-31.81-8.28-48.16-6.94-18.41,1.51-30.79,6.94-43.17,13.43C34.18,78.83,14,98.19,6.73,118.11s-20.84,68.38,37.58,164.38Z"/><path class="cls-1" d="M314.88.6C307.64-.06,246.35-5,184,30.26c0,0,63-27.77,95-24.75s64.34,3,89.53,39.85,15.78,63.39,5.39,90-54.46,116.27-54.46,116.27L278.28,134.16a12.47,12.47,0,0,0-23.71.53L215.48,264.38h18.57l9.06-33.51,41.66-.45,11.62,32.15a5.34,5.34,0,0,0,7,3.15l21.89-8.66a19.85,19.85,0,0,0,9.8-8.39c12.71-21.63,56-97.84,64.72-147.16C410.05,43.54,357,4.44,314.88.6ZM246.13,218.34l17.2-54.94,18.72,54.94Z"/><path class="cls-1" d="M197.82,270.59l8.15-12.1,22.19-91.05h-33L162.5,270.59,126.73,167.44h-43V333.89a67.7,67.7,0,0,0,67.7,67.7h21.83a7.43,7.43,0,0,0,7.07-5.15c3.72-11.59,14.57-39.41,35.17-48.29,0,0,20.77,54.62,53.45,72.75a8.77,8.77,0,0,0,12.1-3.67c10.08-19.93,44.49-72.48,95.65-68.44,9.19.73,15.6-2.27,23.79-2.45,10.25-.22,25.12,1,32.6,1.81,37.62,4.18,71,12.87,108.72,18.15,55.5,7.78,148.12,19.59,212.12,4.5,46.29-10.92,98-30.8,116.38-44.84l-3.4-6.12s-33.8,17.92-46.41,23.33c-11.72,5-69.29,23.13-104,25.51a609.76,609.76,0,0,1-105.36-2.38c-18.34-1.91-72.4-8-108.53-15.43-33.83-7-80.15-14.94-105.06-14.94S342.73,335,316,354s-44.37,52.53-44.37,52.53-43-43.47-46.65-74.27c0,0-33-2.71-55.21,55.7l-21.81.3a43.73,43.73,0,0,1-44.34-43.73V210l38.49,101,24.91.91,28.53-93.59Z"/><rect class="cls-1" x="373.95" y="323.4" width="34.29" height="38.64" rx="4.93"/><rect class="cls-1" x="472.09" y="333.29" width="34.29" height="38.64" rx="4.93"/><rect class="cls-1" x="578.45" y="346.98" width="35.38" height="38.64" rx="4.93" transform="translate(25.51 -38.59) rotate(3.79)"/><rect class="cls-1" x="678.08" y="353.49" width="38.64" height="38.64" rx="4.93" transform="translate(-19.16 38.3) rotate(-3.1)"/><rect class="cls-1" x="778.58" y="335.34" width="38.64" height="38.64" rx="4.93" transform="translate(-58.01 181.91) rotate(-12.55)"/></g></g></svg>