<svg width="177" height="87" viewBox="0 0 177 87" fill="none" xmlns="http://www.w3.org/2000/svg">
<path d="M76.868 62.0669C76.8972 62.1493 76.9022 62.2383 76.8825 62.3234C76.8627 62.4085 76.819 62.4862 76.7565 62.5473C76.5848 62.6959 76.3734 62.791 76.1484 62.821C76.0158 62.8538 75.8784 62.8621 75.7429 62.8453C75.6102 62.8311 75.4818 62.7897 75.3658 62.7237C75.2568 62.6637 75.161 62.5824 75.0841 62.4845C75.0085 62.3878 74.964 62.2705 74.9563 62.148C74.934 61.9229 74.9198 61.6108 74.9158 61.2094C74.9117 60.808 74.9158 60.3985 74.9158 59.993V51.7563C74.8935 51.1359 74.8732 50.6453 74.8509 50.2804C74.8406 49.9944 74.8033 49.71 74.7394 49.431C74.7102 49.3486 74.7052 49.2596 74.725 49.1745C74.7448 49.0894 74.7884 49.0117 74.8509 48.9506C75.0226 48.8019 75.234 48.7068 75.4591 48.6769C75.5918 48.6442 75.7297 48.6387 75.8645 48.6607C75.996 48.6805 76.1233 48.7216 76.2416 48.7823C76.3511 48.8381 76.4472 48.9169 76.5234 49.0134C76.5989 49.1101 76.6435 49.2274 76.6511 49.3499C76.6734 49.5749 76.6856 49.8871 76.6917 50.2885C76.6977 50.6899 76.6917 51.0994 76.6917 51.5049V59.7477C76.6917 60.368 76.7221 60.8607 76.7484 61.2235C76.7641 61.5076 76.8042 61.7897 76.868 62.0669Z" fill="#EA7424"/>
<path d="M86.1487 60.2387C86.143 60.1333 86.1654 60.0284 86.2136 59.9346C86.2562 59.8596 86.3008 59.819 86.3494 59.815C86.3981 59.8109 86.4427 59.8413 86.4852 59.9102C86.5362 60.0176 86.5586 60.1363 86.5501 60.2549C86.5591 60.6582 86.5079 61.0607 86.3981 61.4489C86.3155 61.7425 86.1779 62.0176 85.9926 62.2598C85.8393 62.4534 85.6437 62.6094 85.4209 62.716C85.2228 62.8109 85.0061 62.8608 84.7864 62.8619C84.4931 62.8616 84.2021 62.8094 83.9269 62.7079C83.6383 62.6042 83.375 62.4404 83.1545 62.2274C82.9106 61.9889 82.7187 61.7024 82.5909 61.3861C82.4364 60.9876 82.3626 60.5625 82.374 60.1353C82.374 59.9427 82.374 59.6933 82.374 59.3892C82.374 59.0852 82.374 58.7811 82.374 58.4912C82.374 58.2013 82.374 57.9377 82.374 57.7147C82.374 57.4917 82.374 57.36 82.374 57.3296C82.374 56.3038 82.374 55.478 82.374 54.8523C82.3811 54.369 82.3465 53.8861 82.2706 53.4089C82.2719 53.2856 82.2462 53.1635 82.1954 53.0512C82.1446 52.9389 82.0698 52.8391 81.9763 52.7588C81.8828 52.6784 81.7729 52.6195 81.6542 52.5861C81.5356 52.5527 81.4111 52.5457 81.2894 52.5655C81.1075 52.5583 80.9262 52.5909 80.7581 52.6609C80.5901 52.7309 80.4393 52.8367 80.3163 52.971C80.0593 53.2698 79.868 53.6192 79.7548 53.9968C79.614 54.4481 79.5249 54.914 79.4892 55.3854C79.4459 55.8922 79.4189 56.3862 79.4081 56.8673V59.7542C79.4304 60.3745 79.4507 60.8671 79.473 61.23C79.4838 61.5161 79.5218 61.8005 79.5865 62.0794C79.6154 62.162 79.6201 62.2511 79.6 62.3362C79.5799 62.4214 79.5358 62.499 79.473 62.5599C79.3008 62.7107 79.0904 62.811 78.8648 62.8498C78.7353 62.8806 78.6011 62.8861 78.4695 62.866C78.3397 62.8452 78.2147 62.8012 78.1005 62.7362C77.9905 62.6742 77.8924 62.5932 77.8106 62.497C77.7322 62.4013 77.6848 62.2839 77.6748 62.1605C77.6525 61.9456 77.6403 61.6354 77.6343 61.23C77.6282 60.8245 77.6343 60.4191 77.6343 60.0136V55.0915C77.6343 54.4711 77.6079 53.9805 77.5856 53.6156C77.5751 53.3296 77.5378 53.0452 77.4741 52.7662C77.3768 52.381 77.618 52.1317 78.1978 52.0121C78.3266 51.9809 78.4604 51.9761 78.5911 51.9979C78.7199 52.0168 78.8447 52.0572 78.9601 52.1175C79.0701 52.1734 79.1664 52.253 79.2419 52.3506C79.3173 52.4476 79.3624 52.5647 79.3716 52.6871C79.3825 52.7542 79.3879 52.822 79.3878 52.8899C79.388 52.9671 79.3927 53.0443 79.402 53.121C79.5947 52.812 79.8563 52.5518 80.1663 52.3608C80.5049 52.1641 80.8919 52.0665 81.2833 52.079C81.7655 52.0663 82.246 52.1397 82.7024 52.2959C83.085 52.4382 83.4138 52.6961 83.643 53.0338C83.9122 53.4523 84.093 53.9214 84.1742 54.4123C84.2976 55.1245 84.3539 55.8467 84.3424 56.5693C84.333 57.0721 84.3276 57.537 84.3262 57.9641V59.8879C84.3262 60.4015 84.3316 60.8185 84.3424 61.1388C84.3457 61.3917 84.3701 61.644 84.4154 61.8929C84.4299 62.0326 84.4922 62.1629 84.5918 62.2619C84.6877 62.3307 84.8044 62.3644 84.9222 62.3571C85.0924 62.358 85.2602 62.3169 85.4108 62.2375C85.5731 62.1482 85.7121 62.0218 85.8162 61.8686C85.9479 61.671 86.0427 61.4512 86.096 61.2199C86.1551 60.8964 86.1728 60.5666 86.1487 60.2387Z" fill="#EA7424"/>
<path d="M94.5517 60.2386C94.5466 60.1334 94.569 60.0286 94.6166 59.9345C94.6591 59.8595 94.7058 59.819 94.7524 59.8149C94.799 59.8109 94.8477 59.8413 94.8903 59.9102C94.9404 60.0178 94.9621 60.1365 94.9531 60.2548C94.9621 60.6582 94.9109 61.0607 94.8011 61.4489C94.7193 61.7428 94.5817 62.0181 94.3956 62.2598C94.2428 62.4539 94.0471 62.6101 93.8239 62.7159C93.6258 62.8109 93.4091 62.8607 93.1894 62.8619C92.896 62.8615 92.605 62.8094 92.3298 62.7078C92.0415 62.6037 91.7783 62.44 91.5575 62.2274C91.3142 61.9887 91.123 61.7023 90.9959 61.386C90.8404 60.9879 90.7666 60.5625 90.779 60.1352C90.779 59.9426 90.779 59.6933 90.779 59.3892C90.779 59.0851 90.779 58.781 90.779 58.4911C90.779 58.2012 90.779 57.9377 90.779 57.7147C90.779 57.4917 90.779 57.3599 90.779 57.3295C90.779 56.3037 90.779 55.478 90.779 54.8522C90.7846 54.369 90.7493 53.8861 90.6736 53.4088C90.6518 53.1531 90.538 52.9139 90.3533 52.7358C90.1577 52.6097 89.9266 52.5499 89.6944 52.5655C89.5125 52.5583 89.3312 52.5908 89.1631 52.6609C88.9951 52.7309 88.8443 52.8367 88.7213 52.9709C88.4629 53.2691 88.2708 53.6187 88.1578 53.9967C88.018 54.4483 87.9289 54.9141 87.8922 55.3854C87.8503 55.8922 87.8239 56.3862 87.8131 56.8673V59.7541C87.8334 60.3744 87.855 60.8664 87.878 61.2299C87.8883 61.516 87.9256 61.8004 87.9895 62.0794C88.0184 62.1618 88.0233 62.2507 88.0035 62.3358C87.9838 62.4209 87.9403 62.4986 87.878 62.5598C87.7056 62.7103 87.4952 62.8105 87.2698 62.8497C87.141 62.8805 87.0074 62.886 86.8765 62.8659C86.7467 62.8455 86.6216 62.8015 86.5076 62.7362C86.3969 62.6752 86.2985 62.5941 86.2177 62.497C86.1385 62.4015 86.0904 62.2841 86.0798 62.1605C86.0595 61.9456 86.0454 61.6354 86.0413 61.2299C86.0372 60.8245 86.0413 60.419 86.0413 60.0136V55.0914C86.0291 54.4711 86.0129 53.9805 85.9926 53.6156C85.9817 53.3295 85.9437 53.0451 85.8791 52.7662C85.7838 52.381 86.0251 52.1316 86.6028 52.012C86.7317 51.981 86.8654 51.9761 86.9961 51.9978C87.1255 52.017 87.2509 52.0574 87.3671 52.1174C87.4764 52.1744 87.5725 52.2539 87.6489 52.3506C87.7245 52.4473 87.769 52.5646 87.7766 52.6871C87.7875 52.7541 87.7929 52.8219 87.7928 52.8898C87.7938 52.9671 87.7992 53.0443 87.8091 53.1209C88.0012 52.8115 88.2629 52.5512 88.5733 52.3607C88.9118 52.1636 89.2989 52.0659 89.6904 52.0789C90.1725 52.0668 90.6529 52.1403 91.1094 52.2958C91.4918 52.4376 91.82 52.6957 92.048 53.0338C92.3181 53.4518 92.4989 53.9211 92.5792 54.4123C92.7036 55.1243 92.76 55.8466 92.7474 56.5693C92.7366 57.0721 92.7319 57.537 92.7333 57.964V59.8879C92.7333 60.4015 92.738 60.8184 92.7474 61.1387C92.7527 61.3916 92.7771 61.6437 92.8204 61.8929C92.8363 62.0321 92.8984 62.162 92.9968 62.2618C93.0927 62.3307 93.2094 62.3643 93.3272 62.3571C93.4981 62.3577 93.6665 62.3167 93.8178 62.2375C93.9803 62.1484 94.1193 62.0219 94.2233 61.8685C94.3548 61.6707 94.4503 61.451 94.5051 61.2198C94.5611 60.8959 94.5767 60.5664 94.5517 60.2386Z" fill="#EA7424"/>
<path d="M103.105 55.3C103.169 55.2797 103.214 55.3263 103.24 55.4439C103.266 55.5939 103.258 55.7477 103.216 55.894C103.127 56.2443 102.974 56.5754 102.766 56.8711C102.497 57.2202 102.127 57.4779 101.706 57.609C101.706 59.2552 101.408 60.5391 100.814 61.4608C100.219 62.3825 99.3319 62.8441 98.152 62.8454H97.9067C96.7187 62.8454 95.8294 62.3825 95.2388 61.4568C94.6482 60.531 94.3536 59.2403 94.355 57.5847V57.3293C94.3476 56.5872 94.4094 55.8461 94.5394 55.1155C94.6357 54.5312 94.8421 53.9706 95.1476 53.4633C95.4205 53.0248 95.8063 52.6677 96.2646 52.4294C96.7892 52.1741 97.3681 52.0502 97.9513 52.0685H98.081C98.1653 52.0613 98.249 52.0876 98.3142 52.1415C98.3372 52.163 98.3554 52.1891 98.3677 52.2181C98.3799 52.2471 98.3858 52.2783 98.3851 52.3098C98.3853 52.3412 98.3792 52.3723 98.367 52.4012C98.3548 52.4302 98.3368 52.4563 98.3142 52.478C98.287 52.5031 98.2551 52.5224 98.2202 52.5346C98.1853 52.5468 98.1483 52.5517 98.1114 52.549H97.9331C97.6528 52.5375 97.3741 52.5961 97.1221 52.7193C96.8813 52.8738 96.7087 53.1146 96.6397 53.3923C96.5037 53.8622 96.4254 54.3469 96.4065 54.8357C96.3646 55.4601 96.343 56.2859 96.3417 57.313V57.6009C96.3417 58.5943 96.3619 59.4031 96.3984 60.0215C96.4148 60.512 96.4876 60.9991 96.6153 61.473C96.6806 61.7589 96.846 62.012 97.0816 62.1866C97.3278 62.3272 97.6093 62.3941 97.8925 62.3792H98.1642C98.4379 62.3903 98.7098 62.3295 98.9528 62.2028C99.1858 62.0435 99.3518 61.8039 99.419 61.5297C99.5463 61.0831 99.6218 60.6232 99.6441 60.1593C99.6873 59.5755 99.7089 58.8186 99.7089 57.8888H99.6765C99.2251 57.9016 98.7817 57.7671 98.4135 57.5056C98.0738 57.2535 97.7964 56.9268 97.6026 56.5508C97.4041 56.1726 97.2809 55.7596 97.2397 55.3345C97.1946 54.9302 97.2332 54.5209 97.3533 54.1323C97.4579 53.7829 97.6648 53.473 97.9472 53.2423C98.1025 53.1264 98.2792 53.0426 98.4671 52.9956C98.6551 52.9486 98.8505 52.9394 99.042 52.9686C99.4829 53.0045 99.9092 53.1434 100.287 53.3741C100.623 53.5968 100.901 53.8963 101.098 54.2478C101.324 54.6514 101.479 55.091 101.556 55.5473C101.652 56.095 101.703 56.6496 101.708 57.2056C102.361 56.9177 102.738 56.4576 102.833 55.8271C102.85 55.7066 102.88 55.5883 102.922 55.4743C102.936 55.4325 102.96 55.3947 102.992 55.3643C103.023 55.3339 103.062 55.3118 103.105 55.3ZM98.8595 53.439C98.7303 53.4223 98.599 53.4362 98.4761 53.4795C98.3532 53.5228 98.2422 53.5943 98.152 53.6883C97.9708 53.8975 97.8515 54.153 97.8074 54.4262C97.7503 54.7522 97.7503 55.0855 97.8074 55.4115C97.8592 55.7625 97.9709 56.1019 98.1378 56.415C98.2935 56.7194 98.5126 56.9869 98.7804 57.1995C99.049 57.4103 99.3797 57.5265 99.7211 57.53V57.3272C99.7211 56.5163 99.7211 55.8737 99.6968 55.3709C99.6914 54.9782 99.6562 54.5865 99.5913 54.1992C99.57 53.9879 99.4827 53.7886 99.342 53.6295C99.2064 53.5149 99.0369 53.4479 98.8595 53.439Z" fill="#EA7424"/>
<path d="M107.076 51.8983C107.455 51.8943 107.832 51.9511 108.193 52.0665C108.525 52.1768 108.824 52.3701 109.061 52.6281C109.321 52.925 109.513 53.275 109.624 53.6539C109.77 54.1624 109.839 54.69 109.827 55.2189V55.3446C109.828 56.2762 109.734 57.2055 109.545 58.1179C109.38 58.9452 109.118 59.7501 108.765 60.5161C108.48 61.1486 108.079 61.7221 107.583 62.2068C107.186 62.6107 106.647 62.8416 106.081 62.8495C105.554 62.867 105.032 62.7424 104.57 62.4886C104.153 62.2371 103.808 61.8798 103.573 61.4527C103.293 60.9398 103.104 60.3821 103.015 59.8045C102.897 59.0726 102.841 58.3321 102.847 57.5908V55.2513C102.825 54.633 102.805 54.1404 102.782 53.7775C102.772 53.4908 102.735 53.2058 102.671 52.9261C102.642 52.8437 102.637 52.7547 102.656 52.6696C102.676 52.5844 102.72 52.5067 102.782 52.4456C102.954 52.2977 103.166 52.2033 103.39 52.174C103.519 52.1412 103.653 52.1357 103.784 52.1578C103.913 52.1766 104.037 52.2171 104.153 52.2774C104.264 52.3347 104.363 52.414 104.443 52.5105C104.523 52.6052 104.57 52.7232 104.578 52.847C104.601 53.072 104.615 53.3842 104.619 53.7856C104.623 54.187 104.619 54.5965 104.619 55.002V55.6669C104.619 55.9507 104.619 56.2305 104.619 56.5082C104.619 56.786 104.619 57.0333 104.619 57.2462V57.6151C104.619 58.6085 104.633 59.4173 104.66 60.0357C104.669 60.5247 104.731 61.0113 104.844 61.4872C104.898 61.7679 105.05 62.0206 105.272 62.2008C105.506 62.3424 105.777 62.4096 106.05 62.3933C106.507 62.382 106.943 62.1955 107.267 61.8723C107.699 61.4605 108.051 60.9708 108.303 60.4289C108.638 59.7253 108.884 58.9822 109.034 58.2172C109.224 57.2833 109.316 56.3321 109.308 55.3791V55.2027C109.308 54.4952 109.215 54.0269 109.026 53.7836C108.838 53.5403 108.643 53.4775 108.44 53.5809C108.324 53.6423 108.229 53.7369 108.167 53.8525C108.051 54.032 107.894 54.1809 107.709 54.2864C107.516 54.3952 107.297 54.4515 107.076 54.4497C106.854 54.4479 106.637 54.388 106.446 54.276C106.255 54.164 106.096 54.0038 105.986 53.8114C105.876 53.619 105.819 53.4011 105.819 53.1795C105.818 53.0126 105.85 52.8472 105.914 52.693C105.978 52.5387 106.072 52.3988 106.19 52.2814C106.303 52.1594 106.44 52.0623 106.593 51.9963C106.745 51.9304 106.91 51.897 107.076 51.8983Z" fill="#EA7424"/>
<path d="M118.956 60.2383C118.95 60.1333 118.972 60.0285 119.019 59.9343C119.063 59.8593 119.108 59.8187 119.156 59.8146C119.205 59.8106 119.25 59.841 119.292 59.9099C119.343 60.0173 119.366 60.136 119.357 60.2546C119.366 60.6579 119.315 61.0604 119.205 61.4486C119.123 61.7425 118.986 62.0178 118.8 62.2595C118.648 62.4536 118.453 62.6097 118.23 62.7156C118.032 62.8104 117.815 62.8602 117.595 62.8616C117.218 62.8605 116.846 62.7724 116.509 62.6041C116.15 62.423 115.851 62.1413 115.649 61.7932C115.409 62.1085 115.109 62.3725 114.765 62.5697C114.381 62.7713 113.95 62.8665 113.517 62.8454C112.479 62.8454 111.691 62.5805 111.155 62.0507C110.618 61.5209 110.348 60.7222 110.344 59.6545C110.332 59.0916 110.477 58.5365 110.762 58.0509C111.043 57.5878 111.419 57.1886 111.864 56.8792C112.343 56.5467 112.868 56.2871 113.423 56.1088C114.006 55.9152 114.606 55.7793 115.215 55.7034C115.193 55.0729 115.157 54.556 115.102 54.1546C115.069 53.8287 114.986 53.51 114.855 53.2099C114.764 53.0041 114.605 52.8363 114.405 52.7355C114.178 52.6432 113.934 52.5996 113.689 52.6078H113.575C113.384 52.6085 113.194 52.6247 113.006 52.6564C112.823 52.685 112.643 52.7277 112.466 52.7841C112.322 52.8284 112.188 52.9022 112.073 53.0011C112.028 53.0344 111.992 53.0796 111.971 53.1319C111.949 53.1841 111.943 53.2413 111.952 53.297C111.968 53.3651 111.996 53.4302 112.033 53.4896C112.078 53.5665 112.145 53.6279 112.225 53.666C112.42 53.7723 112.58 53.9329 112.685 54.1282C112.801 54.3189 112.862 54.5377 112.862 54.7607C112.849 55.0633 112.72 55.3493 112.502 55.559C112.283 55.7687 111.992 55.8857 111.689 55.8857C111.386 55.8857 111.095 55.7687 110.876 55.559C110.658 55.3493 110.529 55.0633 110.516 54.7607C110.515 54.4228 110.58 54.0879 110.709 53.7755C110.838 53.4579 111.035 53.1728 111.287 52.9402C111.567 52.6868 111.895 52.4912 112.252 52.3645C112.685 52.2112 113.142 52.1377 113.602 52.1476H113.683C114.273 52.1249 114.86 52.2343 115.402 52.4679C115.851 52.6919 116.213 53.0583 116.432 53.5099C116.709 54.104 116.881 54.742 116.939 55.3952C117.037 56.338 117.083 57.2855 117.074 58.2334V59.8998C117.074 60.4134 117.08 60.8303 117.091 61.1506C117.094 61.4036 117.118 61.6558 117.164 61.9047C117.178 62.0444 117.24 62.1748 117.34 62.2737C117.435 62.3426 117.551 62.3762 117.668 62.369C117.839 62.3699 118.008 62.3288 118.159 62.2494C118.322 62.1608 118.461 62.0343 118.564 61.8804C118.698 61.6834 118.793 61.4635 118.846 61.2317C118.925 60.9067 118.962 60.5728 118.956 60.2383ZM113.504 62.3872C113.807 62.4017 114.105 62.3051 114.342 62.1156C114.563 61.9239 114.738 61.6857 114.857 61.4182C114.99 61.1164 115.081 60.7979 115.128 60.4715C115.183 60.1248 115.219 59.7842 115.242 59.4579V56.2143C114.758 56.2796 114.283 56.3951 113.823 56.5589C113.48 56.6801 113.168 56.8745 112.908 57.1285C112.671 57.3752 112.502 57.679 112.418 58.0104C112.314 58.4301 112.266 58.8615 112.274 59.2936C112.267 59.8472 112.289 60.4006 112.339 60.9519C112.359 61.2746 112.432 61.5918 112.556 61.8906C112.626 62.071 112.764 62.2166 112.941 62.296C113.122 62.3595 113.313 62.3904 113.504 62.3872Z" fill="#EA7424"/>
<path d="M121.889 51.201C121.883 51.2748 121.849 51.3434 121.793 51.3925C121.738 51.4416 121.665 51.4674 121.591 51.4645C120.598 51.4199 121.107 51.4301 120.675 51.3713V55.3447C120.675 55.8258 120.675 56.3043 120.675 56.78C120.675 57.2557 120.675 57.699 120.675 58.1099C120.675 58.5153 120.675 58.8863 120.675 59.2005C120.675 59.5147 120.675 59.7438 120.675 59.8817C120.675 60.3953 120.68 60.8122 120.691 61.1325C120.694 61.3855 120.719 61.6377 120.764 61.8866C120.779 62.0263 120.841 62.1567 120.94 62.2556C121.036 62.3241 121.152 62.3578 121.269 62.3509C121.439 62.3519 121.607 62.3137 121.759 62.2394C121.925 62.1545 122.065 62.0272 122.165 61.8704C122.297 61.6701 122.393 61.4476 122.447 61.2136C122.523 60.8984 122.558 60.5748 122.552 60.2506C122.547 60.1428 122.57 60.0354 122.617 59.9384C122.66 59.8574 122.704 59.8148 122.753 59.8107C122.801 59.8067 122.846 59.8371 122.889 59.906C122.94 60.0134 122.962 60.1321 122.954 60.2506C122.963 60.654 122.911 61.0565 122.801 61.4447C122.719 61.7382 122.581 62.0134 122.396 62.2556C122.243 62.4492 122.047 62.6052 121.824 62.7117C121.635 62.7982 121.429 62.8438 121.22 62.8455C120.932 62.8462 120.646 62.794 120.377 62.6915C120.1 62.5884 119.85 62.4242 119.645 62.211C119.415 61.9689 119.238 61.6827 119.122 61.3697C118.978 60.9689 118.909 60.5448 118.919 60.1189V58.1382C118.919 57.5868 118.919 56.9868 118.919 56.334C118.919 55.6812 118.919 55.0548 118.919 54.4507C118.919 53.8465 118.919 53.3032 118.919 52.8289C118.919 52.3545 118.919 52.0058 118.919 51.8031C118.919 51.6733 118.919 51.5537 118.919 51.4422C118.919 51.3307 118.919 51.2192 118.919 51.1138C118.587 51.0591 118.285 51.0084 118.011 50.9597C117.737 50.9111 117.494 50.8624 117.279 50.8077C117.05 50.7774 116.831 50.6895 116.645 50.5523C116.553 50.455 116.537 50.3718 116.596 50.3029C116.69 50.2166 116.808 50.1607 116.935 50.1428C117.112 50.1034 117.295 50.1034 117.472 50.1428C117.675 50.1955 117.894 50.2421 118.125 50.2786L118.887 50.4002C118.865 50.1853 118.846 49.9948 118.83 49.8549C118.818 49.7246 118.794 49.5957 118.759 49.4697C118.73 49.3873 118.725 49.2983 118.745 49.2132C118.764 49.1281 118.808 49.0504 118.871 48.9892C119.042 48.8399 119.254 48.7447 119.479 48.7156C119.612 48.6829 119.749 48.6774 119.884 48.6994C120.015 48.7195 120.143 48.7599 120.261 48.819C120.371 48.8755 120.467 48.955 120.543 49.0521C120.619 49.1488 120.663 49.2661 120.671 49.3886C120.695 49.5694 120.706 49.7516 120.703 49.934C120.703 50.1488 120.703 50.384 120.72 50.6394C121.02 50.6728 121.323 50.687 121.626 50.682C121.664 50.6825 121.703 50.6908 121.738 50.7066C121.773 50.7223 121.805 50.7452 121.831 50.7736C121.857 50.8021 121.878 50.8357 121.89 50.8722C121.903 50.9087 121.908 50.9475 121.905 50.9861L121.889 51.201Z" fill="#EA7424"/>
<path d="M123.166 51.2271C122.958 51.227 122.753 51.1757 122.57 51.0777C122.386 50.9797 122.23 50.8379 122.114 50.665C121.998 50.4921 121.927 50.2933 121.906 50.0863C121.885 49.8792 121.916 49.6702 121.995 49.4778C122.074 49.2853 122.2 49.1154 122.36 48.9829C122.521 48.8504 122.711 48.7595 122.915 48.7182C123.119 48.6769 123.33 48.6865 123.53 48.7461C123.729 48.8057 123.911 48.9135 124.058 49.0599C124.178 49.1767 124.274 49.3163 124.339 49.4706C124.404 49.6248 124.438 49.7906 124.438 49.958C124.438 50.1254 124.404 50.2912 124.339 50.4454C124.274 50.5997 124.178 50.7393 124.058 50.8561C123.942 50.9746 123.803 51.0685 123.65 51.1323C123.497 51.196 123.332 51.2282 123.166 51.2271ZM125.932 60.2382C125.927 60.1329 125.949 60.0281 125.996 59.9341C126.039 59.8591 126.086 59.8186 126.134 59.8145C126.183 59.8104 126.228 59.8409 126.27 59.9098C126.321 60.0171 126.343 60.1359 126.335 60.2544C126.343 60.6579 126.291 61.0603 126.181 61.4485C126.1 61.7427 125.962 62.0181 125.775 62.2594C125.623 62.4527 125.428 62.6087 125.206 62.7155C125.007 62.8102 124.79 62.8601 124.569 62.8615C124.281 62.8618 123.995 62.8096 123.726 62.7074C123.449 62.6038 123.199 62.4397 122.994 62.2269C122.765 61.9849 122.587 61.6986 122.471 61.3856C122.327 60.9848 122.258 60.5607 122.268 60.1348V59.1881C122.268 58.7502 122.268 58.2799 122.268 57.769C122.268 57.2581 122.268 56.7838 122.268 56.3175V55.2512C122.248 54.6328 122.226 54.1402 122.206 53.7773C122.194 53.4907 122.156 53.2057 122.092 52.9259C122.063 52.8434 122.058 52.7541 122.078 52.6689C122.098 52.5836 122.142 52.506 122.206 52.4454C122.377 52.2968 122.589 52.2023 122.814 52.1738C122.942 52.141 123.076 52.1355 123.207 52.1576C123.336 52.1767 123.462 52.2172 123.578 52.2772C123.689 52.3345 123.787 52.4139 123.866 52.5103C123.946 52.6053 123.994 52.723 124.004 52.8468C124.024 53.0719 124.038 53.3841 124.042 53.7855C124.046 54.1868 124.042 54.5964 124.042 55.0018V56.2688C124.042 56.5891 124.042 56.9358 124.042 57.3108C124.042 57.6859 124.042 58.0447 124.042 58.3934V59.8915C124.042 60.4051 124.048 60.8221 124.058 61.1424C124.063 61.3953 124.087 61.6475 124.131 61.8965C124.148 62.0355 124.21 62.1651 124.308 62.2655C124.404 62.3343 124.52 62.3679 124.638 62.3607C124.809 62.3614 124.977 62.3203 125.129 62.2411C125.291 62.152 125.43 62.0255 125.534 61.8722C125.666 61.6743 125.761 61.4546 125.816 61.2234C125.895 60.9011 125.934 60.5702 125.932 60.2382Z" fill="#EA7424"/>
<path d="M134.484 55.3C134.549 55.2797 134.594 55.3263 134.62 55.4439C134.647 55.5936 134.64 55.7476 134.598 55.8939C134.507 56.2437 134.354 56.5745 134.148 56.8711C133.878 57.2202 133.507 57.4778 133.086 57.609C133.086 59.2551 132.788 60.5391 132.194 61.4608C131.599 62.3825 130.712 62.844 129.532 62.8454H129.291C128.101 62.8454 127.211 62.3825 126.621 61.4567C126.03 60.5309 125.736 59.2403 125.737 57.5847V57.3292C125.731 56.5872 125.792 55.8462 125.921 55.1155C126.019 54.5315 126.225 53.971 126.53 53.4633C126.802 53.0247 127.188 52.6676 127.647 52.4294C128.171 52.1742 128.75 52.0504 129.333 52.0685H129.463C129.505 52.0647 129.547 52.0692 129.587 52.0817C129.627 52.0943 129.664 52.1146 129.696 52.1415C129.719 52.1629 129.738 52.1889 129.751 52.2179C129.763 52.2468 129.769 52.2782 129.769 52.3098C129.769 52.3413 129.762 52.3725 129.75 52.4014C129.737 52.4303 129.719 52.4564 129.696 52.478C129.669 52.5031 129.637 52.5224 129.602 52.5346C129.567 52.5468 129.53 52.5517 129.493 52.549H129.329C129.049 52.5379 128.77 52.5964 128.518 52.7193C128.277 52.8738 128.105 53.1146 128.036 53.3923C127.901 53.8624 127.823 54.347 127.803 54.8357C127.759 55.4601 127.738 56.2859 127.738 57.313V57.6009C127.738 58.5942 127.758 59.4031 127.795 60.0214C127.812 60.5119 127.885 60.9988 128.011 61.4729C128.077 61.7588 128.242 62.0119 128.478 62.1865C128.724 62.3269 129.005 62.3937 129.289 62.3791H129.562C129.835 62.3903 130.107 62.3295 130.349 62.2028C130.583 62.0442 130.749 61.8042 130.815 61.5297C130.942 61.083 131.018 60.6232 131.04 60.1593C131.083 59.5754 131.105 58.8186 131.105 57.8888H131.073C130.622 57.9018 130.179 57.7673 129.812 57.5056C129.468 57.2544 129.188 56.9278 128.991 56.5508C128.793 56.1725 128.67 55.7594 128.63 55.3344C128.584 54.9303 128.622 54.5211 128.741 54.1323C128.846 53.7823 129.053 53.472 129.337 53.2423C129.492 53.1263 129.668 53.0423 129.856 52.9953C130.044 52.9483 130.239 52.9392 130.43 52.9686C130.871 53.0045 131.297 53.1434 131.675 53.3741C132.011 53.5962 132.289 53.8959 132.486 54.2478C132.708 54.6494 132.86 55.0862 132.936 55.5392C133.032 56.0868 133.082 56.6415 133.088 57.1975C133.743 56.9096 134.118 56.4501 134.213 55.8189C134.23 55.6985 134.26 55.5802 134.302 55.4662C134.317 55.4259 134.341 55.3897 134.373 55.3608C134.405 55.3319 134.443 55.311 134.484 55.3ZM130.241 53.4389C130.112 53.4221 129.981 53.4359 129.858 53.4793C129.735 53.5226 129.624 53.5942 129.534 53.6883C129.351 53.8968 129.231 54.1526 129.187 54.4262C129.131 54.7522 129.131 55.0854 129.187 55.4115C129.241 55.762 129.353 56.1011 129.518 56.4149C129.674 56.7189 129.893 56.9863 130.16 57.1995C130.429 57.4103 130.76 57.5265 131.101 57.5299V57.3272C131.101 56.5163 131.101 55.8737 131.077 55.3709C131.071 54.9782 131.036 54.5865 130.971 54.1992C130.95 53.9878 130.863 53.7886 130.722 53.6295C130.587 53.5153 130.418 53.4484 130.241 53.4389Z" fill="#EA7424"/>
<path d="M142.78 60.2387C142.774 60.1333 142.797 60.0284 142.845 59.9346C142.888 59.8596 142.932 59.819 142.981 59.815C143.029 59.8109 143.074 59.8413 143.117 59.9102C143.168 60.0176 143.19 60.1363 143.181 60.2549C143.19 60.6582 143.139 61.0607 143.029 61.4489C142.947 61.7425 142.809 62.0176 142.624 62.2598C142.471 62.4534 142.275 62.6094 142.052 62.716C141.854 62.8109 141.637 62.8608 141.418 62.8619C141.124 62.8616 140.833 62.8094 140.558 62.7079C140.27 62.6042 140.006 62.4404 139.786 62.2274C139.542 61.9889 139.35 61.7024 139.222 61.3861C139.068 60.9876 138.994 60.5625 139.005 60.1353C139.005 59.9427 139.005 59.6933 139.005 59.3892C139.005 59.0852 139.005 58.7811 139.005 58.4912C139.005 58.2013 139.005 57.9377 139.005 57.7147C139.005 57.4917 139.005 57.36 139.005 57.3296C139.005 56.3038 139.005 55.478 139.005 54.8523C139.012 54.369 138.978 53.8861 138.902 53.4089C138.903 53.2856 138.878 53.1635 138.827 53.0512C138.776 52.9389 138.701 52.8391 138.608 52.7588C138.514 52.6784 138.404 52.6195 138.286 52.5861C138.167 52.5527 138.042 52.5457 137.921 52.5655C137.739 52.5583 137.558 52.5909 137.389 52.6609C137.221 52.7309 137.071 52.8367 136.948 52.971C136.691 53.2698 136.499 53.6192 136.386 53.9968C136.245 54.4481 136.156 54.914 136.121 55.3854C136.079 55.8922 136.052 56.3862 136.039 56.8673V59.7541C136.062 60.3745 136.084 60.8664 136.104 61.23C136.115 61.5161 136.153 61.8005 136.218 62.0794C136.247 62.162 136.251 62.2511 136.231 62.3362C136.211 62.4214 136.167 62.499 136.104 62.5599C135.932 62.7107 135.722 62.811 135.496 62.8498C135.363 62.8819 135.226 62.8874 135.091 62.866C134.961 62.8452 134.836 62.8012 134.722 62.7362C134.612 62.6742 134.514 62.5932 134.432 62.497C134.353 62.4013 134.306 62.2839 134.296 62.1605C134.274 61.9456 134.262 61.6354 134.255 61.23C134.249 60.8245 134.255 60.4191 134.255 60.0136V55.0915C134.245 54.4711 134.229 53.9805 134.207 53.6156C134.196 53.3296 134.159 53.0452 134.095 52.7662C133.998 52.381 134.239 52.1317 134.819 52.0121C134.948 51.9809 135.082 51.9761 135.212 51.9979C135.341 52.0168 135.466 52.0572 135.581 52.1175C135.691 52.1734 135.788 52.253 135.863 52.3506C135.938 52.4476 135.984 52.5647 135.993 52.6871C136.004 52.7542 136.009 52.822 136.009 52.8899C136.009 52.9671 136.014 53.0443 136.023 53.121C136.216 52.8125 136.478 52.5524 136.788 52.3608C137.126 52.1641 137.513 52.0665 137.905 52.079C138.387 52.0663 138.867 52.1397 139.324 52.2959C139.706 52.4382 140.035 52.6961 140.264 53.0338C140.533 53.4523 140.714 53.9214 140.795 54.4123C140.919 55.1245 140.975 55.8467 140.964 56.5693C140.954 57.0721 140.949 57.537 140.947 57.9641V59.8879C140.947 60.4015 140.953 60.8185 140.964 61.1388C140.967 61.3917 140.991 61.644 141.037 61.8929C141.051 62.0326 141.113 62.1629 141.213 62.2619C141.309 62.3307 141.426 62.3644 141.543 62.3571C141.714 62.358 141.881 62.3169 142.032 62.2375C142.194 62.1482 142.333 62.0218 142.437 61.8686C142.569 61.671 142.664 61.4512 142.717 61.2199C142.78 60.8968 142.801 60.5671 142.78 60.2387Z" fill="#EA7424"/>
<path d="M149.981 48.7093C150.573 48.7084 151.157 48.8474 151.686 49.1147C152.261 49.4103 152.757 49.8391 153.133 50.3656C153.596 51.0132 153.939 51.7381 154.147 52.5063C154.417 53.5094 154.544 54.5452 154.526 55.5837V55.8574C154.542 56.9084 154.386 57.955 154.062 58.955C153.808 59.7481 153.41 60.4876 152.888 61.1364C152.448 61.6802 151.895 62.121 151.266 62.4277C150.711 62.7008 150.101 62.8463 149.482 62.8534H147.41C147.168 62.8757 146.926 62.8188 146.719 62.6913C146.619 62.6375 146.534 62.5596 146.473 62.4647C146.411 62.3698 146.373 62.2609 146.364 62.148C146.344 61.9229 146.33 61.6107 146.324 61.2093C146.318 60.8079 146.324 60.3984 146.324 59.993V51.8049C146.314 51.1846 146.299 50.6926 146.277 50.3291C146.266 50.043 146.228 49.7586 146.164 49.4797C146.068 49.0945 146.307 48.8431 146.887 48.7255C147.016 48.693 147.149 48.6848 147.281 48.7012C147.411 48.7167 147.537 48.7573 147.652 48.8208C147.759 48.8827 147.854 48.9646 147.931 49.062C148.006 49.1592 148.051 49.2761 148.061 49.3986C148.071 49.4513 148.077 49.5049 148.077 49.5587C148.077 49.6179 148.082 49.677 148.093 49.7351C148.256 49.4148 148.507 49.1481 148.817 48.9668C149.176 48.7817 149.577 48.6929 149.981 48.7093ZM152.521 55.5878C152.541 54.4887 152.473 53.3898 152.318 52.3016C152.227 51.6293 152.04 50.9734 151.765 50.3534C151.6 49.963 151.316 49.6345 150.954 49.4148C150.66 49.2568 150.331 49.1739 149.997 49.1735C149.74 49.1679 149.483 49.2007 149.235 49.2708C149.036 49.3293 148.855 49.4335 148.704 49.5749C148.549 49.73 148.428 49.9157 148.349 50.1203C148.247 50.3842 148.164 50.6552 148.102 50.9312C148.102 51.0366 148.118 51.1339 148.118 51.2353V53.6963C148.118 54.2153 148.118 54.7728 148.118 55.3729C148.118 55.9729 148.118 56.5507 148.118 57.1123V59.7335C148.138 60.3538 148.16 60.8465 148.181 61.2093C148.191 61.4954 148.229 61.7799 148.294 62.0588C148.306 62.1167 148.312 62.1759 148.31 62.2351C148.434 62.2742 148.56 62.3034 148.687 62.3223C148.907 62.3623 149.131 62.3813 149.354 62.3791H149.517C149.832 62.3649 150.141 62.2855 150.425 62.1459C150.836 61.9338 151.18 61.6125 151.42 61.2174C151.796 60.6073 152.066 59.9375 152.217 59.2368C152.457 58.131 152.564 57.0007 152.537 55.8696L152.521 55.5878Z" fill="#EA7424"/>
<path d="M158.824 52.0768C159.385 52.0621 159.94 52.1979 160.431 52.47C160.877 52.7274 161.254 53.0874 161.532 53.5202C161.826 53.983 162.038 54.4933 162.158 55.0284C162.294 55.6065 162.362 56.1984 162.361 56.7921V56.9036C162.361 57.5794 162.091 58.0524 161.55 58.3227C161.01 58.593 160.206 58.7282 159.138 58.7282H157.086C157.095 59.3483 157.149 59.9669 157.248 60.5791C157.305 60.9673 157.424 61.3439 157.601 61.694C157.724 61.9296 157.918 62.1199 158.157 62.2373C158.402 62.3441 158.668 62.3959 158.935 62.3894C159.201 62.3869 159.466 62.3522 159.724 62.286C160 62.2171 160.263 62.1034 160.502 61.9495C160.752 61.7866 160.97 61.5807 161.147 61.3413C161.346 61.0615 161.48 60.7409 161.54 60.4027C161.551 60.3174 161.591 60.2385 161.654 60.1797C161.673 60.1602 161.698 60.1463 161.724 60.1392C161.751 60.132 161.779 60.132 161.806 60.1391C161.833 60.152 161.858 60.1708 161.877 60.1943C161.896 60.2178 161.91 60.2454 161.917 60.275C161.942 60.37 161.942 60.4699 161.917 60.5649C161.854 60.929 161.72 61.2774 161.524 61.5906C161.345 61.8682 161.116 62.1101 160.849 62.3042C160.583 62.4924 160.287 62.633 159.973 62.7198C159.643 62.8125 159.302 62.8589 158.959 62.8577C158.398 62.8672 157.842 62.7436 157.338 62.4968C156.857 62.2509 156.441 61.8962 156.121 61.4609C155.76 60.9645 155.496 60.4047 155.341 59.8107C155.152 59.087 155.063 58.3408 155.075 57.5929V57.3375C155.066 56.593 155.145 55.85 155.308 55.1237C155.437 54.537 155.668 53.9776 155.992 53.4715C156.275 53.0388 156.662 52.6834 157.117 52.4376C157.604 52.188 158.145 52.064 158.692 52.0768H158.824ZM160.383 56.2306C160.383 54.9696 160.272 54.0418 160.052 53.4472C159.833 52.8552 159.428 52.5572 158.836 52.5572H158.659C158.421 52.5524 158.185 52.6111 157.976 52.7275C157.739 52.8892 157.563 53.1264 157.478 53.4005C157.314 53.8666 157.211 54.3517 157.171 54.844C157.093 55.6673 157.058 56.4942 157.066 57.3213V58.2497H158.688C158.939 58.2539 159.191 58.2274 159.436 58.1707C159.635 58.1234 159.816 58.0207 159.959 57.8747C160.109 57.7074 160.217 57.5064 160.273 57.2888C160.35 56.9792 160.384 56.6609 160.377 56.3421L160.383 56.2306Z" fill="#EA7424"/>
<path d="M171.603 60.2387C171.598 60.1334 171.621 60.0286 171.668 59.9346C171.711 59.8596 171.755 59.819 171.804 59.815C171.853 59.8109 171.897 59.8413 171.942 59.9102C171.992 60.0178 172.014 60.1365 172.005 60.2549C172.014 60.6582 171.963 61.0607 171.853 61.4489C171.771 61.7428 171.633 62.0181 171.447 62.2598C171.294 62.4534 171.098 62.6094 170.876 62.716C170.678 62.8109 170.461 62.8608 170.241 62.8619C169.948 62.8616 169.657 62.8094 169.382 62.7079C169.093 62.6037 168.83 62.44 168.609 62.2274C168.365 61.9894 168.174 61.7028 168.048 61.3861C167.892 60.9879 167.818 60.5625 167.831 60.1353C167.831 59.9427 167.831 59.6933 167.831 59.3892C167.831 59.0852 167.831 58.7811 167.831 58.4912C167.831 58.2013 167.831 57.9377 167.831 57.7147C167.831 57.4917 167.831 57.36 167.831 57.3296C167.831 56.3038 167.831 55.478 167.831 54.8523C167.836 54.369 167.801 53.8862 167.725 53.4089C167.703 53.1531 167.59 52.914 167.405 52.7358C167.209 52.6094 166.977 52.5497 166.744 52.5655C166.562 52.5585 166.382 52.5911 166.214 52.6612C166.046 52.7312 165.896 52.8369 165.773 52.971C165.515 53.2691 165.323 53.6188 165.209 53.9968C165.069 54.4481 164.98 54.914 164.944 55.3854C164.901 55.8922 164.874 56.3862 164.865 56.8673V59.7541C164.885 60.3745 164.907 60.8671 164.928 61.23C164.938 61.5161 164.977 61.8005 165.041 62.0794C165.07 62.162 165.075 62.2511 165.055 62.3362C165.035 62.4214 164.99 62.499 164.928 62.5599C164.756 62.7107 164.545 62.811 164.319 62.8498C164.191 62.8806 164.057 62.8861 163.926 62.866C163.796 62.8452 163.67 62.8013 163.555 62.7362C163.445 62.6748 163.348 62.5937 163.267 62.497C163.187 62.4023 163.139 62.2845 163.129 62.1605C163.109 61.9456 163.095 61.6354 163.089 61.23C163.083 60.8245 163.089 60.4191 163.089 60.0136V55.0915C163.089 54.4711 163.063 53.9805 163.042 53.6156C163.031 53.3295 162.993 53.0451 162.929 52.7662C162.834 52.381 163.075 52.1317 163.653 52.0121C163.781 51.9809 163.915 51.9761 164.046 51.9979C164.175 52.017 164.301 52.0575 164.417 52.1175C164.526 52.1739 164.621 52.2535 164.697 52.3506C164.773 52.4471 164.818 52.5644 164.826 52.6871C164.837 52.7542 164.843 52.822 164.843 52.8899C164.825 52.9639 164.813 53.0391 164.806 53.1149C164.998 52.806 165.259 52.5458 165.568 52.3547C165.908 52.1578 166.295 52.0602 166.687 52.0729C167.169 52.0602 167.65 52.1337 168.106 52.2898C168.489 52.4316 168.818 52.6896 169.047 53.0277C169.316 53.4462 169.497 53.9153 169.578 54.4063C169.702 55.1184 169.758 55.8406 169.746 56.5633C169.736 57.066 169.73 57.5309 169.73 57.958V59.8819C169.73 60.3954 169.736 60.8124 169.746 61.1327C169.75 61.3857 169.774 61.6379 169.819 61.8868C169.835 62.0261 169.897 62.156 169.996 62.2558C170.092 62.3246 170.208 62.3583 170.326 62.3511C170.497 62.3517 170.665 62.3106 170.817 62.2315C170.979 62.1423 171.118 62.0159 171.222 61.8625C171.35 61.6671 171.443 61.451 171.496 61.2239C171.573 60.9012 171.609 60.5703 171.603 60.2387Z" fill="#EA7424"/>
<path d="M175.39 51.2556C175.384 51.3437 175.343 51.4256 175.276 51.4839C175.21 51.5422 175.124 51.5723 175.036 51.5678C174.073 51.5192 174.332 51.4888 173.341 51.3651V55.3446C173.341 55.8257 173.341 56.3042 173.341 56.7799C173.341 57.2556 173.341 57.6989 173.341 58.1098C173.341 58.5152 173.341 58.8862 173.341 59.2004C173.341 59.5147 173.341 59.7437 173.341 59.8816C173.341 60.3952 173.346 60.8121 173.357 61.1324C173.362 61.3853 173.387 61.6374 173.43 61.8865C173.446 62.0258 173.508 62.1557 173.606 62.2555C173.702 62.3243 173.819 62.358 173.937 62.3508C174.107 62.3513 174.274 62.3131 174.427 62.2393C174.593 62.1539 174.732 62.0267 174.833 61.8703C174.973 61.6743 175.079 61.4555 175.145 61.2236C175.219 60.9082 175.254 60.5847 175.248 60.2607C175.245 60.1529 175.267 60.0458 175.313 59.9485C175.356 59.8674 175.403 59.8248 175.449 59.8208C175.496 59.8167 175.544 59.8471 175.587 59.9161C175.637 60.0236 175.659 60.1423 175.65 60.2607C175.659 60.6641 175.608 61.0665 175.498 61.4547C175.416 61.7486 175.278 62.024 175.092 62.2656C174.939 62.4592 174.743 62.6152 174.521 62.7218C174.323 62.8167 174.106 62.8666 173.886 62.8677C173.598 62.8683 173.312 62.816 173.043 62.7137C172.766 62.6101 172.516 62.4459 172.311 62.2332C172.081 61.9912 171.903 61.7049 171.788 61.3919C171.644 60.9911 171.575 60.567 171.585 60.1411V58.1605C171.585 57.609 171.585 57.009 171.585 56.3562C171.585 55.7034 171.585 55.077 171.585 54.4729C171.585 53.8688 171.585 53.3255 171.585 52.8511C171.585 52.3767 171.585 52.028 171.585 51.8253C171.585 51.6955 171.585 51.5759 171.585 51.4644C171.585 51.3529 171.585 51.2414 171.585 51.136C171.253 51.0813 170.951 51.0306 170.677 50.982C170.403 50.9333 170.16 50.8846 169.947 50.8299C169.717 50.7995 169.498 50.7117 169.311 50.5745C169.219 50.4772 169.205 50.3941 169.264 50.3251C169.357 50.2388 169.475 50.183 169.601 50.165C169.778 50.1256 169.962 50.1256 170.14 50.165C170.343 50.2177 170.559 50.2643 170.791 50.3008L171.553 50.4224C171.533 50.2075 171.514 50.017 171.498 49.8771C171.486 49.7467 171.461 49.6178 171.425 49.4919C171.396 49.4094 171.391 49.3202 171.412 49.2351C171.432 49.15 171.476 49.0724 171.539 49.0115C171.709 48.8614 171.921 48.7661 172.147 48.7378C172.279 48.7051 172.417 48.6996 172.552 48.7216C172.684 48.7417 172.812 48.7821 172.931 48.8412C173.04 48.8983 173.135 48.9777 173.211 49.0743C173.286 49.1715 173.331 49.2884 173.341 49.4108C173.364 49.5917 173.375 49.7739 173.373 49.9562C173.373 50.1711 173.373 50.4062 173.389 50.6616C174.011 50.7559 174.638 50.804 175.267 50.8056C175.318 50.8087 175.367 50.8314 175.402 50.8691C175.438 50.9068 175.457 50.9566 175.457 51.0083L175.39 51.2556Z" fill="#EA7424"/>
<path d="M67.3824 52.0767C68.2168 51.7479 68.9169 51.1491 69.3711 50.3758C71.9457 45.9929 80.7237 30.5412 82.4895 20.5428C84.5715 8.7928 73.8088 0.864218 65.268 0.0857529C63.8002 -0.0480458 49.0499 -0.846783 37.2919 7.03112C37.2919 7.03112 52.1273 -0.0358822 59.0159 1.46631C65.3815 2.85295 71.0436 1.69336 76.1503 9.16987C81.2569 16.6464 79.3493 22.0227 77.2429 27.4151" fill="#EA7424"/>
<path d="M19.452 59.541V68.0129C19.452 71.6525 20.8977 75.1431 23.4711 77.7169C26.0445 80.2907 29.5349 81.7369 33.1745 81.7374H37.6C37.9189 81.7375 38.2296 81.6364 38.4875 81.4489C38.7453 81.2613 38.9371 80.9968 39.0353 80.6934C39.7894 78.3438 41.989 72.704 46.1651 70.9038C46.1651 70.9038 50.3757 81.9766 56.9988 85.652C57.2078 85.769 57.4382 85.8427 57.6763 85.8685C57.9145 85.8944 58.1554 85.8719 58.3846 85.8024C58.6138 85.7329 58.8267 85.6179 59.0104 85.4642C59.1941 85.3106 59.3449 85.1214 59.4538 84.908C61.4972 80.8677 68.473 70.2145 78.8445 71.0335C83.0409 71.366 86.4872 70.8652 90.2295 71.1795C97.8763 71.8221 104.771 73.3405 112.314 74.9441C123.553 77.3302 146.022 77.6038 155.383 75.309C160.695 74.0075 161.333 73.7622 164.611 72.9898C169.603 71.814 171.468 70.6585 177 67.9764L176.23 66.6161C176.23 66.6161 171.291 69.1603 168.812 69.8942C166.333 70.6281 157.508 74.4839 147.964 74.6684C138.419 74.8529 131.577 74.6684 126.69 74.117C121.802 73.5656 111.301 72.485 104.416 71.1997C97.5317 69.9145 87.0204 68.171 81.9705 68.171C76.9206 68.171 71.9518 68.242 66.535 72.0978C61.1182 75.9537 57.538 82.747 57.538 82.747C57.538 82.747 48.8208 73.9345 48.0829 67.6906C48.0829 67.6906 41.393 67.1412 36.8905 78.9824L32.469 79.0432C31.2945 79.0596 30.1284 78.8424 29.0385 78.4042C27.9486 77.966 26.9566 77.3156 26.1203 76.4908C25.2839 75.6659 24.6199 74.6831 24.1666 73.5994C23.7134 72.5157 23.4801 71.3527 23.4802 70.178V60.7351C23.4802 60.4191 23.3549 60.116 23.1319 59.8922C22.9088 59.6684 22.6062 59.5421 22.2902 59.541H19.452Z" fill="#EA7424"/>
<path d="M13.8549 54.8541C7.6657 45.7598 2.95436 35.9094 5.48032 25.6981C8.59824 13.0967 21.3192 12.2311 28.7775 15.8011C34.3991 18.4892 40.9755 22.8437 50.2157 23.0221C64.6376 23.3019 70.3808 8.13196 70.3808 8.13196H68.2947C68.2947 8.13196 65.1464 13.9218 62.2414 16.8268C60.0114 19.0568 56.6441 20.6786 53.2282 21.2868C49.9055 21.8646 47.7202 21.5098 44.0792 20.5286C40.8924 19.6691 35.3336 17.0823 32.5239 15.5943C31.713 15.1604 29.8884 14.4408 29.483 14.2563C27.1902 13.192 23.089 12.6345 19.8029 12.8899C16.1011 13.1778 13.6137 14.2543 11.1242 15.5335C8.99558 16.6241 4.93499 20.4374 3.4774 24.3601C2.0198 28.2829 -0.710908 37.8231 11.033 56.7252L13.8549 54.8541Z" fill="#EA7424"/>
<path d="M11.8195 56.2366C5.57755 46.8728 0.825668 36.7304 3.37392 26.2171C6.51819 13.2427 19.3446 12.3527 26.8738 16.0281C32.5501 18.7953 39.1752 23.2796 48.4945 23.4641C63.038 23.7499 68.8278 8.13196 68.8278 8.13196H66.7175C66.7175 8.13196 63.5428 14.0921 60.6053 17.0823C58.3571 19.3792 54.9635 21.0597 51.5171 21.674C48.1661 22.27 45.9625 21.9031 42.2911 20.8935C39.084 20.0096 33.4766 17.3418 30.6384 15.8132C29.8093 15.3672 27.9746 14.6252 27.5793 14.4367C25.2662 13.34 21.1306 12.7561 17.8161 13.0278C14.0839 13.3339 11.5742 14.4367 9.06442 15.7524C6.91959 16.8775 2.82251 20.8003 1.36086 24.8406C-0.100787 28.8809 -2.86393 38.7029 8.97928 58.1646L11.8195 56.2366Z" fill="#72C1B7"/>
<path d="M63.8246 1.01437C62.3568 0.884625 49.9318 -0.112783 37.2919 7.03126C37.2919 7.03126 48.0687 2.10909 56.5508 2.01178C63.0664 1.93677 69.5941 2.61995 74.7008 10.0904C79.8074 17.5608 77.8998 22.9432 75.7935 28.3357C73.6871 33.7281 64.7591 51.8984 64.7591 51.8984L56.4048 28.0944C56.2286 27.5907 55.8975 27.1557 55.4589 26.8516C55.0203 26.5476 54.4968 26.3902 53.9632 26.4019C53.4297 26.4136 52.9136 26.5938 52.4887 26.9168C52.0639 27.2397 51.7522 27.6889 51.5982 28.1998L43.6737 54.4933H47.4383L49.275 47.7L57.7205 47.6067L60.0762 54.1284C60.1252 54.2652 60.2012 54.3906 60.2998 54.4974C60.3984 54.6041 60.5174 54.69 60.6498 54.7497C60.7822 54.8095 60.9253 54.842 61.0706 54.8453C61.2158 54.8486 61.3602 54.8227 61.4952 54.769L65.9329 53.0134C66.7666 52.6833 67.4659 52.0839 67.9196 51.3105C70.4962 46.9276 79.2722 31.4779 81.04 21.4775C83.1179 9.73156 72.3633 1.79689 63.8246 1.01437ZM49.8872 45.1598L53.3741 34.0201L57.1691 45.1598H49.8872Z" fill="#72C1B7"/>
<path d="M59.2674 59.7926C58.3227 59.8149 56.2407 59.7926 54.3696 59.2452C55.4724 57.745 56.261 55.5475 56.3441 54.3089C56.4353 52.9324 55.144 51.6917 53.7938 52.2816C52.4437 52.8715 52.7174 54.1244 52.762 54.8319C52.8045 55.4705 52.9931 57.3599 52.6606 58.5337C50.0414 57.1146 47.11 54.317 46.3072 51.641C45.6646 49.4982 45.7416 47.2337 47.7141 46.7959C49.1818 46.4695 50.1164 47.1364 50.3151 48.6204C50.3142 48.9356 50.3946 49.2458 50.5483 49.521C50.7021 49.7962 50.9241 50.0272 51.193 50.1918C51.4619 50.3564 51.7686 50.449 52.0837 50.4606C52.3987 50.4723 52.7115 50.4027 52.9918 50.2585C53.2722 50.1143 53.5107 49.9004 53.6844 49.6373C53.8581 49.3743 53.9612 49.0709 53.9837 48.7565C54.0063 48.442 53.9475 48.1271 53.813 47.8419C53.6786 47.5568 53.473 47.311 53.2161 47.1283C53.2161 47.1283 52.4194 45.9768 51.5699 45.4335C50.684 44.8679 48.0162 44.6226 46.4876 45.1436C44.9591 45.6646 42.9095 46.7857 43.1244 50.0232C43.1903 51.078 43.4025 52.1185 43.7549 53.1148C43.2077 53.2488 42.6959 53.4993 42.2544 53.8492C41.8129 54.1991 41.4521 54.64 41.1965 55.1421C40.1829 57.07 40.4099 59.679 41.8837 61.0616C43.1001 62.2091 44.9591 62.9571 47.4384 62.8598C49.0197 62.797 50.7185 62.1361 52.0808 61.2867C54.6169 62.5821 56.3583 63.0341 57.1935 63.1862C57.3568 63.2157 57.5253 63.1944 57.6761 63.1251C57.8269 63.0559 57.9528 62.9421 58.0369 62.799L59.5229 60.2305C59.55 60.1861 59.5646 60.1352 59.5651 60.0833C59.5657 60.0313 59.5521 59.9801 59.5259 59.9352C59.4997 59.8903 59.4619 59.8533 59.4163 59.8282C59.3708 59.8031 59.3194 59.7908 59.2674 59.7926ZM49.8873 61.4265C48.3567 62.0226 47.2782 62.205 45.5571 61.6556C43.6069 61.0312 42.5507 58.1221 43.5299 56.4679C43.8406 55.9693 44.2659 55.5523 44.7705 55.2515C45.7456 56.8389 47.2681 58.4647 49.6359 59.9142C50.1488 60.2305 50.6496 60.5224 51.1077 60.7738C50.7311 61.0436 50.3208 61.2631 49.8873 61.4265Z" fill="#EA7424"/>
<path d="M40.0935 55.7499L41.7518 53.299L46.2503 34.8408H39.5604L32.9333 55.7499L25.6818 34.8408H16.9646V68.5844C16.9646 72.2244 18.4106 75.7153 20.9844 78.2891C23.5583 80.863 27.0491 82.3089 30.6891 82.3089H35.1146C35.4332 82.3089 35.7436 82.2078 36.0011 82.0202C36.2587 81.8326 36.4501 81.5681 36.5479 81.2649C37.302 78.9153 39.5016 73.2755 43.6777 71.4753C43.6777 71.4753 47.8883 82.5461 54.5134 86.2236C54.7223 86.3403 54.9526 86.4136 55.1905 86.4393C55.4284 86.465 55.669 86.4424 55.898 86.3729C56.127 86.3035 56.3396 86.1886 56.5232 86.0351C56.7067 85.8816 56.8575 85.6926 56.9664 85.4796C59.0098 81.4392 65.9856 70.786 76.357 71.605C78.2201 71.753 79.5195 71.1449 81.1799 71.1084C83.2578 71.0617 86.2723 71.3111 87.7887 71.4753C95.4152 72.3227 102.182 74.0844 109.829 75.1548C121.08 76.732 139.857 79.1262 152.831 76.065C162.215 73.8533 172.698 69.8231 176.424 66.9768L175.735 65.7362C175.735 65.7362 168.883 69.369 166.327 70.4657C163.951 71.4794 152.28 75.1548 145.243 75.6373C138.123 76.0931 130.976 75.9317 123.884 75.1548C120.166 74.7676 109.207 73.533 101.882 72.0267C95.024 70.6076 85.6337 68.9858 80.5839 68.9858C75.534 68.9858 69.4765 68.8034 64.0597 72.6592C58.6429 76.5151 55.0587 83.3205 55.0587 83.3205C55.0587 83.3205 46.3415 74.506 45.6016 68.2641C45.6016 68.2641 38.9116 67.7127 34.4091 79.5559L29.9877 79.6168C28.8132 79.6329 27.6472 79.4155 26.5574 78.9772C25.4677 78.5389 24.4758 77.8885 23.6396 77.0637C22.8033 76.2389 22.1392 75.2562 21.6858 74.1726C21.2325 73.089 20.999 71.9262 20.9988 70.7516V43.4769L28.8017 63.9522L33.8516 64.1346L39.6354 45.1636L40.0935 55.7499Z" fill="#72C1B7"/>
<path d="M81.7515 66.4579H76.7989C76.2469 66.4579 75.7994 66.9053 75.7994 67.4573V73.2918C75.7994 73.8437 76.2469 74.2912 76.7989 74.2912H81.7515C82.3034 74.2912 82.7509 73.8437 82.7509 73.2918V67.4573C82.7509 66.9053 82.3034 66.4579 81.7515 66.4579Z" fill="#72C1B7"/>
<path d="M101.647 68.463H96.6944C96.1424 68.463 95.6949 68.9105 95.6949 69.4625V75.2969C95.6949 75.8489 96.1424 76.2963 96.6944 76.2963H101.647C102.199 76.2963 102.646 75.8489 102.646 75.2969V69.4625C102.646 68.9105 102.199 68.463 101.647 68.463Z" fill="#72C1B7"/>
<path d="M123.681 71.4205L118.519 71.0785C117.968 71.042 117.492 71.4589 117.456 72.0097L117.07 77.8314C117.034 78.3821 117.451 78.8582 118.001 78.8947L123.164 79.2367C123.714 79.2731 124.191 78.8562 124.227 78.3055L124.613 72.4838C124.649 71.933 124.232 71.457 123.681 71.4205Z" fill="#72C1B7"/>
<path d="M144.068 72.4147L138.242 72.7303C137.691 72.7601 137.268 73.2311 137.298 73.7823L137.614 79.6082C137.644 80.1593 138.115 80.5819 138.666 80.5521L144.492 80.2366C145.043 80.2067 145.465 79.7357 145.436 79.1846L145.12 73.3587C145.09 72.8075 144.619 72.3849 144.068 72.4147Z" fill="#72C1B7"/>
<path d="M163.739 68.3508L158.044 69.6185C157.506 69.7385 157.166 70.2725 157.286 70.8112L158.554 76.5063C158.674 77.0451 159.208 77.3846 159.747 77.2647L165.442 75.9969C165.98 75.877 166.32 75.343 166.2 74.8042L164.932 69.1091C164.812 68.5704 164.278 68.2308 163.739 68.3508Z" fill="#72C1B7"/>
</svg>
