<svg xmlns="http://www.w3.org/2000/svg" viewBox="0 0 983.93 754.56"><defs><style>.cls-1{opacity:0.1;}.cls-2{fill:#61b9be;}.cls-3{fill:#fff;}.cls-4{fill:#88cace;}.cls-5{opacity:0.3;}.cls-6{fill:#ffc933;}.cls-7{fill:#1f3d59;}</style></defs><g id="Capa_2" data-name="Capa 2"><g id="Capa_1-2" data-name="Capa 1"><g class="cls-1"><path class="cls-2" d="M886.68,217,41.87,467.4c-27.12,8-45.58,39.76-41.24,70.87h0c4.35,31.1,29.85,49.81,57,41.77L902.4,329.68c27.12-8,45.58-39.77,41.24-70.87h0C939.3,227.7,913.79,209,886.68,217Z"/><path class="cls-2" d="M932.09,2.07,150.48,233.69c-25.09,7.44-42.73,32.76-39.41,56.56h0c3.32,23.79,26.35,37.06,51.44,29.62L944.12,88.24c25.08-7.43,42.73-32.75,39.41-56.55h0C980.2,7.9,957.17-5.37,932.09,2.07Z"/><path class="cls-2" d="M111.64,426.24,703.9,250.72c15.5-4.59,26.05-22.72,23.57-40.5s-17.06-28.46-32.55-23.87L102.66,361.87c-15.5,4.59-26,22.72-23.57,40.5S96.15,430.83,111.64,426.24Z"/><path class="cls-2" d="M795.26,381.91l-625,185.23c-18.08,5.36-30.39,26.51-27.49,47.25s19.89,33.21,38,27.85L805.74,457c18.08-5.36,30.39-26.51,27.5-47.25S813.34,376.56,795.26,381.91Z"/><path class="cls-2" d="M153,426.08,773.31,242.25c7.75-2.29,13-11.36,11.78-20.24s-8.53-14.24-16.27-11.94L148.5,393.9c-7.75,2.3-13,11.36-11.78,20.25S145.24,428.38,153,426.08Z"/><path class="cls-2" d="M257.68,487.23c-7.75,2.29-13,11.36-11.78,20.25s8.52,14.23,16.27,11.93l435.66-129.1c7.74-2.3,13-11.36,11.78-20.25s-8.53-14.23-16.28-11.94Z"/><path class="cls-2" d="M917.57,438.3,72.76,688.66C65,691,59.74,700,61,708.91s8.52,14.23,16.27,11.93L922.06,470.49c7.75-2.3,13-11.37,11.78-20.25S925.31,436,917.57,438.3Z"/></g><path class="cls-3" d="M600.65,266.39V246.7A68.89,68.89,0,0,0,659,214.36l-.41-6.41c-7.39-50.54-52.2-89.24-104.14-89.24-20.57,0-39.79,5.49-55.59,15.86a83.66,83.66,0,0,1-91.69,0c-15.79-10.37-35-15.86-55.57-15.86A105.44,105.44,0,0,0,246.23,224v26a347,347,0,0,0,33.28,148.46c34.6,2.79,69.2-2.08,103.8-2.08,80.9,0,162.59-3.95,243.66.8a350.07,350.07,0,0,0,29.75-101.8A68.84,68.84,0,0,0,600.65,266.39Z"/><path class="cls-4" d="M637.68,249.12c-6.65-44.94-47-79.37-93.79-79.37-18.52,0-35.83,4.88-50.06,14.11a76.18,76.18,0,0,1-82.58,0c-14.22-9.23-31.53-14.11-50.05-14.11-52.31,0-94.86,42-94.86,93.68v23.1a305.38,305.38,0,0,0,24.24,119.34l324.12-.63A307.57,307.57,0,0,0,636,326.89l2.8-23.6a159.21,159.21,0,0,0,.63-31Z"/><g class="cls-5"><path class="cls-3" d="M644.7,465.33A11.31,11.31,0,1,1,656,476.63,11.31,11.31,0,0,1,644.7,465.33Z"/><path class="cls-3" d="M599.41,465.36a11.31,11.31,0,1,1,11.32,11.3A11.31,11.31,0,0,1,599.41,465.36Z"/><path class="cls-3" d="M554.12,465.39a11.31,11.31,0,1,1,11.32,11.3A11.31,11.31,0,0,1,554.12,465.39Z"/><path class="cls-3" d="M599.38,420.13a11.31,11.31,0,1,1,11.32,11.3A11.31,11.31,0,0,1,599.38,420.13Z"/><path class="cls-3" d="M554.09,420.16a11.31,11.31,0,1,1,11.32,11.3A11.31,11.31,0,0,1,554.09,420.16Z"/><path class="cls-3" d="M599.35,374.91a11.31,11.31,0,1,1,11.32,11.29A11.32,11.32,0,0,1,599.35,374.91Z"/><path class="cls-3" d="M554.06,374.94a11.31,11.31,0,1,1,11.32,11.29A11.32,11.32,0,0,1,554.06,374.94Z"/><path class="cls-3" d="M599.32,329.68A11.31,11.31,0,1,1,610.64,341,11.32,11.32,0,0,1,599.32,329.68Z"/><circle class="cls-3" cx="565.34" cy="329.7" r="11.31"/><path class="cls-3" d="M599.29,284.45a11.31,11.31,0,1,1,11.32,11.3A11.31,11.31,0,0,1,599.29,284.45Z"/><path class="cls-3" d="M554,284.48a11.31,11.31,0,1,1,11.32,11.3A11.31,11.31,0,0,1,554,284.48Z"/><path class="cls-3" d="M656,408.79a11.31,11.31,0,1,1-11.3,11.31A11.31,11.31,0,0,1,656,408.79Z"/><circle class="cls-3" cx="655.95" cy="374.8" r="11.31"/><circle class="cls-3" cx="655.92" cy="329.51" r="11.31"/><circle class="cls-3" cx="655.89" cy="284.22" r="11.31"/><path class="cls-3" d="M599.26,239.22a11.31,11.31,0,1,1,11.32,11.3A11.31,11.31,0,0,1,599.26,239.22Z"/><path class="cls-3" d="M554,239.25a11.31,11.31,0,1,1,11.32,11.3A11.31,11.31,0,0,1,554,239.25Z"/><path class="cls-3" d="M599.23,194a11.31,11.31,0,1,1,11.32,11.3A11.32,11.32,0,0,1,599.23,194Z"/><path class="cls-3" d="M553.94,194a11.31,11.31,0,1,1,11.32,11.3A11.32,11.32,0,0,1,553.94,194Z"/><path class="cls-3" d="M655.85,227.75a11.31,11.31,0,1,1-11.3,11.31A11.32,11.32,0,0,1,655.85,227.75Z"/><path class="cls-3" d="M655.82,182.46a11.31,11.31,0,1,1-11.3,11.31A11.31,11.31,0,0,1,655.82,182.46Z"/></g><ellipse class="cls-6" cx="679.02" cy="257.57" rx="41.73" ry="43.52" transform="translate(-8.1 22.45) rotate(-1.88)"/><path class="cls-7" d="M285.22,250.77v-3.3H265.53v3.3c0,5.64.15,11.28.43,16.89l19.67-1C285.37,261.37,285.22,256.08,285.22,250.77Z"/><path class="cls-7" d="M287.2,285.73,267.63,288A329,329,0,0,0,300.27,397.6c7.75,1.63,15.49,1.87,23.24,1.93A309.68,309.68,0,0,1,287.2,285.73Z"/><path class="cls-7" d="M452.58,168.71a102.71,102.71,0,0,1-57.69-17.59l-11,16.32a123.08,123.08,0,0,0,137.42,0l-11-16.32A102.71,102.71,0,0,1,452.58,168.71Z"/><path class="cls-7" d="M688.86,178.55H670c-18.64-46.38-64.29-78.76-116-78.76-24.42,0-47.38,6.61-66.4,19.09a64.17,64.17,0,0,1-70.05,0c-19-12.48-42-19.09-66.4-19.09a125.15,125.15,0,0,0-125,125v26A366.45,366.45,0,0,0,257,398.14c7.17,1.61,14.33,1,21.5-.23a347,347,0,0,1-32.66-147.14v-26A105.44,105.44,0,0,1,351.16,119.48c20.57,0,39.78,5.49,55.58,15.86a83.64,83.64,0,0,0,91.68,0c15.8-10.37,35-15.86,55.59-15.86,51.94,0,96.75,38.71,104.14,89.24l.41,6.41a68.89,68.89,0,0,1-58.3,32.34v19.69a68.83,68.83,0,0,1,56.07,29,350.11,350.11,0,0,1-29.64,101.58c7,.71,14,1.13,21,1.35a373.51,373.51,0,0,0,21.49-64c0,.35,0,.68,0,1h19.68a69,69,0,0,1,68.92-68.92V247.47A69,69,0,0,1,688.86,178.55ZM679,295.66a89,89,0,0,0-38.35-38.34A89.1,89.1,0,0,0,679,219a89.1,89.1,0,0,0,38.35,38.35A89,89,0,0,0,679,295.66Z"/><path class="cls-4" d="M538.33,478.49a13.75,13.75,0,0,1-4.63,10.28l-6,5.27a34.83,34.83,0,0,0-3.26,48.72l3.07,3.55A13.69,13.69,0,0,1,527.8,564l-7.45,9.1A34.78,34.78,0,0,0,519,615.23l9.89,13.85a13.76,13.76,0,0,1-1.06,17.25l-18.74,20.41-44,46.74-44-46.74-18.74-20.41a13.78,13.78,0,0,1-1.06-17.25l9.89-13.85a34.78,34.78,0,0,0-1.38-42.16l-7.44-9.1a13.69,13.69,0,0,1,.24-17.66l3.07-3.55A34.84,34.84,0,0,0,402.31,494l-6-5.27a13.72,13.72,0,0,1-4.63-10.28V450.33c21.6.57,46.3.94,74.11.94,27.2,0,51.35-.35,72.5-.91Z"/><path class="cls-4" d="M642.81,427.72a1.39,1.39,0,0,1-1.25,1.39c-20.28,2-78,6.54-175.73,6.54-97.91,0-156.63-4.59-177.34-6.56a1.39,1.39,0,0,1-1.26-1.39V400a1.38,1.38,0,0,1,1.38-1.4h.1c32.86,2.09,115.73,6.94,175.5,6.94s143.81-4.86,177.12-6.95a1.32,1.32,0,0,1,1,.38,1.34,1.34,0,0,1,.44,1Z"/><path class="cls-7" d="M644.4,393.5a22.45,22.45,0,0,0-16.73-6c-33.11,2.07-116.54,6.9-175.8,6.9s-141.51-4.82-174.17-6.89a22.4,22.4,0,0,0-23.81,22.35v27.75a22.31,22.31,0,0,0,20.27,22.3c13.07,1.24,41.09,3.52,84.21,5.06v28.81a34.74,34.74,0,0,0,11.72,26l6,5.27a13.76,13.76,0,0,1,1.29,19.25l-3.07,3.55a34.64,34.64,0,0,0-.62,44.7l7.45,9.1a13.75,13.75,0,0,1,.54,16.66l-9.89,13.85a34.86,34.86,0,0,0,2.68,43.66l18.79,20.46.09.1L445,751.26l.21.21.23.23.19.17.39.33.43.33.42.29.47.29a4.19,4.19,0,0,0,.42.24l.51.25c.14.06.27.13.41.18l.57.21.39.13.63.16.35.08c.24,0,.48.08.72.11l.29,0c.33,0,.67,0,1,0h0c.34,0,.67,0,1,0l.29,0c.24,0,.48-.06.71-.11l.36-.08.63-.16.39-.13.57-.21.41-.18.51-.25.42-.24.47-.29.42-.29.43-.33.39-.33.19-.17c.08-.07.15-.16.23-.23l.21-.21,51.73-54.89.09-.1,18.79-20.46a34.88,34.88,0,0,0,2.68-43.66l-9.89-13.85a13.75,13.75,0,0,1,.54-16.66l7.45-9.1a34.64,34.64,0,0,0-.62-44.7L528,544.29A13.76,13.76,0,0,1,529.3,525l6-5.27a34.77,34.77,0,0,0,11.71-26V465c43.42-1.53,71.33-3.83,84.26-5.08a22.32,22.32,0,0,0,20.23-22.3V409.83A22.5,22.5,0,0,0,644.4,393.5ZM526,493.76A13.7,13.7,0,0,1,521.35,504l-6,5.27A34.85,34.85,0,0,0,512.14,558l3.07,3.54a13.68,13.68,0,0,1,.24,17.66l-7.44,9.1a34.78,34.78,0,0,0-1.38,42.16l9.89,13.85a13.78,13.78,0,0,1-1.06,17.25L496.72,682l-44,46.74-44-46.74L389.9,661.6a13.76,13.76,0,0,1-1.06-17.25l9.89-13.85a34.78,34.78,0,0,0-1.38-42.16l-7.45-9.1a13.69,13.69,0,0,1,.25-17.66l3.07-3.54A34.85,34.85,0,0,0,390,509.31L384,504a13.74,13.74,0,0,1-4.63-10.28V465.6c21.61.57,46.31.94,74.12.94,27.2,0,51.35-.35,72.49-.91Zm104.49-56.15a1.38,1.38,0,0,1-1.26,1.39c-20.28,2-78,6.54-175.72,6.54-97.91,0-156.64-4.58-177.34-6.56a1.38,1.38,0,0,1-1.26-1.39V409.84a1.35,1.35,0,0,1,.44-1,1.34,1.34,0,0,1,.94-.38h.1c32.85,2.08,115.73,6.93,175.5,6.93s143.81-4.86,177.12-6.94a1.39,1.39,0,0,1,1.48,1.39Z"/></g></g></svg>