<?xml version="1.0" encoding="utf-8"?>
<!-- Generator: Adobe Illustrator 24.1.3, SVG Export Plug-In . SVG Version: 6.00 Build 0)  -->
<svg version="1.1" id="Capa_1" xmlns="http://www.w3.org/2000/svg" xmlns:xlink="http://www.w3.org/1999/xlink" x="0px" y="0px"
	 viewBox="0 0 983.9 754.6" style="enable-background:new 0 0 983.9 754.6;" xml:space="preserve">
<style type="text/css">
	.st0{fill:url(#SVGID_1_);}
	.st1{fill:#FFFFFF;}
	.st2{fill:url(#SVGID_2_);}
	.st3{fill:url(#SVGID_3_);}
	.st4{fill:#171717;}
	.st5{fill:url(#SVGID_4_);}
	.st6{fill:url(#SVGID_5_);}
</style>
<linearGradient id="SVGID_1_" gradientUnits="userSpaceOnUse" x1="490.4972" y1="161.2555" x2="867.5028" y2="161.2555">
	<stop  offset="0" style="stop-color:#8E8E8E"/>
	<stop  offset="0.2899" style="stop-color:#D6D6D6"/>
	<stop  offset="0.5151" style="stop-color:#A2A2A2"/>
	<stop  offset="0.7385" style="stop-color:#D9D9D9"/>
	<stop  offset="0.7915" style="stop-color:#D1D1D1"/>
	<stop  offset="0.8718" style="stop-color:#BCBCBC"/>
	<stop  offset="0.969" style="stop-color:#9A9A9A"/>
	<stop  offset="1" style="stop-color:#8E8E8E"/>
</linearGradient>
<path class="st0" d="M857.1,56.3c-5.7,0-10.4-4.4-10.4-9.7s4.6-9.7,10.4-9.7s10.4,4.4,10.4,9.7S862.9,56.3,857.1,56.3z M778.4,46.6
	c0-5.4-4.6-9.7-10.4-9.7s-10.4,4.4-10.4,9.7s4.6,9.7,10.4,9.7S778.4,51.9,778.4,46.6z M689.4,46.6c0-5.4-4.6-9.7-10.4-9.7
	s-10.4,4.4-10.4,9.7s4.6,9.7,10.4,9.7S689.4,51.9,689.4,46.6z M600.3,46.6c0-5.4-4.6-9.7-10.4-9.7c-5.7,0-10.4,4.4-10.4,9.7
	s4.6,9.7,10.4,9.7C595.6,56.3,600.3,51.9,600.3,46.6z M511.2,46.6c0-5.4-4.6-9.7-10.4-9.7s-10.4,4.4-10.4,9.7s4.6,9.7,10.4,9.7
	S511.2,51.9,511.2,46.6z M867.5,123c0-5.4-4.6-9.7-10.4-9.7s-10.4,4.4-10.4,9.7c0,5.4,4.6,9.7,10.4,9.7S867.5,128.4,867.5,123z
	 M778.4,123c0-5.4-4.6-9.7-10.4-9.7s-10.4,4.4-10.4,9.7c0,5.4,4.6,9.7,10.4,9.7S778.4,128.4,778.4,123z M689.4,123
	c0-5.4-4.6-9.7-10.4-9.7s-10.4,4.4-10.4,9.7c0,5.4,4.6,9.7,10.4,9.7S689.4,128.4,689.4,123z M600.3,123c0-5.4-4.6-9.7-10.4-9.7
	c-5.7,0-10.4,4.4-10.4,9.7c0,5.4,4.6,9.7,10.4,9.7C595.6,132.8,600.3,128.4,600.3,123z M511.2,123c0-5.4-4.6-9.7-10.4-9.7
	s-10.4,4.4-10.4,9.7c0,5.4,4.6,9.7,10.4,9.7S511.2,128.4,511.2,123z M867.5,199.5c0-5.4-4.6-9.7-10.4-9.7s-10.4,4.4-10.4,9.7
	s4.6,9.7,10.4,9.7S867.5,204.9,867.5,199.5z M778.4,199.5c0-5.4-4.6-9.7-10.4-9.7s-10.4,4.4-10.4,9.7s4.6,9.7,10.4,9.7
	S778.4,204.9,778.4,199.5z M689.4,199.5c0-5.4-4.6-9.7-10.4-9.7s-10.4,4.4-10.4,9.7s4.6,9.7,10.4,9.7S689.4,204.9,689.4,199.5z
	 M600.3,199.5c0-5.4-4.6-9.7-10.4-9.7c-5.7,0-10.4,4.4-10.4,9.7s4.6,9.7,10.4,9.7C595.6,209.2,600.3,204.9,600.3,199.5z
	 M511.2,199.5c0-5.4-4.6-9.7-10.4-9.7s-10.4,4.4-10.4,9.7s4.6,9.7,10.4,9.7S511.2,204.9,511.2,199.5z M867.5,276
	c0-5.4-4.6-9.7-10.4-9.7s-10.4,4.4-10.4,9.7c0,5.4,4.6,9.7,10.4,9.7S867.5,281.3,867.5,276z M778.4,276c0-5.4-4.6-9.7-10.4-9.7
	s-10.4,4.4-10.4,9.7c0,5.4,4.6,9.7,10.4,9.7S778.4,281.3,778.4,276z M689.4,276c0-5.4-4.6-9.7-10.4-9.7s-10.4,4.4-10.4,9.7
	c0,5.4,4.6,9.7,10.4,9.7S689.4,281.3,689.4,276z M600.3,276c0-5.4-4.6-9.7-10.4-9.7c-5.7,0-10.4,4.4-10.4,9.7
	c0,5.4,4.6,9.7,10.4,9.7C595.6,285.7,600.3,281.3,600.3,276z M511.2,276c0-5.4-4.6-9.7-10.4-9.7s-10.4,4.4-10.4,9.7
	c0,5.4,4.6,9.7,10.4,9.7S511.2,281.3,511.2,276z"/>
<path class="st1" d="M600.7,266.4v-19.7c23.7,0,45.8-12.2,58.3-32.3l-0.4-6.4c-7.4-50.5-52.2-89.2-104.1-89.2
	c-20.6,0-39.8,5.5-55.6,15.9c-27.8,18.2-63.8,18.2-91.7,0c-15.8-10.4-35-15.9-55.6-15.9c-58.1,0-105.3,47.1-105.4,105.3v26
	c0,51.3,11.3,102,33.3,148.5c34.6,2.8,69.2-2.1,103.8-2.1c80.9,0,162.6-4,243.7,0.8c15-32.2,25.1-66.6,29.8-101.8
	C643.8,277.2,622.9,266.4,600.7,266.4z"/>
<linearGradient id="SVGID_2_" gradientUnits="userSpaceOnUse" x1="266.3" y1="465.25" x2="639.78" y2="465.25" gradientTransform="matrix(1 0 0 -1 0 753)">
	<stop  offset="0" style="stop-color:#905E02"/>
	<stop  offset="1" style="stop-color:#F0DA66"/>
</linearGradient>
<path class="st2" d="M637.7,249.1c-6.7-44.9-47-79.4-93.8-79.4c-18.5,0-35.8,4.9-50.1,14.1c-25.1,16.2-57.4,16.2-82.6,0
	c-14.2-9.2-31.5-14.1-50-14.1c-52.3,0-94.9,42-94.9,93.7v23.1c0,41,8.2,81.6,24.2,119.3l324.1-0.6c10.5-25.1,17.7-51.4,21.3-78.3
	l2.8-23.6c1.2-10.3,1.4-20.7,0.6-31L637.7,249.1z"/>
<linearGradient id="SVGID_3_" gradientUnits="userSpaceOnUse" x1="637.2744" y1="495.4" x2="720.7256" y2="495.4" gradientTransform="matrix(1 0 0 -1 0 753)">
	<stop  offset="0" style="stop-color:#8E8E8E"/>
	<stop  offset="0.2899" style="stop-color:#D6D6D6"/>
	<stop  offset="0.5151" style="stop-color:#A2A2A2"/>
	<stop  offset="0.7385" style="stop-color:#D9D9D9"/>
	<stop  offset="0.7915" style="stop-color:#D1D1D1"/>
	<stop  offset="0.8718" style="stop-color:#BCBCBC"/>
	<stop  offset="0.969" style="stop-color:#9A9A9A"/>
	<stop  offset="1" style="stop-color:#8E8E8E"/>
</linearGradient>
<path class="st3" d="M677.6,214.1c23-0.8,42.3,18.1,43.1,42.1s-17.2,44.1-40.3,44.9c-23,0.8-42.3-18.1-43.1-42.1
	S654.5,214.9,677.6,214.1z"/>
<path class="st4" d="M285.2,250.8v-3.3h-19.7v3.3c0,5.6,0.1,11.3,0.4,16.9l19.7-1C285.4,261.4,285.2,256.1,285.2,250.8z"/>
<path class="st4" d="M287.2,285.7l-19.6,2.3c4.4,38.2,15.4,75.3,32.6,109.6c7.8,1.6,15.5,1.9,23.2,1.9
	C304.1,364.3,291.8,325.7,287.2,285.7z"/>
<path class="st4" d="M452.6,168.7c-20.6,0-40.7-6.1-57.7-17.6l-11,16.3c41.5,28,95.9,28,137.4,0l-11-16.3
	C493.3,162.6,473.2,168.8,452.6,168.7z"/>
<path class="st4" d="M688.9,178.6H670c-18.6-46.4-64.3-78.8-116-78.8c-24.4,0-47.4,6.6-66.4,19.1c-21.3,13.9-48.8,13.9-70.1,0
	c-19-12.5-42-19.1-66.4-19.1c-69,0.1-124.9,56-125,125v26c0,50.7,10.5,100.9,30.9,147.4c7.2,1.6,14.3,1,21.5-0.2
	c-21.5-46.1-32.7-96.3-32.7-147.1v-26c0.1-58.1,47.2-105.2,105.3-105.3c20.6,0,39.8,5.5,55.6,15.9c27.8,18.2,63.8,18.2,91.7,0
	c15.8-10.4,35-15.9,55.6-15.9c51.9,0,96.8,38.7,104.1,89.2l0.4,6.4c-12.6,20.1-34.6,32.3-58.3,32.3v19.7c22.3,0,43.2,10.8,56.1,29
	c-4.7,35.2-14.7,69.4-29.6,101.6c7,0.7,14,1.1,21,1.4c9.1-20.6,16.3-42.1,21.5-64c0,0.4,0,0.7,0,1h19.7c0-38,30.9-68.9,68.9-68.9
	v-19.7C719.7,247.4,688.9,216.6,688.9,178.6z M679,295.7c-8.5-16.5-21.9-29.9-38.3-38.3c16.5-8.5,29.9-21.9,38.3-38.3
	c8.5,16.5,21.9,29.9,38.3,38.4C700.9,265.8,687.5,279.2,679,295.7z"/>
<linearGradient id="SVGID_4_" gradientUnits="userSpaceOnUse" x1="391.7" y1="171.2" x2="538.3" y2="171.2" gradientTransform="matrix(1 0 0 -1 0 753)">
	<stop  offset="0" style="stop-color:#905E02"/>
	<stop  offset="1" style="stop-color:#F0DA66"/>
</linearGradient>
<path class="st5" d="M538.3,478.5c0,3.9-1.7,7.7-4.6,10.3l-6,5.3c-14.2,12.6-15.6,34.3-3.3,48.7l3.1,3.5c4.4,5,4.5,12.5,0.3,17.7
	l-7.5,9.1c-9.9,12.1-10.4,29.4-1.3,42.1l9.9,13.8c3.8,5.3,3.3,12.5-1.1,17.3l-18.7,20.4l-44,46.7l-44-46.7l-18.7-20.4
	c-4.4-4.8-4.8-12-1.1-17.3l9.9-13.8c9.1-12.8,8.5-30-1.4-42.2l-7.4-9.1c-4.2-5.2-4.1-12.6,0.2-17.7l3.1-3.5
	c12.4-14.4,10.9-36.2-3.4-48.8l-6-5.3c-2.9-2.6-4.6-6.3-4.6-10.3v-28.1c21.6,0.6,46.3,0.9,74.1,0.9c27.2,0,51.3-0.4,72.5-0.9
	L538.3,478.5z"/>
<linearGradient id="SVGID_5_" gradientUnits="userSpaceOnUse" x1="287.2" y1="335.95" x2="642.8" y2="335.95" gradientTransform="matrix(1 0 0 -1 0 753)">
	<stop  offset="0" style="stop-color:#905E02"/>
	<stop  offset="1" style="stop-color:#F0DA66"/>
</linearGradient>
<path class="st6" d="M642.8,427.7c0,0.7-0.5,1.3-1.3,1.4c-20.3,2-78,6.5-175.7,6.5c-97.9,0-156.6-4.6-177.3-6.6
	c-0.7-0.1-1.3-0.7-1.3-1.4V400c0-0.8,0.6-1.4,1.4-1.4l0,0h0.1c32.9,2.1,115.7,6.9,175.5,6.9s143.8-4.9,177.1-7c0.4,0,0.7,0.1,1,0.4
	s0.4,0.6,0.4,1L642.8,427.7z"/>
<path class="st4" d="M644.4,393.5c-4.5-4.2-10.6-6.4-16.7-6c-33.1,2.1-116.5,6.9-175.8,6.9s-141.5-4.8-174.2-6.9
	c-12.3-0.8-23,8.6-23.8,20.9c0,0.5,0,0.9,0,1.4v27.8c0,11.6,8.8,21.2,20.3,22.3c13.1,1.2,41.1,3.5,84.2,5.1v28.8
	c0,9.9,4.3,19.4,11.7,26l6,5.3c5.6,5,6.2,13.6,1.3,19.3l-3.1,3.5c-11.1,12.8-11.3,31.6-0.6,44.7l7.5,9.1c3.9,4.8,4.1,11.6,0.5,16.7
	l-9.9,13.8c-9.5,13.4-8.4,31.5,2.7,43.7l18.8,20.5l0.1,0.1l51.6,54.9l0.2,0.2l0.2,0.2l0.2,0.2l0.4,0.3l0.4,0.3l0.4,0.3l0.5,0.3
	c0.1,0.1,0.3,0.2,0.4,0.2l0.5,0.3c0.1,0.1,0.3,0.1,0.4,0.2l0.6,0.2l0.4,0.1l0.6,0.2l0.4,0.1c0.2,0,0.5,0.1,0.7,0.1h0.3
	c0.3,0,0.7,0,1,0l0,0c0.3,0,0.7,0,1,0h0.3c0.2,0,0.5-0.1,0.7-0.1l0.4-0.1l0.6-0.2l0.4-0.1l0.6-0.2l0.4-0.2l0.5-0.3l0.4-0.2l0.5-0.3
	l0.4-0.3l0.4-0.3l0.4-0.3l0.2-0.2c0.1-0.1,0.1-0.2,0.2-0.2l0.2-0.2l51.7-54.9l0.1-0.1l18.8-20.5c11-12.1,12.2-30.3,2.7-43.7
	l-9.9-13.8c-3.6-5-3.4-11.9,0.5-16.7l7.5-9.1c10.7-13.1,10.5-31.9-0.6-44.7l-3-3.6c-4.9-5.7-4.3-14.3,1.3-19.3l6-5.3
	c7.4-6.6,11.7-16.1,11.7-26V465c43.4-1.5,71.3-3.8,84.3-5.1c11.5-1.1,20.3-10.8,20.2-22.3v-27.8
	C651.5,403.6,648.9,397.7,644.4,393.5z M526,493.8c0,3.9-1.7,7.6-4.7,10.2l-6,5.3c-14.2,12.7-15.6,34.3-3.2,48.7l3.1,3.5
	c4.4,5,4.5,12.5,0.2,17.7l-7.4,9.1c-9.9,12.1-10.5,29.4-1.4,42.2l9.9,13.8c3.7,5.3,3.3,12.5-1.1,17.3L496.7,682l-44,46.7l-44-46.7
	l-18.8-20.4c-4.4-4.8-4.8-12-1.1-17.3l9.9-13.8c9.1-12.8,8.5-30-1.4-42.2l-7.5-9.1c-4.2-5.2-4.1-12.6,0.3-17.7l3.1-3.5
	c12.4-14.4,11-36.1-3.2-48.7l-6-5.3c-2.9-2.6-4.6-6.3-4.6-10.3v-28.1c21.6,0.6,46.3,0.9,74.1,0.9c27.2,0,51.4-0.4,72.5-0.9V493.8z
	 M630.5,437.6c0,0.7-0.5,1.3-1.3,1.4c-20.3,2-78,6.5-175.7,6.5c-97.9,0-156.6-4.6-177.3-6.6c-0.7-0.1-1.3-0.7-1.3-1.4v-27.8
	c0-0.4,0.2-0.7,0.4-1c0.3-0.2,0.6-0.4,0.9-0.4h0.1c32.9,2.1,115.7,6.9,175.5,6.9s143.8-4.9,177.1-6.9c0.8,0,1.4,0.5,1.5,1.3v0.1
	L630.5,437.6L630.5,437.6z"/>
</svg>
