<svg xmlns="http://www.w3.org/2000/svg" viewBox="0 0 512 512.01"><defs><style>.cls-1{fill:#fff;}</style></defs><g id="Capa_2" data-name="Capa 2"><g id="Bold"><path class="cls-1" d="M373.48,305.23l-.19,1.6c-46.91-23.39-51.82-26.5-57.88-17.41-4.2,6.29-16.44,20.56-20.14,24.79s-7.44,4.48-13.78,1.6c-6.4-3.2-26.94-9.92-51.26-31.68-18.94-17-31.66-37.76-35.41-44.16-6.25-10.8,6.82-12.33,18.73-34.86,2.13-4.48,1-8-.54-11.18s-14.33-34.56-19.67-47.06C188.22,134.41,183,136,179,136c-12.29-1.07-21.27-.9-29.19,7.34-34.43,37.84-25.75,76.88,3.72,118.4,57.89,75.77,88.74,89.72,145.15,109.1,15.23,4.84,29.12,4.16,40.1,2.58,12.25-1.94,37.7-15.38,43-30.42s5.44-27.52,3.84-30.4-5.76-4.48-12.16-7.36Z"/><path class="cls-1" d="M437.76,73.59C273.73-85,2.26,30,2.15,253.73a252.52,252.52,0,0,0,34,126.82L0,512l135.15-35.24C303.79,567.86,511.91,446.9,512,253.85A251.59,251.59,0,0,0,437.44,74.42Zm31.62,179.56C469.25,416,290.5,517.68,149.12,434.57L141.44,430l-80,20.8L82.88,373l-5.1-8C-10.2,225,90.88,42,257.54,42a211.92,211.92,0,0,1,211.84,211.2Z"/></g></g></svg>